<?xml version="1.0" encoding="utf-8"?>
<!-- Generator: Adobe Illustrator 23.0.3, SVG Export Plug-In . SVG Version: 6.00 Build 0)  -->
<svg version="1.1" id="Layer_1" xmlns="http://www.w3.org/2000/svg" xmlns:xlink="http://www.w3.org/1999/xlink" x="0px" y="0px"
	 viewBox="0 0 1024 768" style="enable-background:new 0 0 1024 768;" xml:space="preserve">
<path id="path1" d="M550.95,719.8c5.88-4.52,11.35-8.9,17.05-12.96c0.95-0.67,3.04-0.36,4.33,0.17
	c21.11,8.63,42.63,15.98,64.75,21.57c35.96,9.09,72.4,13.54,109.45,10.18c37.35-3.38,72.97-12.76,104.8-33.5
	c41.38-26.96,65.16-65.03,70.37-114.2c2.67-25.23-2.27-49.61-10.48-73.41c-13.74-39.82-36.72-73.91-65.87-103.84
	c-59.78-61.38-132.77-97.93-216.64-113.45c-32.97-6.1-66.29-8.85-99.77-8.94c-26.41-0.08-52.85,0.26-79.22,1.55
	c-33.6,1.64-66.68,7.2-99.07,16.49c-0.95,0.27-1.91,0.47-3.49,0.85c0.34-6.9,0.56-13.5,1.11-20.06c0.07-0.83,1.73-1.94,2.82-2.2
	c14.73-3.46,29.39-7.38,44.27-10.04c30.16-5.38,60.68-7.2,91.28-7.18c27.17,0.02,54.39-0.18,81.5,1.31
	c63.79,3.5,125.09,17.59,182.37,46.69c58.01,29.47,107.59,69.05,145.02,122.81c20.67,29.68,36.13,61.82,43.23,97.49
	c12.08,60.72-1.65,114.52-45.34,159.14c-24.87,25.4-55.85,41.17-89.81,51.09c-35.65,10.41-71.99,13.24-108.95,10.09
	c-49.2-4.2-95.83-17.67-140.63-38.04C553.13,720.99,552.27,720.49,550.95,719.8z"/>
<path id="path2" d="M730.04,272.14c-6.77-2.3-13.21-4.29-19.45-6.8c-1.12-0.45-1.7-2.99-2-4.65c-2.89-15.87-4.94-31.94-8.6-47.63
	c-10.68-45.81-29.27-88.02-59.32-124.65C622.14,65.85,600,47.68,573.54,35.09c-40.51-19.27-81-18.63-121.35,0.54
	c-33.84,16.08-59.99,40.88-80.86,71.62c-26.59,39.16-42.73,82.45-51.1,128.84c-4.25,23.61-6.18,47.42-6.3,71.37
	c-0.26,52.2,11.24,102.06,30.55,150.26c21.22,52.96,50.55,101.15,87.08,144.92c15.21,18.23,33.11,33.81,50.88,49.46
	c1.31,1.15,2.62,2.32,4.31,3.81c-5.99,3.62-11.66,7.2-17.53,10.41c-0.86,0.47-3.05-0.49-4.04-1.41
	c-12.88-12.07-26.28-23.66-38.35-36.5c-40.3-42.89-70.19-92.63-94.52-145.95c-17.21-37.71-28.84-77.05-35.08-118
	c-6.02-39.53-5.91-79.05,0.22-118.61c5.86-37.83,15.91-74.36,32.57-108.91c17.45-36.16,40.08-68.54,71.44-94.1
	c26.6-21.68,56.65-36.16,90.87-41.24c31.59-4.69,61.59,0.91,90.22,14.5c36.96,17.54,65.74,44.58,88.69,77.98
	c25.06,36.47,41.29,76.88,50.43,120.01c3.78,17.83,5.64,36.08,8.33,54.14C730.18,269.35,730.04,270.49,730.04,272.14z"/>
<path id="path3" d="M707.42,359.2c6.15,2.95,12.07,5.63,17.78,8.7c0.86,0.46,1.32,2.83,1.03,4.09c-3.88,16.81-7,33.88-12.11,50.32
	c-24.65,79.3-62.54,151.54-118.86,213.02c-62.37,68.07-139.92,109.65-230.54,126.59c-29.49,5.51-59.36,7.7-89.39,4.79
	c-49.38-4.78-94.58-20.42-133-52.68c-31.73-26.64-50.52-61.06-58.17-101.55c-8.14-43.05,0.24-83.87,17.81-123.25
	c24.17-54.19,61.99-97.32,108.98-132.66c14.06-10.58,29.52-19.3,44.35-28.85c1.12-0.72,2.4-1.2,4.13-2.04
	c0.49,7.41,1.1,14.36,1.29,21.32c0.03,1.12-1.54,2.67-2.75,3.38c-21.23,12.48-41.14,26.78-59.44,43.27
	c-40.89,36.85-71.86,80.43-88.43,133.28c-13.07,41.68-10.86,82.83,7.92,122.56c13.37,28.28,34.68,49.43,61.28,65.37
	c30.73,18.42,64.14,28.71,99.86,30.77c96.16,5.56,180.96-24.5,256.18-83.25c45.37-35.44,80.14-79.92,108.29-129.89
	c25.94-46.04,46.66-94.11,58.23-145.86C703.87,377.74,705.5,368.75,707.42,359.2z"/>
</svg>
