<?xml version="1.0" encoding="utf-8"?>
<!-- Generator: Adobe Illustrator 23.0.3, SVG Export Plug-In . SVG Version: 6.00 Build 0)  -->
<svg version="1.1" id="Layer_1" xmlns="http://www.w3.org/2000/svg" xmlns:xlink="http://www.w3.org/1999/xlink" x="0px" y="0px"
	 viewBox="0 0 1024 768" style="enable-background:new 0 0 1024 768;" xml:space="preserve">
<style type="text/css">
	.st0{fill:none;stroke:#000000;stroke-width:10;stroke-miterlimit:10;}
</style>
<path id="path1" d="M551,719.8c5.9-4.5,11.3-8.9,17-13c1-0.7,3-0.4,4.3,0.2c21.1,8.6,42.6,16,64.8,21.6c36,9.1,72.4,13.5,109.5,10.2
	c37.3-3.4,73-12.8,104.8-33.5c41.4-27,65.2-65,70.4-114.2c2.7-25.2-2.3-49.6-10.5-73.4c-13.7-39.8-36.7-73.9-65.9-103.8
	c-59.8-61.4-132.8-97.9-216.6-113.4c-33-6.1-66.3-8.9-99.8-8.9c-26.4-0.1-52.9,0.3-79.2,1.5c-33.6,1.6-66.7,7.2-99.1,16.5
	c-1,0.3-1.9,0.5-3.5,0.9c0.3-6.9,0.6-13.5,1.1-20.1c0.1-0.8,1.7-1.9,2.8-2.2c14.7-3.5,29.4-7.4,44.3-10c30.2-5.4,60.7-7.2,91.3-7.2
	c27.2,0,54.4-0.2,81.5,1.3c63.8,3.5,125.1,17.6,182.4,46.7c58,29.5,107.6,69,145,122.8c20.7,29.7,36.1,61.8,43.2,97.5
	c12.1,60.7-1.7,114.5-45.3,159.1c-24.9,25.4-55.8,41.2-89.8,51.1c-35.7,10.4-72,13.2-109,10.1c-49.2-4.2-95.8-17.7-140.6-38
	C553.1,721,552.3,720.5,551,719.8z"/>
<path id="path2" d="M730,272.1c-6.8-2.3-13.2-4.3-19.5-6.8c-1.1-0.5-1.7-3-2-4.6c-2.9-15.9-4.9-31.9-8.6-47.6
	c-10.7-45.8-29.3-88-59.3-124.7c-18.5-22.6-40.7-40.7-67.1-53.3c-40.5-19.3-81-18.6-121.4,0.5c-33.8,16.1-60,40.9-80.9,71.6
	c-26.6,39.2-42.7,82.4-51.1,128.8c-4.2,23.6-6.2,47.4-6.3,71.4c-0.3,52.2,11.2,102.1,30.5,150.3c21.2,53,50.5,101.2,87.1,144.9
	c15.2,18.2,33.1,33.8,50.9,49.5c1.3,1.2,2.6,2.3,4.3,3.8c-6,3.6-11.7,7.2-17.5,10.4c-0.9,0.5-3-0.5-4-1.4
	c-12.9-12.1-26.3-23.7-38.4-36.5c-40.3-42.9-70.2-92.6-94.5-146c-17.2-37.7-28.8-77-35.1-118c-6-39.5-5.9-79,0.2-118.6
	c5.9-37.8,15.9-74.4,32.6-108.9c17.5-36.2,40.1-68.5,71.4-94.1c26.6-21.7,56.6-36.2,90.9-41.2c31.6-4.7,61.6,0.9,90.2,14.5
	c37,17.5,65.7,44.6,88.7,78c25.1,36.5,41.3,76.9,50.4,120c3.8,17.8,5.6,36.1,8.3,54.1C730.2,269.4,730,270.5,730,272.1z"/>
<path id="path3" d="M707.4,359.2c6.2,3,12.1,5.6,17.8,8.7c0.9,0.5,1.3,2.8,1,4.1c-3.9,16.8-7,33.9-12.1,50.3
	c-24.7,79.3-62.5,151.5-118.9,213C532.9,703.4,455.3,745,364.7,761.9c-29.5,5.5-59.4,7.7-89.4,4.8c-49.4-4.8-94.6-20.4-133-52.7
	c-31.7-26.6-50.5-61.1-58.2-101.5c-8.1-43,0.2-83.9,17.8-123.2c24.2-54.2,62-97.3,109-132.7c14.1-10.6,29.5-19.3,44.4-28.9
	c1.1-0.7,2.4-1.2,4.1-2c0.5,7.4,1.1,14.4,1.3,21.3c0,1.1-1.5,2.7-2.8,3.4c-21.2,12.5-41.1,26.8-59.4,43.3
	c-40.9,36.9-71.9,80.4-88.4,133.3C97,568.6,99.2,609.8,118,649.5c13.4,28.3,34.7,49.4,61.3,65.4c30.7,18.4,64.1,28.7,99.9,30.8
	c96.2,5.6,181-24.5,256.2-83.2c45.4-35.4,80.1-79.9,108.3-129.9c25.9-46,46.7-94.1,58.2-145.9C703.9,377.7,705.5,368.8,707.4,359.2z
	"/>
<circle class="st0" cx="518.8" cy="691.3" r="76.7"/>
<circle class="st0" cx="312.5" cy="320.1" r="76.7"/>
<circle class="st0" cx="721.8" cy="320.1" r="76.7"/>
</svg>
