<?xml version="1.0" encoding="utf-8"?>
<!-- Generator: Adobe Illustrator 23.0.3, SVG Export Plug-In . SVG Version: 6.00 Build 0)  -->
<svg version="1.1" id="Layer_1" xmlns="http://www.w3.org/2000/svg" xmlns:xlink="http://www.w3.org/1999/xlink" x="0px" y="0px"
	 viewBox="0 0 1024 768" style="enable-background:new 0 0 1024 768;" xml:space="preserve">
<path id="PATH1" d="M522,455.92c-68.59-31.87-116.14-74.71-141.33-127.33c-21.55-45.01-25.73-96.17-12.1-147.95
	c12.82-48.68,41.55-96.22,78.83-130.44c37.86-34.75,81.49-52.92,119.7-49.86c39.28,3.14,107.43,31.5,122.58,186.07l-16.47,1.61
	C662.85,82.34,624.7,21.55,565.78,16.83c-33.64-2.69-72.71,13.91-107.19,45.56c-35.01,32.13-61.98,76.77-74.01,122.46
	c-12.62,47.94-8.81,95.17,11.02,136.59c23.49,49.07,68.36,89.26,133.38,119.47L522,455.92z"/>
<path id="PATH2" d="M609.19,701.38c-40.24-10.06-67.04-29.36-79.68-57.36c-29.33-64.98,22.39-164.83,68.03-252.93
	c28.4-54.83,55.22-106.62,56.81-139.38l16.53,0.8c-1.76,36.37-28.12,87.27-58.64,146.19c-43.9,84.76-93.66,180.84-67.64,238.51
	c10.6,23.48,33.04,39.21,68.61,48.11L609.19,701.38z"/>
<path id="PATH3" d="M746.23,764.22c-23.33,0-47.97-6.75-73.06-20.32l7.87-14.56c26.43,14.3,51.88,20.28,75.62,17.79
	c21.8-2.29,41.78-11.65,59.39-27.82c30.7-28.2,52.24-76.39,59.1-132.23c7.29-59.33-2.12-122.83-26.5-178.78
	c-29.2-67.03-78.86-121.47-143.6-157.44c-77.19-42.88-174.55-60.03-289.4-50.96l-1.3-16.5c118.15-9.33,218.65,8.5,298.74,52.99
	c67.95,37.75,120.07,94.91,150.73,165.3c25.54,58.63,35.4,125.18,27.75,187.41c-7.44,60.56-30.28,111.14-64.33,142.4
	C803.56,753.26,775.95,764.22,746.23,764.22z"/>
<path id="PATH4" d="M557.11,757.19c-17.15,0-35.42-1.68-54.62-5.05c-66.91-11.75-144.71-43.39-231.23-94.03
	c-59.65-34.92-102.81-84.55-124.8-143.52c-19.4-52.04-21.79-110.77-6.73-165.36c12.84-46.53,38.04-88.37,70.97-117.8
	c35.62-31.84,78.61-48.51,124.35-48.05l-0.15,16.55c-41.58-0.37-80.68,14.79-113.18,43.84c-30.58,27.34-54.04,66.36-66.04,109.87
	c-14.14,51.27-11.91,106.38,6.28,155.18c20.64,55.36,61.32,102.04,117.65,135.02c84.82,49.65,160.76,80.61,225.73,92.02
	c54.38,9.55,100.24,4.84,132.61-13.62c31.9-18.19,49.57-48.85,49.75-86.32c0.12-25.17-7.76-51.31-22.79-75.58
	c-16.05-25.91-39.65-48.42-68.26-65.1l8.34-14.3c30.94,18.04,56.53,42.48,74,70.69c16.67,26.91,25.41,56.09,25.27,84.37
	c-0.21,43.01-21.39,79.68-58.11,100.62C622.18,750.27,591.96,757.19,557.11,757.19z"/>
</svg>
