<?xml version="1.0" encoding="utf-8"?>
<!-- Generator: Adobe Illustrator 23.0.3, SVG Export Plug-In . SVG Version: 6.00 Build 0)  -->
<svg version="1.1" id="Layer_1" xmlns="http://www.w3.org/2000/svg" xmlns:xlink="http://www.w3.org/1999/xlink" x="0px" y="0px"
	 viewBox="0 0 1024 768" style="enable-background:new 0 0 1024 768;" xml:space="preserve">
<path id="Path1" d="M531.58,470.18c-69-32.06-129.4-82.85-154.89-136.11c-21.92-45.77-26.17-97.73-12.34-150.29
	c12.93-49.14,41.94-97.15,79.58-131.7c39.21-35.99,82.83-54.03,122.9-50.84c40.75,3.25,106.87,50.48,122.26,207.55l-27.7-10.39
	c-9.85-100.6-42.4-163.46-96.92-167.82c-31.35-2.51-68.03,13.23-100.66,43.19c-33.6,30.83-59.48,73.66-71.02,117.5
	c-12.03,45.72-8.43,90.69,10.44,130.09c22.47,46.95,79.54,90.29,142.19,119.39L531.58,470.18z"/>
<path id="Path2" d="M556.31,760.15c-62.73,0-154.51-22.26-284.83-98.55c-60.1-35.17-103.6-85.25-125.8-144.78
	c-19.6-52.55-22.02-111.86-6.8-166.98c12.98-47.05,38.52-89.39,71.87-119.22c36.33-32.47,85.38-49.94,132.13-49.51l-5.44,29.91
	c-39.28-0.42-76.3,14.02-107.08,41.53c-29.2,26.1-51.62,63.44-63.13,105.11c-13.57,49.2-11.44,102.06,6.01,148.87
	c19.8,53.11,58.91,97.96,113.09,129.67c151.12,88.47,277.43,116.6,346.52,77.22c29.31-16.7,45.54-44.9,45.72-79.39
	c0.24-49.98-40.59-107.12-93.36-137.88l13.85-27.7C661.72,504.99,708.3,572.95,708,634.18c-0.23,44.78-22.3,82.99-60.57,104.81
	C628.69,749.67,599.33,760.13,556.31,760.15z"/>
<path id="Path3" d="M742.94,767.12c-24.06,0-48.8-11.22-74.61-25.17l19.04-22.5c47.64,25.78,85.39,23.58,119.82-8.05
	c29.12-26.74,49.59-72.77,56.16-126.26c7.05-57.31-2.06-118.66-25.62-172.74c-28.2-64.72-76.15-117.28-138.67-152.02
	c-74.89-41.61-176.79-58.7-288.65-49.85l4.9-28.89c117.73-9.3,218.01,8.53,298.07,53.02c68.22,37.91,120.57,95.29,151.36,165.99
	c51.97,119.3,35.45,265.33-37.62,332.43C802.43,755.73,773.77,767.12,742.94,767.12z"/>
<path id="Path4" d="M611.2,707.33c-41.68-10.42-74.59-33.08-87.9-62.58c-30.21-66.92,21.53-166.82,67.18-254.95
	c27.64-53.37,59.05-110.34,60.53-141.2l25.97,10.39c-1.8,37.27-29.95,85.6-60.38,144.35c-42.57,82.21-90.83,175.37-66.49,229.29
	c9.56,21.19,54.08,50.86,87.05,59.12L611.2,707.33z"/>
</svg>
