<?xml version="1.0" encoding="utf-8"?>
<!-- Generator: Adobe Illustrator 23.0.3, SVG Export Plug-In . SVG Version: 6.00 Build 0)  -->
<svg version="1.1" id="Layer_1" xmlns="http://www.w3.org/2000/svg" xmlns:xlink="http://www.w3.org/1999/xlink" x="0px" y="0px"
	 viewBox="0 0 1024 768" style="enable-background:new 0 0 1024 768;" xml:space="preserve">
<style type="text/css">
	.st0{fill:none;stroke:#000000;stroke-width:10;stroke-miterlimit:10;}
</style>
<path id="PATH1" d="M522,455.9c-68.6-31.9-116.1-74.7-141.3-127.3c-21.5-45-25.7-96.2-12.1-147.9c12.8-48.7,41.5-96.2,78.8-130.4
	c37.9-34.8,81.5-52.9,119.7-49.9c39.3,3.1,107.4,31.5,122.6,186.1l-16.5,1.6C662.8,82.3,624.7,21.5,565.8,16.8
	c-33.6-2.7-72.7,13.9-107.2,45.6c-35,32.1-62,76.8-74,122.5c-12.6,47.9-8.8,95.2,11,136.6c23.5,49.1,68.4,89.3,133.4,119.5
	L522,455.9z"/>
<path id="PATH2" d="M609.2,701.4c-40.2-10.1-67-29.4-79.7-57.4c-29.3-65,22.4-164.8,68-252.9c28.4-54.8,55.2-106.6,56.8-139.4
	l16.5,0.8c-1.8,36.4-28.1,87.3-58.6,146.2c-43.9,84.8-93.7,180.8-67.6,238.5c10.6,23.5,33,39.2,68.6,48.1L609.2,701.4z"/>
<path id="PATH3" d="M746.2,764.2c-23.3,0-48-6.8-73.1-20.3l7.9-14.6c26.4,14.3,51.9,20.3,75.6,17.8c21.8-2.3,41.8-11.7,59.4-27.8
	c30.7-28.2,52.2-76.4,59.1-132.2c7.3-59.3-2.1-122.8-26.5-178.8c-29.2-67-78.9-121.5-143.6-157.4c-77.2-42.9-174.5-60-289.4-51
	l-1.3-16.5c118.1-9.3,218.6,8.5,298.7,53c68,37.7,120.1,94.9,150.7,165.3c25.5,58.6,35.4,125.2,27.8,187.4
	c-7.4,60.6-30.3,111.1-64.3,142.4C803.6,753.3,776,764.2,746.2,764.2z"/>
<path id="PATH4" d="M557.1,757.2c-17.2,0-35.4-1.7-54.6-5c-66.9-11.8-144.7-43.4-231.2-94c-59.6-34.9-102.8-84.5-124.8-143.5
	c-19.4-52-21.8-110.8-6.7-165.4c12.8-46.5,38-88.4,71-117.8c35.6-31.8,78.6-48.5,124.4-48.1l-0.1,16.6
	c-41.6-0.4-80.7,14.8-113.2,43.8c-30.6,27.3-54,66.4-66,109.9c-14.1,51.3-11.9,106.4,6.3,155.2c20.6,55.4,61.3,102,117.6,135
	c84.8,49.7,160.8,80.6,225.7,92c54.4,9.5,100.2,4.8,132.6-13.6c31.9-18.2,49.6-48.8,49.8-86.3c0.1-25.2-7.8-51.3-22.8-75.6
	c-16-25.9-39.7-48.4-68.3-65.1l8.3-14.3c30.9,18,56.5,42.5,74,70.7c16.7,26.9,25.4,56.1,25.3,84.4c-0.2,43-21.4,79.7-58.1,100.6
	C622.2,750.3,592,757.2,557.1,757.2z"/>
<circle class="st0" cx="670.9" cy="216.3" r="76.7"/>
<circle class="st0" cx="563.7" cy="472.6" r="76.7"/>
<circle class="st0" cx="645.3" cy="701.4" r="76.7"/>
<circle class="st0" cx="383.3" cy="197.8" r="76.7"/>
</svg>
