<?xml version="1.0" encoding="utf-8"?>
<!-- Generator: Adobe Illustrator 23.0.3, SVG Export Plug-In . SVG Version: 6.00 Build 0)  -->
<svg version="1.1" id="Layer_1" xmlns="http://www.w3.org/2000/svg" xmlns:xlink="http://www.w3.org/1999/xlink" x="0px" y="0px"
	 viewBox="0 0 1024 768" style="enable-background:new 0 0 1024 768;" xml:space="preserve">
<path id="PATH1" d="M825.22,357.56l-13.57-23.07c26.46-59.64,30.83-122.56,0.7-150.72c-28.86-26.98-81.34-35.69-151.76-25.19
	c-79.92,11.92-206.5,62.01-317.05,120.28v-25.78c114.43-60.31,230-104.84,313.64-117.31c77.62-11.58,136.73-0.81,170.91,31.15
	C865.97,202.31,855.98,288.25,825.22,357.56z"/>
<path id="PATH2" d="M495.96,768c-0.62,0-1.22-0.01-1.84-0.02c-57.15-0.99-120.68-88.72-157.35-179.76l27.14,8.14
	c32.88,81.64,83.61,147.75,130.62,148.56c42.58,0.69,92.59-32.55,144.6-96.24c48.68-59.62,105.1-163.93,149.47-263.98l16.28,25.78
	C759.69,512.39,706.97,602.08,657,663.27C600.23,732.77,546.06,768,495.96,768z"/>
<path id="PATH3" d="M335.41,540.73C284.12,231.65,300.83,51.12,384.4,9.26c30.19-15.12,67.2-11.71,109.98,10.12
	c35.15,17.94,92.97,68.79,131.39,108.88l-27.14,6.78c-36.66-38.24-81.86-78.33-114.74-95.12C448,21.61,418,18.23,394.73,29.89
	c-32.2,16.13-52.73,61.04-61.04,133.5c-9.96,86.91,1.07,224.88,27.5,384.13L335.41,540.73z"/>
<path id="PATH4" d="M744.15,681.49c-20.32,0-54.73-3.21-79.03-6.43l15.13-21.26c53.85,7.14,97.21,6.05,128.88-3.24
	c27.22-7.99,45.89-22.2,55.51-42.26c19.7-41.1,3.18-110.89-46.51-196.49c-42.56-73.33-129.67-170.99-196.42-234.7l33.92-8.14
	c68.24,65.13,138.85,156.16,182.45,231.26c37.95,65.37,76.97,156.27,47.36,218.04C865.27,660.33,817.86,681.49,744.15,681.49z"/>
<path id="PATH5" d="M610.85,657.42c-39.3-11.79-95.28-28.22-133.02-38.95c-188.97-53.7-338.23-96.12-349.23-174.51
	c-6.74-48.03,61.26-114.91,166.1-180.02l1.36,27.14c-93.5,58.06-149.79,112.83-144.62,149.68c3.89,27.72,36.46,54.17,99.59,80.86
	c60.77,25.7,144.48,49.48,233.1,74.67c37.82,10.75,102.17,30.3,141.64,42.14L610.85,657.42z"/>
</svg>
