<?xml version="1.0" encoding="utf-8"?>
<!-- Generator: Adobe Illustrator 23.0.3, SVG Export Plug-In . SVG Version: 6.00 Build 0)  -->
<svg version="1.1" id="Layer_1" xmlns="http://www.w3.org/2000/svg" xmlns:xlink="http://www.w3.org/1999/xlink" x="0px" y="0px"
	 viewBox="0 0 1024 768" style="enable-background:new 0 0 1024 768;" xml:space="preserve">
<path id="PATH1" d="M843.6,327.46l-15.2-6.74c27.31-61.55,25-111.66-6.5-141.1c-29.88-27.93-83.76-37.01-155.83-26.26
	c-80.98,12.08-182.89,49.62-294.72,108.56l-7.75-14.71c115.08-60.66,216.03-97.77,300.02-110.29
	c77.26-11.52,135.92-0.95,169.64,30.56C870.32,202.12,874,258.94,843.6,327.46z"/>
<path id="PATH2" d="M500.5,768c-0.6,0-1.2,0-1.8-0.02c-56.19-0.97-103.15-47.34-139.6-137.82l15.43-6.21
	c33.71,83.69,75.58,126.56,124.46,127.4c44.02,0.74,95.35-33.23,148.48-98.29c49.29-60.36,99.06-145.74,143.93-246.93l15.2,6.74
	c-45.46,102.52-96.04,189.21-146.25,250.7C603.76,732.88,549.98,768,500.5,768z"/>
<path id="PATH3" d="M342.17,538.93c-26.96-162.47-35.42-290.23-25.16-379.74C326.2,79,350.58,28.46,389.46,8.99
	c29.46-14.76,65.77-11.32,107.93,10.2c35.13,17.93,74.05,48.64,112.55,88.8l-12,11.51c-37.23-38.84-74.61-68.4-108.1-85.5
	c-37.19-18.98-68.46-22.39-92.92-10.14c-33.54,16.8-54.86,62.97-63.38,137.24c-10.09,87.97-1.66,214.18,25.05,375.12L342.17,538.93z
	"/>
<path id="PATH4" d="M750.92,680.75c-20.36,0-42.75-1.62-67.17-4.85l2.19-16.49c54.78,7.26,98.98,6.13,131.36-3.38
	c28.4-8.33,47.93-23.26,58.04-44.37c10.63-22.18,11.43-51.69,2.36-87.71c-8.39-33.36-25.01-71.57-49.4-113.58
	c-43.08-74.21-109.12-157.01-176.67-221.47l11.48-12.03c68.62,65.49,135.75,149.66,179.57,225.16
	c37.87,65.25,76.88,155.83,47.65,216.83C870.6,660.03,823.82,680.75,750.92,680.75z"/>
<path id="PATH5" d="M600.23,651.22c-39.67-11.9-79.04-23.09-117.12-33.91c-189.44-53.84-339.08-96.36-349.87-173.29
	c-6.59-46.99,39.01-99.09,143.51-163.98l8.77,14.13c-50.52,31.37-87.42,60.19-109.67,85.66c-20.19,23.11-28.74,43.36-26.14,61.88
	c4.1,29.22,37.61,56.74,102.44,84.16c61.49,26,146.02,50.02,235.51,75.45c38.13,10.84,77.57,22.04,117.35,33.98L600.23,651.22z"/>
</svg>
