<?xml version="1.0" encoding="utf-8"?>
<!-- Generator: Adobe Illustrator 23.0.3, SVG Export Plug-In . SVG Version: 6.00 Build 0)  -->
<svg version="1.1" id="Layer_1" xmlns="http://www.w3.org/2000/svg" xmlns:xlink="http://www.w3.org/1999/xlink" x="0px" y="0px"
	 viewBox="0 0 1024 768" style="enable-background:new 0 0 1024 768;" xml:space="preserve">
<style type="text/css">
	.st0{fill:none;stroke:#000000;stroke-width:10;stroke-miterlimit:10;}
</style>
<path id="PATH1" d="M843.6,327.5l-15.2-6.7c27.3-61.5,25-111.7-6.5-141.1c-29.9-27.9-83.8-37-155.8-26.3
	c-81,12.1-182.9,49.6-294.7,108.6l-7.8-14.7c115.1-60.7,216-97.8,300-110.3c77.3-11.5,135.9-0.9,169.6,30.6
	C870.3,202.1,874,258.9,843.6,327.5z"/>
<path id="PATH2" d="M500.5,768c-0.6,0-1.2,0-1.8,0c-56.2-1-103.1-47.3-139.6-137.8l15.4-6.2c33.7,83.7,75.6,126.6,124.5,127.4
	c44,0.7,95.3-33.2,148.5-98.3c49.3-60.4,99.1-145.7,143.9-246.9l15.2,6.7c-45.5,102.5-96,189.2-146.2,250.7
	C603.8,732.9,550,768,500.5,768z"/>
<path id="PATH3" d="M342.2,538.9c-27-162.5-35.4-290.2-25.2-379.7C326.2,79,350.6,28.5,389.5,9c29.5-14.8,65.8-11.3,107.9,10.2
	c35.1,17.9,74.1,48.6,112.6,88.8l-12,11.5C560.7,80.7,523.3,51.1,489.8,34c-37.2-19-68.5-22.4-92.9-10.1
	c-33.5,16.8-54.9,63-63.4,137.2c-10.1,88-1.7,214.2,25,375.1L342.2,538.9z"/>
<path id="PATH4" d="M750.9,680.8c-20.4,0-42.8-1.6-67.2-4.8l2.2-16.5c54.8,7.3,99,6.1,131.4-3.4c28.4-8.3,47.9-23.3,58-44.4
	c10.6-22.2,11.4-51.7,2.4-87.7c-8.4-33.4-25-71.6-49.4-113.6c-43.1-74.2-109.1-157-176.7-221.5l11.5-12
	c68.6,65.5,135.8,149.7,179.6,225.2c37.9,65.2,76.9,155.8,47.7,216.8C870.6,660,823.8,680.8,750.9,680.8z"/>
<path id="PATH5" d="M600.2,651.2c-39.7-11.9-79-23.1-117.1-33.9C293.7,563.5,144,521,133.2,444c-6.6-47,39-99.1,143.5-164l8.8,14.1
	c-50.5,31.4-87.4,60.2-109.7,85.7c-20.2,23.1-28.7,43.4-26.1,61.9c4.1,29.2,37.6,56.7,102.4,84.2c61.5,26,146,50,235.5,75.5
	c38.1,10.8,77.6,22,117.3,34L600.2,651.2z"/>
<circle class="st0" cx="810.6" cy="372.2" r="76.7"/>
<circle class="st0" cx="651.6" cy="663.8" r="76.7"/>
<circle class="st0" cx="363.6" cy="581.5" r="76.7"/>
<circle class="st0" cx="326.4" cy="280" r="76.7"/>
<circle class="st0" cx="632.3" cy="147.3" r="76.7"/>
</svg>
