<?xml version="1.0" encoding="utf-8"?>
<!-- Generator: Adobe Illustrator 23.0.3, SVG Export Plug-In . SVG Version: 6.00 Build 0)  -->
<svg version="1.1" id="Layer_1" xmlns="http://www.w3.org/2000/svg" xmlns:xlink="http://www.w3.org/1999/xlink" x="0px" y="0px"
	 viewBox="0 0 1024 768" style="enable-background:new 0 0 1024 768;" xml:space="preserve">
<path id="PATH1" d="M505.86,315.97c-44.68-42.55-72.96-86.62-84.07-130.97c-9.61-38.37-5.8-75.86,11.02-108.41
	c13.4-25.95,34.87-47.73,60.46-61.34c25.5-13.57,53.6-18.3,79.12-13.32c52.3,10.19,86.11,57.48,92.76,129.74l-16.56,1.52
	c-3.19-34.68-12.67-62.47-28.16-82.6c-13.24-17.21-30.96-28.39-51.22-32.34c-21.79-4.25-45.99-0.1-68.13,11.68
	c-22.63,12.04-41.63,31.32-53.49,54.29c-14.93,28.91-18.27,62.36-9.66,96.74c10.33,41.25,37.04,82.62,79.4,122.97L505.86,315.97z"/>
<path id="PATH2" d="M481.81,688.8c-27.97-25.33-39.7-44.34-38.03-61.63c2.01-20.79,22.77-33.32,46.8-47.84
	c26.2-15.82,55.9-33.76,72.71-66.43c19.81-38.51,17.26-89.73-7.79-156.57l15.57-5.84c61.02,162.81-18.96,211.11-71.89,243.07
	c-21.03,12.7-37.64,22.73-38.85,35.2c-1.07,11.07,9.91,27.12,32.64,47.7L481.81,688.8z"/>
<path id="PATH3" d="M625.92,768c-27.82,0-55.2-6.13-81.87-18.37l6.94-15.12c40.01,18.36,81.78,21.72,124.16,9.97
	c38.68-10.72,77-34.2,110.83-67.92c46.08-45.92,80.92-107.06,98.09-172.15c8.81-33.39,12.56-66.39,11.15-98.11
	c-1.49-33.49-8.75-64.76-21.56-92.94c-24.24-53.32-67.25-93.99-127.82-120.88c-69.69-30.94-161.09-42.71-271.66-34.97l-1.16-16.59
	c113.31-7.93,207.36,4.31,279.57,36.36c64.4,28.59,110.23,72.06,136.21,129.2c13.7,30.13,21.45,63.46,23.04,99.08
	c1.49,33.4-2.44,68.08-11.68,103.09c-17.92,67.91-54.3,131.72-102.43,179.69c-35.85,35.73-76.7,60.68-118.13,72.17
	C661.57,765.51,643.65,768,625.92,768z"/>
<path id="PATH4" d="M415.15,734.85c-27.69,0-56.12-3.96-84.46-11.89c-72.24-20.49-124.49-57.08-155.35-108.74
	c-26.53-44.42-36.38-99.94-28.48-160.55c9.14-70.13,41.47-144.23,88.68-203.3c47.9-59.93,103.61-94.78,152.84-95.62l0.29,16.63
	c-44.26,0.76-95.34,33.34-140.13,89.38c-45.37,56.77-76.42,127.87-85.18,195.07c-7.41,56.87,1.67,108.7,26.26,149.87
	c28.61,47.9,77.59,81.97,145.58,101.26c51.37,14.36,102.95,15.01,149.13,1.86c41.19-11.72,75.46-33.74,96.49-62.02
	c25.62-34.45,27.92-73.79,6.31-107.93l14.05-8.9c25.5,40.28,22.94,86.48-7.01,126.76c-23.2,31.19-60.59,55.37-105.28,68.09
	C465.36,731.51,440.57,734.85,415.15,734.85z"/>
<path id="PATH5" d="M518.4,496.3c-26.69-15.53-41.78-34.66-44.85-56.86c-6.79-49,45.13-102.72,95.33-154.67
	c35.23-36.45,68.5-70.88,76.76-98.72l15.94,4.73c-9.42,31.74-44.06,67.59-80.74,105.54c-45.23,46.8-96.5,99.85-90.82,140.83
	c2.37,17.11,14.39,31.75,36.74,44.76L518.4,496.3z"/>
</svg>
