<?xml version="1.0" encoding="utf-8"?>
<!-- Generator: Adobe Illustrator 23.0.3, SVG Export Plug-In . SVG Version: 6.00 Build 0)  -->
<svg version="1.1" id="Layer_1" xmlns="http://www.w3.org/2000/svg" xmlns:xlink="http://www.w3.org/1999/xlink" x="0px" y="0px"
	 viewBox="0 0 1024 768" style="enable-background:new 0 0 1024 768;" xml:space="preserve">
<style type="text/css">
	.st0{fill:none;stroke:#000000;stroke-width:10;stroke-miterlimit:10;}
</style>
<path id="PATH1" d="M505.9,316c-44.7-42.5-73-86.6-84.1-131c-9.6-38.4-5.8-75.9,11-108.4c13.4-26,34.9-47.7,60.5-61.3
	c25.5-13.6,53.6-18.3,79.1-13.3c52.3,10.2,86.1,57.5,92.8,129.7l-16.6,1.5c-3.2-34.7-12.7-62.5-28.2-82.6
	c-13.2-17.2-31-28.4-51.2-32.3c-21.8-4.2-46-0.1-68.1,11.7c-22.6,12-41.6,31.3-53.5,54.3c-14.9,28.9-18.3,62.4-9.7,96.7
	c10.3,41.2,37,82.6,79.4,123L505.9,316z"/>
<path id="PATH2" d="M481.8,688.8c-28-25.3-39.7-44.3-38-61.6c2-20.8,22.8-33.3,46.8-47.8c26.2-15.8,55.9-33.8,72.7-66.4
	c19.8-38.5,17.3-89.7-7.8-156.6l15.6-5.8c61,162.8-19,211.1-71.9,243.1c-21,12.7-37.6,22.7-38.9,35.2c-1.1,11.1,9.9,27.1,32.6,47.7
	L481.8,688.8z"/>
<path id="PATH3" d="M625.9,768c-27.8,0-55.2-6.1-81.9-18.4l6.9-15.1c40,18.4,81.8,21.7,124.2,10c38.7-10.7,77-34.2,110.8-67.9
	c46.1-45.9,80.9-107.1,98.1-172.1c8.8-33.4,12.6-66.4,11.2-98.1c-1.5-33.5-8.8-64.8-21.6-92.9c-24.2-53.3-67.2-94-127.8-120.9
	c-69.7-30.9-161.1-42.7-271.7-35l-1.2-16.6c113.3-7.9,207.4,4.3,279.6,36.4c64.4,28.6,110.2,72.1,136.2,129.2
	c13.7,30.1,21.5,63.5,23,99.1c1.5,33.4-2.4,68.1-11.7,103.1c-17.9,67.9-54.3,131.7-102.4,179.7c-35.8,35.7-76.7,60.7-118.1,72.2
	C661.6,765.5,643.7,768,625.9,768z"/>
<path id="PATH4" d="M415.1,734.8c-27.7,0-56.1-4-84.5-11.9c-72.2-20.5-124.5-57.1-155.4-108.7c-26.5-44.4-36.4-99.9-28.5-160.5
	c9.1-70.1,41.5-144.2,88.7-203.3c47.9-59.9,103.6-94.8,152.8-95.6l0.3,16.6c-44.3,0.8-95.3,33.3-140.1,89.4
	c-45.4,56.8-76.4,127.9-85.2,195.1c-7.4,56.9,1.7,108.7,26.3,149.9c28.6,47.9,77.6,82,145.6,101.3c51.4,14.4,103,15,149.1,1.9
	c41.2-11.7,75.5-33.7,96.5-62c25.6-34.5,27.9-73.8,6.3-107.9l14-8.9c25.5,40.3,22.9,86.5-7,126.8c-23.2,31.2-60.6,55.4-105.3,68.1
	C465.4,731.5,440.6,734.8,415.1,734.8z"/>
<path id="PATH5" d="M518.4,496.3c-26.7-15.5-41.8-34.7-44.9-56.9c-6.8-49,45.1-102.7,95.3-154.7c35.2-36.4,68.5-70.9,76.8-98.7
	l15.9,4.7c-9.4,31.7-44.1,67.6-80.7,105.5c-45.2,46.8-96.5,99.9-90.8,140.8c2.4,17.1,14.4,31.8,36.7,44.8L518.4,496.3z"/>
<circle class="st0" cx="435.3" cy="154.7" r="76.7"/>
<circle class="st0" cx="656.5" cy="163" r="76.7"/>
<circle class="st0" cx="540.9" cy="329.2" r="76.7"/>
<circle class="st0" cx="555.9" cy="510.1" r="76.7"/>
<circle class="st0" cx="512" cy="710.7" r="76.7"/>
</svg>
