<?xml version="1.0" encoding="utf-8"?>
<!-- Generator: Adobe Illustrator 23.0.3, SVG Export Plug-In . SVG Version: 6.00 Build 0)  -->
<svg version="1.1" id="Layer_1" xmlns="http://www.w3.org/2000/svg" xmlns:xlink="http://www.w3.org/1999/xlink" x="0px" y="0px"
	 viewBox="0 0 1024 768" style="enable-background:new 0 0 1024 768;" xml:space="preserve">
<path id="Path1" d="M293.49,433.51l-16.56-0.48c2.16-75.12,35.4-177.6,86.75-267.44c25.24-44.17,53.31-82.35,81.17-110.42
	c31.28-31.51,61.35-49.72,89.39-54.13c23.23-3.65,44.37,2.27,62.83,17.61c19.11,15.88,35.23,42.04,47.9,77.77l-15.61,5.54
	c-22.09-62.29-53.22-90.74-92.54-84.56c-47.72,7.51-107.07,65.97-158.75,156.4C327.99,261.44,295.58,360.95,293.49,433.51z"/>
<path id="Path2" d="M512.33,753.56c-12.54,0-24.98-0.63-37.16-1.91c-56.04-5.89-103.85-25.07-138.27-55.48
	c-41.04-36.27-62.62-87.03-64.13-150.89l16.56-0.39c1.4,59.06,21.09,105.78,58.54,138.87c31.82,28.12,76.44,45.9,129.03,51.42
	c52,5.46,109.08-1.47,156.6-19.03c45.15-16.68,75.53-41.08,81.28-65.28c7.57-31.88-27.49-64.27-98.72-91.18l5.86-15.5
	c41.14,15.55,71.24,33.1,89.46,52.16c12.19,12.75,25.47,33.23,19.51,58.35c-7.13,30.05-40.54,58.11-91.65,76.99
	C600.56,745.98,555.86,753.56,512.33,753.56z"/>
<path id="Path3" d="M542.42,530.75c-27.41-4.52-54.87-8.84-81.42-13.01c-83.29-13.1-161.97-25.47-220.51-41.12
	c-31.72-8.48-55.45-17.35-72.56-27.11c-20.55-11.73-31.84-24.87-34.5-40.17c-3.17-18.24,6.27-37.64,28.86-59.31
	c22.22-21.31,56.95-44.75,106.18-71.66l7.95,14.54c-47.27,25.83-81.81,49.07-102.66,69.08c-18.05,17.31-26.13,32.29-24,44.52
	c3.47,19.98,35.44,38.19,95.02,54.12c57.7,15.43,135.95,27.73,218.8,40.76c26.58,4.18,54.06,8.5,81.54,13.03L542.42,530.75z"/>
<path id="PATH4" d="M775.18,373.89l-8.6-14.16c83.22-50.5,132.58-137.84,105.63-186.9c-8.01-14.58-22.44-25.21-42.9-31.6
	c-23.7-7.39-54.82-8.89-92.49-4.45c-89.7,10.58-211.25,53.54-361.25,127.7l-7.34-14.85c151.71-75,275.07-118.5,366.66-129.3
	c98.89-11.66,137.16,17.77,151.85,44.52C918.3,222.32,867.21,318.04,775.18,373.89z"/>
<path id="PATH5" d="M631.92,694.75c-43.83-30.59-67.1-64.24-69.16-100.01c-3.84-66.4,64.93-127.29,120.18-176.21
	c6.6-5.85,12.84-11.37,18.85-16.8l11.11,12.29c-6.08,5.49-12.34,11.04-18.98,16.92c-52.57,46.55-118,104.49-114.62,162.86
	c1.78,30.87,22.1,59.46,62.11,87.38L631.92,694.75z"/>
<path id="PATH6" d="M797.37,765c-23.72,0-54.46-9.19-92.74-27.63l7.19-14.92c58.28,28.08,96.9,33.49,114.79,16.09
	c20.99-20.41,17.31-74.69-10.94-161.34c-25.55-78.37-66.78-170.43-103.16-251.65c-25.66-57.29-47.82-106.77-61.24-143.83l15.58-5.64
	c13.21,36.49,36.32,88.08,60.78,142.7c36.55,81.59,77.97,174.08,103.79,253.29c31.22,95.78,33.36,152.45,6.73,178.35
	C828.17,760.13,814.63,765,797.37,765z"/>
</svg>
