<?xml version="1.0" encoding="utf-8"?>
<!-- Generator: Adobe Illustrator 23.0.3, SVG Export Plug-In . SVG Version: 6.00 Build 0)  -->
<svg version="1.1" id="Layer_1" xmlns="http://www.w3.org/2000/svg" xmlns:xlink="http://www.w3.org/1999/xlink" x="0px" y="0px"
	 viewBox="0 0 1024 768" style="enable-background:new 0 0 1024 768;" xml:space="preserve">
<style type="text/css">
	.st0{fill:none;stroke:#000000;stroke-width:10;stroke-miterlimit:10;}
</style>
<path id="Path1" d="M293.5,433.5l-16.6-0.5c2.2-75.1,35.4-177.6,86.8-267.4c25.2-44.2,53.3-82.3,81.2-110.4
	C476.1,23.7,506.2,5.4,534.2,1c23.2-3.7,44.4,2.3,62.8,17.6c19.1,15.9,35.2,42,47.9,77.8l-15.6,5.5c-22.1-62.3-53.2-90.7-92.5-84.6
	c-47.7,7.5-107.1,66-158.8,156.4C328,261.4,295.6,361,293.5,433.5z"/>
<path id="Path2" d="M512.3,753.6c-12.5,0-25-0.6-37.2-1.9c-56-5.9-103.9-25.1-138.3-55.5c-41-36.3-62.6-87-64.1-150.9l16.6-0.4
	c1.4,59.1,21.1,105.8,58.5,138.9c31.8,28.1,76.4,45.9,129,51.4c52,5.5,109.1-1.5,156.6-19c45.2-16.7,75.5-41.1,81.3-65.3
	c7.6-31.9-27.5-64.3-98.7-91.2l5.9-15.5c41.1,15.5,71.2,33.1,89.5,52.2c12.2,12.8,25.5,33.2,19.5,58.3c-7.1,30-40.5,58.1-91.7,77
	C600.6,746,555.9,753.6,512.3,753.6z"/>
<path id="Path3" d="M542.4,530.8c-27.4-4.5-54.9-8.8-81.4-13c-83.3-13.1-162-25.5-220.5-41.1c-31.7-8.5-55.4-17.4-72.6-27.1
	c-20.6-11.7-31.8-24.9-34.5-40.2c-3.2-18.2,6.3-37.6,28.9-59.3c22.2-21.3,56.9-44.8,106.2-71.7l8,14.5
	c-47.3,25.8-81.8,49.1-102.7,69.1c-18.1,17.3-26.1,32.3-24,44.5c3.5,20,35.4,38.2,95,54.1c57.7,15.4,135.9,27.7,218.8,40.8
	c26.6,4.2,54.1,8.5,81.5,13L542.4,530.8z"/>
<path id="PATH4" d="M775.2,373.9l-8.6-14.2c83.2-50.5,132.6-137.8,105.6-186.9c-8-14.6-22.4-25.2-42.9-31.6
	c-23.7-7.4-54.8-8.9-92.5-4.4c-89.7,10.6-211.2,53.5-361.2,127.7l-7.3-14.9c151.7-75,275.1-118.5,366.7-129.3
	c98.9-11.7,137.2,17.8,151.8,44.5C918.3,222.3,867.2,318,775.2,373.9z"/>
<path id="PATH5" d="M631.9,694.8c-43.8-30.6-67.1-64.2-69.2-100c-3.8-66.4,64.9-127.3,120.2-176.2c6.6-5.9,12.8-11.4,18.8-16.8
	l11.1,12.3c-6.1,5.5-12.3,11-19,16.9c-52.6,46.5-118,104.5-114.6,162.9c1.8,30.9,22.1,59.5,62.1,87.4L631.9,694.8z"/>
<path id="PATH6" d="M797.4,765c-23.7,0-54.5-9.2-92.7-27.6l7.2-14.9c58.3,28.1,96.9,33.5,114.8,16.1c21-20.4,17.3-74.7-10.9-161.3
	c-25.5-78.4-66.8-170.4-103.2-251.6c-25.7-57.3-47.8-106.8-61.2-143.8l15.6-5.6c13.2,36.5,36.3,88.1,60.8,142.7
	c36.5,81.6,78,174.1,103.8,253.3c31.2,95.8,33.4,152.5,6.7,178.3C828.2,760.1,814.6,765,797.4,765z"/>
<circle class="st0" cx="651.3" cy="144.6" r="76.7"/>
<circle class="st0" cx="321.9" cy="278.4" r="76.7"/>
<circle class="st0" cx="738.4" cy="393.8" r="76.7"/>
<circle class="st0" cx="588" cy="544.2" r="76.7"/>
<circle class="st0" cx="286.9" cy="492.6" r="76.7"/>
<circle class="st0" cx="664.7" cy="702.1" r="76.7"/>
</svg>
