<?xml version="1.0" encoding="utf-8"?>
<!-- Generator: Adobe Illustrator 23.0.3, SVG Export Plug-In . SVG Version: 6.00 Build 0)  -->
<svg version="1.1" id="Layer_1" xmlns="http://www.w3.org/2000/svg" xmlns:xlink="http://www.w3.org/1999/xlink" x="0px" y="0px"
	 viewBox="0 0 1024 768" style="enable-background:new 0 0 1024 768;" xml:space="preserve">
<path id="PATH1" d="M753.81,547.07l-4.85-15.91c47.6-14.51,82.56-34.13,103.93-58.29c18.8-21.26,27.13-46.31,24.79-74.45
	c-2.52-30.15-16.89-63.37-42.73-98.71c-23.67-32.38-56.68-65.71-95.47-96.4c-37.22-29.44-78.51-55.55-119.4-75.48
	c-41.48-20.23-80.7-33.17-113.4-37.43l2.15-16.49c69.31,9.02,161.65,53.61,240.98,116.36c86.55,68.47,139.21,143.83,144.46,206.77
	c2.74,32.84-6.98,62.06-28.9,86.85C841.92,510.39,804.39,531.65,753.81,547.07z"/>
<path id="PATH2" d="M515.79,574.01c-94.98,0-174.27-8.27-236.72-24.74c-40.66-10.73-73.97-24.98-99.01-42.37
	c-24.22-16.82-40.83-36.61-49.39-58.83c-22.33-57.99,11.49-128.17,92.79-192.56l10.32,13.04c-36.63,29.01-63.99,60.14-79.13,90.03
	c-15.32,30.23-18.16,58.33-8.46,83.52c15.4,39.99,62.82,71.48,137.12,91.09c87.42,23.06,209.15,29.68,361.81,19.68l1.09,16.59
	C599.93,572.49,556.42,574.01,515.79,574.01z"/>
<path id="PATH3" d="M286.22,204.37l-14.5-8.14c25.48-45.38,97.88-102.22,184.45-144.79c42.79-21.05,85.09-36.49,122.32-44.65
	c42.55-9.33,77.07-9.04,102.6,0.84c20.86,8.07,35.24,22.36,42.75,42.48c7.82,20.93,7.94,48.21,0.35,81.07l-16.21-3.74
	c6.84-29.62,6.93-53.68,0.28-71.51c-5.86-15.69-16.71-26.41-33.18-32.79c-43.35-16.78-122.44-0.62-211.58,43.22
	C381.05,106.92,309.8,162.38,286.22,204.37z"/>
<path id="PATH4" d="M323.75,508.34l-14.8-7.59c48.78-95.18,119.36-129.68,187.62-163.04c32-15.64,65.1-31.82,95.33-54.12
	c33.67-24.84,60.41-55.03,81.74-92.29l14.43,8.26c-50.14,87.57-118.29,120.88-184.2,153.09C435.02,386.31,370,418.09,323.75,508.34z
	"/>
<path id="PATH5" d="M501.02,768c-33.61,0-67.59-4.06-98.93-11.86c-35.44-8.82-66.69-22.26-90.37-38.85
	c-24.52-17.18-40.61-37.18-47.81-59.46c-7.97-24.66-4.65-50.85,9.88-77.86l14.65,7.88c-16.54,30.75-24.27,75.81,32.83,115.82
	c42.47,29.75,110.58,47.7,179.75,47.7c3.46,0,6.92-0.04,10.38-0.14c78.39-2.05,144.48-26.75,181.46-67.79
	c20.33-31.9,27.36-60.4,21.5-87.11c-11.71-53.41-75.05-93.9-136.29-133.05c-31.33-20.02-63.72-40.73-89.29-63.2l10.98-12.49
	c24.63,21.64,56.47,41.99,87.27,61.68c64.1,40.98,130.39,83.35,143.58,143.5c6.89,31.4-1,64.18-24.1,100.21l-0.36,0.56l-0.44,0.49
	c-21.05,23.59-49.85,42.02-85.59,54.8c-31.99,11.44-69.44,18.02-108.29,19.03C508.24,767.95,504.63,768,501.02,768z"/>
<path id="PATH6" d="M408.28,344.93C258.13,259.24,117.53,141.7,141.9,72.3c8.25-23.5,34.1-38.38,76.82-44.23
	c43.98-6.03,106.86-2.66,186.89,10l-2.6,16.43c-195.54-30.93-237.69,1.33-245.41,23.31c-8.62,24.53,13.21,63.82,61.45,110.62
	c47.39,45.97,117.52,96.42,197.48,142.06L408.28,344.93z"/>
</svg>
