<?xml version="1.0" encoding="utf-8"?>
<!-- Generator: Adobe Illustrator 23.0.3, SVG Export Plug-In . SVG Version: 6.00 Build 0)  -->
<svg version="1.1" id="Layer_1" xmlns="http://www.w3.org/2000/svg" xmlns:xlink="http://www.w3.org/1999/xlink" x="0px" y="0px"
	 viewBox="0 0 1024 768" style="enable-background:new 0 0 1024 768;" xml:space="preserve">
<style type="text/css">
	.st0{fill:none;stroke:#000000;stroke-width:10;stroke-miterlimit:10;}
</style>
<path id="PATH1" d="M753.8,547.1l-4.8-15.9c47.6-14.5,82.6-34.1,103.9-58.3c18.8-21.3,27.1-46.3,24.8-74.4
	c-2.5-30.1-16.9-63.4-42.7-98.7c-23.7-32.4-56.7-65.7-95.5-96.4c-37.2-29.4-78.5-55.6-119.4-75.5c-41.5-20.2-80.7-33.2-113.4-37.4
	l2.1-16.5c69.3,9,161.7,53.6,241,116.4C836.4,258.7,889,334.1,894.3,397c2.7,32.8-7,62.1-28.9,86.9
	C841.9,510.4,804.4,531.7,753.8,547.1z"/>
<path id="PATH2" d="M515.8,574c-95,0-174.3-8.3-236.7-24.7c-40.7-10.7-74-25-99-42.4c-24.2-16.8-40.8-36.6-49.4-58.8
	c-22.3-58,11.5-128.2,92.8-192.6l10.3,13c-36.6,29-64,60.1-79.1,90c-15.3,30.2-18.2,58.3-8.5,83.5c15.4,40,62.8,71.5,137.1,91.1
	c87.4,23.1,209.1,29.7,361.8,19.7l1.1,16.6C599.9,572.5,556.4,574,515.8,574z"/>
<path id="PATH3" d="M286.2,204.4l-14.5-8.1C297.2,150.8,369.6,94,456.2,51.4C499,30.4,541.3,15,578.5,6.8c42.5-9.3,77.1-9,102.6,0.8
	c20.9,8.1,35.2,22.4,42.8,42.5c7.8,20.9,7.9,48.2,0.3,81.1l-16.2-3.7c6.8-29.6,6.9-53.7,0.3-71.5c-5.9-15.7-16.7-26.4-33.2-32.8
	c-43.3-16.8-122.4-0.6-211.6,43.2C381,106.9,309.8,162.4,286.2,204.4z"/>
<path id="PATH4" d="M323.8,508.3l-14.8-7.6c48.8-95.2,119.4-129.7,187.6-163c32-15.6,65.1-31.8,95.3-54.1
	c33.7-24.8,60.4-55,81.7-92.3l14.4,8.3c-50.1,87.6-118.3,120.9-184.2,153.1C435,386.3,370,418.1,323.8,508.3z"/>
<path id="PATH5" d="M501,768c-33.6,0-67.6-4.1-98.9-11.9c-35.4-8.8-66.7-22.3-90.4-38.8c-24.5-17.2-40.6-37.2-47.8-59.5
	c-8-24.7-4.6-50.8,9.9-77.9l14.6,7.9c-16.5,30.8-24.3,75.8,32.8,115.8c42.5,29.8,110.6,47.7,179.8,47.7c3.5,0,6.9,0,10.4-0.1
	c78.4-2,144.5-26.8,181.5-67.8c20.3-31.9,27.4-60.4,21.5-87.1c-11.7-53.4-75-93.9-136.3-133c-31.3-20-63.7-40.7-89.3-63.2l11-12.5
	c24.6,21.6,56.5,42,87.3,61.7c64.1,41,130.4,83.3,143.6,143.5c6.9,31.4-1,64.2-24.1,100.2l-0.4,0.6l-0.4,0.5
	c-21,23.6-49.8,42-85.6,54.8c-32,11.4-69.4,18-108.3,19C508.2,768,504.6,768,501,768z"/>
<path id="PATH6" d="M408.3,344.9C258.1,259.2,117.5,141.7,141.9,72.3c8.2-23.5,34.1-38.4,76.8-44.2c44-6,106.9-2.7,186.9,10
	L403,54.5c-195.5-30.9-237.7,1.3-245.4,23.3c-8.6,24.5,13.2,63.8,61.4,110.6c47.4,46,117.5,96.4,197.5,142.1L408.3,344.9z"/>
<circle class="st0" cx="452.3" cy="73.9" r="76.7"/>
<circle class="st0" cx="700.7" cy="168" r="76.7"/>
<circle class="st0" cx="259.7" cy="239.3" r="76.7"/>
<circle class="st0" cx="452.3" cy="371.1" r="76.7"/>
<circle class="st0" cx="298.9" cy="547.1" r="76.7"/>
<circle class="st0" cx="700.7" cy="557.1" r="76.7"/>
</svg>
