<?xml version="1.0" encoding="utf-8"?>
<!-- Generator: Adobe Illustrator 23.0.3, SVG Export Plug-In . SVG Version: 6.00 Build 0)  -->
<svg version="1.1" id="Layer_1" xmlns="http://www.w3.org/2000/svg" xmlns:xlink="http://www.w3.org/1999/xlink" x="0px" y="0px"
	 viewBox="0 0 1024 768" style="enable-background:new 0 0 1024 768;" xml:space="preserve">
<style type="text/css">
	.st0{fill:none;stroke:#000000;stroke-width:10;stroke-miterlimit:10;}
</style>
<path id="PATH1" d="M677,707c-22.3,0-48.8-6.8-79.3-25.8l8.8-14.1c23.3,14.5,45.7,22.3,66.5,23.2c19,0.8,36.7-4.1,52.7-14.7
	c59.4-39.2,89.6-152.6,71.8-269.8c-9.6-63.1-32.2-120.8-65.2-166.7c-37.8-52.6-87.4-88-147.5-105.3l4.6-16
	c63.7,18.4,116.3,55.9,156.4,111.6c34.5,48.1,58.1,108.2,68.1,173.9c9,58.7,6.4,119.4-7.2,170.8c-14.3,53.9-39.1,93.8-71.8,115.4
	C720.6,698.9,701.3,707,677,707z"/>
<path id="PATH2" d="M549.8,633.4c-31.2-54.5-78.4-136.8-126.5-200c-53.2-70-98.4-104.9-134.1-103.5c-25.8,1-48.4,21.5-67.2,61
	l-15-7.2c21.7-45.5,49.2-69.2,81.6-70.5c42-1.6,90.5,34.4,148,110.1c48.7,64.1,96.2,147,127.7,201.8L549.8,633.4z"/>
<path id="PATH3" d="M426.4,768c-6.7,0-13.5-0.3-20.4-0.9c-44.7-4-90.6-21-129.3-48c-39.8-27.8-70.1-64.4-87.5-105.8
	c-19.8-47-22.6-97.7-8.1-150.5l16,4.4c-13.4,49.1-10.9,96.1,7.4,139.7c16.2,38.5,44.5,72.6,81.7,98.6
	c36.4,25.4,79.5,41.4,121.3,45.1c43.6,3.9,82.6-5.5,112.8-27c67.5-48.1,83-150.6,43.8-288.6l16-4.5c21.8,76.6,27.3,142.7,16.6,196.4
	C587,675.3,564.6,712.4,530,737C501.3,757.4,465.8,768,426.4,768z"/>
<path id="PATH4" d="M554.4,360c-23.3-90.1-26.2-166.6-8.5-227.4c15.2-52.7,45.8-92.2,88.4-114c35.4-18.2,77.7-23.2,119-14
	c40.8,9,77.5,30.9,103.3,61.7c28,33.4,41.5,75.1,39,120.5c-2.8,51.9-25.9,106.5-68.5,162.3l-13.2-10.1
	c40.6-53.1,62.5-104.7,65.2-153.1c2.2-41.1-9.9-78.7-35.2-108.9c-23.4-28-56.8-47.9-94.1-56.2c-37.6-8.3-75.9-3.8-107.9,12.6
	c-38.4,19.7-66.1,55.7-80,103.9c-16.8,58-13.9,131.5,8.7,218.6L554.4,360z"/>
<path id="PATH5" d="M458.6,418.7l-6.1-15.5c49.1-19.5,99-14.7,147.2-10c55.5,5.4,112.8,11,171.9-19.4l7.6,14.8
	c-63.4,32.6-123.2,26.8-181.1,21.2C549.7,405.1,504,400.7,458.6,418.7z"/>
<path id="PATH6" d="M292.2,457.2c-24.4,0-46.4-2.1-65.9-6.5c-38.4-8.5-66.2-25.1-82.6-49.2c-23.9-35.3-20.5-84.1,9.5-133.9
	c29.1-48.4,80.8-93,141.8-122.5c70.8-34.2,150.9-47.6,231.9-38.9l-1.8,16.5c-77.8-8.4-154.9,4.5-222.9,37.3
	c-58.2,28.1-107.4,70.4-134.8,116c-12.9,21.5-20.7,43.4-22.5,63.2c-1.8,20.1,2.4,37.9,12.5,52.8c17.5,25.9,69.8,65.5,222.7,40.5
	l2.7,16.4C349.8,454.5,319.5,457.2,292.2,457.2z"/>
<circle class="st0" cx="558.1" cy="126.9" r="76.7"/>
<circle class="st0" cx="797.4" cy="367" r="76.7"/>
<circle class="st0" cx="564.2" cy="396.3" r="76.7"/>
<circle class="st0" cx="207" cy="430.4" r="76.7"/>
<circle class="st0" cx="404.1" cy="430.4" r="76.7"/>
<circle class="st0" cx="571.4" cy="647" r="76.7"/>
</svg>
