<?xml version="1.0" encoding="utf-8"?>
<!-- Generator: Adobe Illustrator 23.0.3, SVG Export Plug-In . SVG Version: 6.00 Build 0)  -->
<svg version="1.1" id="Layer_1" xmlns="http://www.w3.org/2000/svg" xmlns:xlink="http://www.w3.org/1999/xlink" x="0px" y="0px"
	 viewBox="0 0 1024 768" style="enable-background:new 0 0 1024 768;" xml:space="preserve">
<path id="PATH1" d="M677.03,706.97c-22.3,0-48.77-6.85-79.31-25.82l8.78-14.13c23.33,14.5,45.71,22.31,66.51,23.21
	c18.95,0.83,36.69-4.1,52.68-14.65c59.42-39.19,89.6-152.64,71.75-269.76c-9.62-63.12-32.15-120.77-65.16-166.73
	c-37.77-52.58-87.39-88.03-147.45-105.34l4.61-15.98c63.74,18.38,116.35,55.93,156.35,111.62c34.54,48.08,58.09,108.22,68.1,173.92
	c8.95,58.74,6.38,119.38-7.23,170.75c-14.29,53.93-39.12,93.84-71.81,115.4C720.58,698.88,701.26,706.97,677.03,706.97z"/>
<path id="PATH2" d="M549.82,633.38c-31.22-54.48-78.4-136.8-126.48-200.05c-53.24-70.03-98.37-104.85-134.1-103.52
	c-25.75,0.97-48.37,21.49-67.23,61L207,383.65c21.74-45.53,49.19-69.24,81.61-70.46c42.05-1.58,90.45,34.43,147.96,110.07
	c48.74,64.11,96.24,146.99,127.67,201.84L549.82,633.38z"/>
<path id="PATH3" d="M426.42,768c-6.68,0-13.48-0.3-20.37-0.91c-44.67-3.96-90.6-21.01-129.33-48.03
	c-39.82-27.78-70.09-64.36-87.54-105.78c-19.82-47.05-22.55-97.68-8.12-150.5l16.04,4.38c-13.43,49.13-10.94,96.12,7.4,139.66
	c16.23,38.53,44.49,72.62,81.73,98.6c36.38,25.38,79.46,41.4,121.28,45.11c43.56,3.86,82.56-5.49,112.8-27.05
	c67.49-48.11,83.05-150.59,43.83-288.57l16-4.55c21.77,76.59,27.35,142.67,16.6,196.39c-9.71,48.51-32.18,85.62-66.78,110.28
	C501.31,757.44,465.83,768,426.42,768z"/>
<path id="PATH4" d="M554.43,359.96c-23.28-90.05-26.15-166.57-8.54-227.44c15.25-52.71,45.83-92.15,88.42-114.03
	C669.7,0.31,711.98-4.67,753.36,4.46c40.84,9.01,77.51,30.93,103.26,61.72c27.97,33.44,41.45,75.09,39,120.45
	c-2.81,51.85-25.87,106.47-68.55,162.32l-13.22-10.1c40.61-53.15,62.54-104.66,65.16-153.12c2.22-41.08-9.93-78.73-35.15-108.88
	c-23.4-27.99-56.82-47.93-94.08-56.15c-37.62-8.3-75.92-3.84-107.86,12.58c-38.42,19.74-66.1,55.66-80.05,103.86
	c-16.77,57.96-13.86,131.53,8.66,218.65L554.43,359.96z"/>
<path id="PATH5" d="M458.64,418.74l-6.14-15.46c49.13-19.51,98.99-14.67,147.2-9.98c55.46,5.39,112.8,10.96,171.89-19.42l7.61,14.79
	c-63.44,32.62-123.25,26.81-181.1,21.19C549.71,405.15,504.02,400.72,458.64,418.74z"/>
<path id="PATH6" d="M292.19,457.23c-24.38,0-46.38-2.15-65.87-6.46c-38.45-8.5-66.25-25.06-82.63-49.22
	c-23.93-35.29-20.48-84.1,9.47-133.92c29.06-48.35,80.75-92.99,141.82-122.46c70.76-34.16,150.94-47.6,231.87-38.87l-1.78,16.54
	c-77.84-8.4-154.9,4.51-222.86,37.31c-58.22,28.11-107.35,70.41-134.79,116.05c-12.94,21.53-20.71,43.39-22.47,63.21
	c-1.79,20.15,2.42,37.92,12.52,52.8c17.53,25.86,69.78,65.5,222.73,40.49l2.68,16.41C349.8,454.52,319.5,457.23,292.19,457.23z"/>
</svg>
