<?xml version="1.0" encoding="utf-8"?>
<!-- Generator: Adobe Illustrator 23.0.3, SVG Export Plug-In . SVG Version: 6.00 Build 0)  -->
<svg version="1.1" id="Layer_1" xmlns="http://www.w3.org/2000/svg" xmlns:xlink="http://www.w3.org/1999/xlink" x="0px" y="0px"
	 viewBox="0 0 1024 768" style="enable-background:new 0 0 1024 768;" xml:space="preserve">
<style type="text/css">
	.st0{fill:none;stroke:#000000;stroke-width:10;stroke-miterlimit:10;}
</style>
<path id="PATH1" d="M281.8,228.4l-11.5-12C432,60.9,509.3-3.5,568.6,0.2c34,2.1,59.9,25.8,88.2,60.8L644,71.4
	c-30.7-37.9-52.1-53.2-76.4-54.7C514.8,13.4,436.8,79.4,281.8,228.4z"/>
<path id="PATH2" d="M826.1,588.1l-11.3-12.2c29-26.9,47.7-51.6,57.2-75.6c9.2-23,10.4-45.8,3.9-71.9c-13-52.1-56.7-113-117.1-197.2
	c-17.2-24-36.7-51.2-57-80.3l13.6-9.5c20.2,29,38.8,54.9,56.8,80.1c61.5,85.8,105.9,147.7,119.8,202.9
	C906.6,482.7,886.9,531.6,826.1,588.1z"/>
<path id="PATH3" d="M419.2,756c-20,0-37.1-3.8-51.8-11.2c-33.7-17.1-54.7-53.5-64.2-111.4l16.4-2.7c8.6,52.2,26.7,84.7,55.4,99.3
	c67.2,34.1,191.7-28.8,349.4-108.5c7.2-3.7,14.5-7.3,21.9-11l7.5,14.8c-7.4,3.7-14.7,7.4-21.9,11c-81.8,41.4-152.5,77.1-213.2,98.7
	C479.1,749,446.5,756,419.2,756z"/>
<path id="PATH4" d="M279,543.2c-32.1-140.1-47.7-221.3-53.8-280.2c-6.8-65.7-1.4-106,17.6-130.6c21.6-28.2,59.2-35,112.8-36.9
	l0.6,16.6c-65.9,2.4-87.2,13.4-100.3,30.5c-16.1,21-20.5,57.7-14.2,118.8c6,58.2,21.5,138.8,53.4,278.2L279,543.2z"/>
<path id="PATH5" d="M867.8,308.6l-16.2-3.7c13.1-57.6,1-104.6-36.1-139.8C789.1,140.1,736,108,633.1,97.4
	c-71.7-7.4-138.6-0.8-173,8.9l-4.5-16c36-10.2,105.3-17.1,179.2-9.5c59.4,6.1,140.9,23.6,192.1,72.2
	C868.5,192.6,882.3,244.9,867.8,308.6z"/>
<path id="PATH6" d="M671.5,766c-20.8,0-45.5-5.2-75.6-15.6l5.4-15.7c50.1,17.4,82.9,19.3,106.2,6.3c40.3-22.5,55.7-91.8,81.2-206.7
	c9.4-42.3,20-90.2,33.8-144.3l16.1,4.1c-13.7,53.8-24.3,101.6-33.7,143.8c-26.5,119.4-42.5,191.4-89.2,217.5
	C703.1,762.5,688.7,766,671.5,766z"/>
<path id="PATH7" d="M518.2,691.7c-118.5-42.9-201.4-79.5-260.7-115.1c-71.8-43.1-112.2-86.8-123.5-133.6
	c-12.2-50.2,8.5-103.3,63.2-162.1l12.1,11.3c-50.6,54.5-70,102.5-59.2,147c10.2,42.3,48.2,82.6,115.9,123.3
	c58.4,35.1,140.4,71.2,257.8,113.8L518.2,691.7z"/>
<circle class="st0" cx="243.4" cy="256.4" r="76.7"/>
<circle class="st0" cx="411.7" cy="103" r="76.7"/>
<circle class="st0" cx="676.9" cy="103" r="76.7"/>
<circle class="st0" cx="847.1" cy="351.9" r="76.7"/>
<circle class="st0" cx="778.5" cy="601" r="76.7"/>
<circle class="st0" cx="303.1" cy="588.1" r="76.7"/>
<circle class="st0" cx="569.6" cy="700.3" r="76.7"/>
</svg>
