<?xml version="1.0" encoding="utf-8"?>
<!-- Generator: Adobe Illustrator 23.0.3, SVG Export Plug-In . SVG Version: 6.00 Build 0)  -->
<svg version="1.1" id="Layer_1" xmlns="http://www.w3.org/2000/svg" xmlns:xlink="http://www.w3.org/1999/xlink" x="0px" y="0px"
	 viewBox="0 0 1024 768" style="enable-background:new 0 0 1024 768;" xml:space="preserve">
<path id="PATH1" d="M281.75,228.41l-11.5-11.96C432.05,60.9,509.26-3.53,568.61,0.15c34.01,2.11,59.87,25.84,88.24,60.83
	l-12.89,10.45c-30.7-37.87-52.12-53.22-76.38-54.72C514.81,13.42,436.76,79.37,281.75,228.41z"/>
<path id="PATH2" d="M826.1,588.08l-11.29-12.16c28.98-26.92,47.71-51.64,57.25-75.6c9.16-22.99,10.39-45.84,3.86-71.9
	c-13.05-52.08-56.71-112.97-117.14-197.23c-17.21-24-36.72-51.2-56.96-80.26l13.61-9.48c20.18,28.96,38.81,54.95,56.83,80.08
	c61.5,85.76,105.93,147.72,119.75,202.87C906.62,482.66,886.91,531.61,826.1,588.08z"/>
<path id="PATH3" d="M419.2,755.97c-20,0-37.09-3.76-51.82-11.23c-33.73-17.12-54.74-53.55-64.25-111.36l16.37-2.69
	c8.59,52.23,26.7,84.69,55.39,99.26c67.22,34.13,191.73-28.83,349.37-108.55c7.22-3.65,14.51-7.34,21.87-11.05l7.47,14.81
	c-7.36,3.72-14.65,7.4-21.86,11.05c-81.81,41.37-152.45,77.1-213.16,98.73C479.15,748.98,446.48,755.97,419.2,755.97z"/>
<path id="PATH4" d="M278.98,543.23c-32.1-140.09-47.67-221.28-53.77-280.23c-6.79-65.69-1.38-105.98,17.55-130.65
	c21.61-28.15,59.19-35.01,112.83-36.95l0.6,16.58c-65.85,2.38-87.19,13.43-100.27,30.47c-16.15,21.04-20.53,57.69-14.21,118.84
	c6.02,58.23,21.5,138.84,53.44,278.23L278.98,543.23z"/>
<path id="PATH5" d="M867.77,308.59l-16.17-3.68c13.1-57.59,0.95-104.61-36.11-139.75c-26.41-25.05-79.5-57.13-182.44-67.74
	c-71.73-7.4-138.57-0.85-173.01,8.93l-4.53-15.96c35.96-10.21,105.33-17.09,179.24-9.47c59.38,6.12,140.92,23.62,192.15,72.21
	C868.51,192.58,882.26,244.89,867.77,308.59z"/>
<path id="PATH6" d="M671.54,766c-20.76,0-45.48-5.19-75.61-15.63l5.43-15.68c50.14,17.37,82.9,19.3,106.23,6.26
	c40.3-22.52,55.67-91.83,81.15-206.66c9.38-42.3,20.02-90.25,33.8-144.28l16.07,4.1c-13.72,53.79-24.32,101.6-33.68,143.78
	c-26.48,119.36-42.46,191.4-89.25,217.54C703.1,762.47,688.66,766,671.54,766z"/>
<path id="PATH7" d="M518.19,691.67c-118.51-42.93-201.36-79.51-260.73-115.13c-71.79-43.07-112.19-86.78-123.52-133.62
	c-12.15-50.24,8.52-103.28,63.21-162.15l12.15,11.29c-50.61,54.47-69.98,102.54-59.24,146.96c10.23,42.29,48.15,82.62,115.93,123.29
	c58.43,35.06,140.36,71.21,257.84,113.76L518.19,691.67z"/>
</svg>
