<?xml version="1.0" encoding="utf-8"?>
<!-- Generator: Adobe Illustrator 23.0.3, SVG Export Plug-In . SVG Version: 6.00 Build 0)  -->
<svg version="1.1" id="Layer_1" xmlns="http://www.w3.org/2000/svg" xmlns:xlink="http://www.w3.org/1999/xlink" x="0px" y="0px"
	 viewBox="0 0 1024 768" style="enable-background:new 0 0 1024 768;" xml:space="preserve">
<style type="text/css">
	.st0{fill:none;stroke:#000000;stroke-width:10;stroke-miterlimit:10;}
</style>
<path id="PATH1" d="M733.1,176.9c-4.8-30.8-12.8-56.1-23.9-75.3c-10-17.1-22.7-29.8-37.9-37.7c-62.8-32.6-163.5,17.4-244.4,57.6
	c-36.7,18.2-71.4,35.5-98.2,42.8l-4.4-16c25.2-6.9,59.2-23.8,95.2-41.7c41.7-20.7,89-44.2,133.8-57.9c52.9-16.1,94-16,125.6,0.4
	c18.1,9.4,33.1,24.2,44.7,44.1c12.2,20.9,20.9,48.2,26,81.1L733.1,176.9z"/>
<path id="PATH2" d="M642.7,718.3l-3.6-16.2c69-15.3,113.7-40.5,136.6-76.9c34.6-55,16.6-132.1-2.4-213.8
	c-10.1-43.4-20.5-88.2-24.2-133l16.6-1.4c3.5,43.6,13.8,87.8,23.8,130.6c19.8,85.2,38.5,165.6,0.2,226.5
	C764.4,674.3,716.3,701.9,642.7,718.3z"/>
<path id="PATH3" d="M558.1,714.1c-54.4-13.9-80.2-30.6-81.4-52.3c-1.1-20.8,20.2-41,69.2-65.4c39-19.5,90.1-38.7,135.2-55.6
	c24.4-9.2,47.4-17.8,66.4-25.7l6.4,15.4c-19.3,8-42.4,16.7-66.9,25.9c-44.7,16.8-95.3,35.8-133.6,54.9c-53.1,26.5-60.4,42.5-60,49.6
	c1,17.8,48.5,31.9,68.9,37.1L558.1,714.1z"/>
<path id="PATH4" d="M827.8,497.2l-8.9-14c43.4-27.5,64.6-55.3,64.8-85c0.4-66.5-106.5-136.2-200.9-197.7
	c-51.9-33.8-100.9-65.8-132.4-96.4L562,92.1c30.3,29.5,78.7,61,129.8,94.4c102.7,66.9,209,136.2,208.5,211.8
	c-0.1,17.5-6.1,34.5-17.8,50.7C870.6,465.5,852.2,481.8,827.8,497.2z"/>
<path id="PATH5" d="M279.9,328.6c-2-86.8,0.8-149.6,8.8-197.6c10.6-63.2,30.7-102.6,61.4-120.4c16.8-9.7,36.7-12.8,59.2-9.1
	c22.9,3.7,49.3,14.6,78.5,32.3L479.2,48c-52-31.6-92.7-39.3-120.8-23.1c-26.1,15.1-43.5,50.7-53.3,108.7
	c-7.9,46.9-10.6,108.7-8.6,194.5L279.9,328.6z"/>
<path id="PATH6" d="M539.5,768c-18.7,0-40-5.9-62.8-17.8c-47-24.3-94-69.9-128.9-125.1c-28.2-44.6-61.5-116-59.8-203.1l16.6,0.3
	c-1.6,83,30.2,151.2,57.2,193.9c33.4,52.7,78,96.2,122.5,119.2c36,18.6,66.5,21,85.9,6.7c10.9-8,18.3-21.4,21.9-39.8
	c4.2-21.1,3.4-48.3-2.5-80.8l16.4-3c8.6,47.4,11,109.6-26,136.9C568.8,763.9,555.1,768,539.5,768z"/>
<path id="PATH7" d="M550.1,538.4c-24.8-46.3-121-92.6-214.1-137.5c-52.7-25.4-102.5-49.4-140.1-73.4c-44.9-28.8-65.1-53.4-63.4-77.6
	c2-29.6,35.9-54.1,106.7-76.9l5.1,15.8c-42.4,13.7-93.4,35.6-95.2,62.2c-1.2,17,17.6,38,55.8,62.5c36.8,23.6,86.1,47.3,138.4,72.5
	c95.5,46,194.2,93.6,221.6,144.6L550.1,538.4z"/>
<circle class="st0" cx="512" cy="76.7" r="76.7"/>
<circle class="st0" cx="749.5" cy="226.6" r="76.7"/>
<circle class="st0" cx="790.4" cy="508" r="76.7"/>
<circle class="st0" cx="292.8" cy="176.9" r="76.7"/>
<circle class="st0" cx="288" cy="375.3" r="76.7"/>
<circle class="st0" cx="580.8" cy="574.3" r="76.7"/>
<ellipse class="st0" cx="596.1" cy="714.1" rx="76.7" ry="49.5"/>
</svg>
