<?xml version="1.0" encoding="utf-8"?>
<!-- Generator: Adobe Illustrator 23.0.3, SVG Export Plug-In . SVG Version: 6.00 Build 0)  -->
<svg version="1.1" id="Layer_1" xmlns="http://www.w3.org/2000/svg" xmlns:xlink="http://www.w3.org/1999/xlink" x="0px" y="0px"
	 viewBox="0 0 1024 768" style="enable-background:new 0 0 1024 768;" xml:space="preserve">
<path id="PATH1" d="M733.09,176.89c-4.75-30.8-12.8-56.12-23.93-75.26c-9.96-17.14-22.73-29.84-37.94-37.73
	c-62.81-32.57-163.47,17.43-244.35,57.61c-36.73,18.24-71.42,35.48-98.18,42.85l-4.42-16.03c25.22-6.94,59.21-23.83,95.2-41.71
	c41.72-20.72,89-44.21,133.79-57.89c52.86-16.14,93.95-16.01,125.61,0.41c18.06,9.37,33.09,24.22,44.67,44.13
	c12.17,20.94,20.91,48.22,25.98,81.08L733.09,176.89z"/>
<path id="PATH2" d="M642.74,718.28l-3.61-16.23c69-15.35,113.67-40.51,136.57-76.9c34.59-54.97,16.64-132.13-2.37-213.83
	c-10.09-43.36-20.52-88.2-24.17-133.03l16.58-1.35c3.55,43.6,13.84,87.83,23.79,130.61c19.81,85.17,38.53,165.61,0.24,226.45
	C764.39,674.35,716.3,701.91,642.74,718.28z"/>
<path id="PATH3" d="M558.12,714.14c-54.36-13.94-80.23-30.57-81.41-52.31c-1.13-20.78,20.22-40.95,69.24-65.39
	c39.02-19.46,90.1-38.66,135.17-55.6c24.37-9.16,47.38-17.81,66.39-25.69l6.37,15.36c-19.27,7.98-42.41,16.68-66.9,25.89
	c-44.69,16.8-95.34,35.84-133.6,54.92c-53.15,26.51-60.44,42.46-60.05,49.61c0.97,17.78,48.53,31.87,68.94,37.11L558.12,714.14z"/>
<path id="PATH4" d="M827.81,497.21l-8.9-14.05c43.38-27.47,64.57-55.26,64.76-84.97c0.44-66.49-106.55-136.22-200.94-197.74
	c-51.9-33.83-100.92-65.77-132.38-96.43l11.61-11.91c30.3,29.52,78.65,61.04,129.85,94.41C794.55,253.47,900.8,322.72,900.3,398.29
	c-0.11,17.45-6.09,34.5-17.75,50.67C870.59,465.55,852.17,481.78,827.81,497.21z"/>
<path id="PATH5" d="M279.94,328.56c-2.04-86.81,0.75-149.6,8.79-197.61c10.59-63.24,30.66-102.62,61.35-120.37
	c16.77-9.7,36.7-12.75,59.25-9.07c22.88,3.74,49.28,14.61,78.47,32.32l-8.63,14.22C427.13,16.48,386.5,8.72,358.41,24.98
	c-26.13,15.12-43.55,50.68-53.27,108.72c-7.86,46.95-10.59,108.74-8.57,194.47L279.94,328.56z"/>
<path id="PATH6" d="M539.52,768c-18.66,0-39.98-5.94-62.84-17.77c-47.01-24.31-93.99-69.89-128.89-125.06
	c-28.22-44.6-61.5-116.05-59.77-203.14l16.63,0.33c-1.65,82.96,30.2,151.24,57.2,193.92c33.37,52.74,78.01,96.18,122.48,119.18
	c36.02,18.63,66.51,21.01,85.87,6.72c10.9-8.05,18.28-21.42,21.94-39.75c4.22-21.13,3.38-48.33-2.48-80.84l16.37-2.95
	c8.56,47.41,11,109.64-25.95,136.92C568.81,763.86,555.08,768,539.52,768z"/>
<path id="PATH7" d="M550.11,538.37c-24.78-46.27-121.05-92.63-214.15-137.47c-52.69-25.38-102.46-49.35-140.11-73.45
	c-44.93-28.77-65.09-53.43-63.43-77.61c2.03-29.64,35.94-54.09,106.72-76.93l5.11,15.83c-42.44,13.7-93.41,35.61-95.23,62.24
	c-1.16,17,17.61,38.01,55.81,62.47c36.8,23.56,86.14,47.32,138.36,72.48c95.5,46,194.25,93.56,221.59,144.6L550.11,538.37z"/>
</svg>
