<?xml version="1.0" encoding="utf-8"?>
<!-- Generator: Adobe Illustrator 23.0.3, SVG Export Plug-In . SVG Version: 6.00 Build 0)  -->
<svg version="1.1" id="Layer_1" xmlns="http://www.w3.org/2000/svg" xmlns:xlink="http://www.w3.org/1999/xlink" x="0px" y="0px"
	 viewBox="0 0 1024 768" style="enable-background:new 0 0 1024 768;" xml:space="preserve">
<path id="path1" d="M664.4,669.4c-2.4-3.1-4.5-5.8-7.1-9c6.8-5.5,13.1-11.3,20-16.2c23.4-16.6,39.7-39,52.9-63.9
	c49.4-92.9,84.5-191,103.8-294.5c7.7-41.5,11.6-83.4,6.1-125.6c-5.4-41.8-21.4-76.8-60.3-98c-9-4.9-17.3-11-26.1-16.1
	c-25.5-14.6-51.7-27.7-81.1-32.4c-9.1-1.5-18.6-1.5-27.7-0.6c-15.2,1.4-23.2,7.7-36.1,25.5c-3.1-1.6-6.3-3.2-9.9-5
	c8.2-17,21.1-27.4,38.9-31.5c19.9-4.6,39.4-1.3,58.4,4.7c41.2,13.1,78,34.9,112.1,61c25,19,35.7,47,41.4,76.8
	c8.4,44.3,5.4,88.5-2.1,132.5C829.4,384.1,793.5,485,743.4,581C722.2,621.8,703.6,642.4,664.4,669.4z"/>
<path id="path2" d="M612.5,691.9c2.2,3.6,4.1,6.5,6.7,10.7c-15.2,8.4-29.7,17.1-44.8,24.5c-27.5,13.6-55.9,23.9-87.2,23.7
	c-22-0.2-41.4-6.9-58.3-21.2c-11.4-9.6-17-21.6-17.6-36.4c-1.1-25.6,7.5-48.7,17.7-71.9c2.3,0.9,4.1,1.4,5.7,2.2
	c1.6,0.8,3.2,1.7,3.9,2.1c-4.7,15.8-10.1,30.9-13.6,46.4c-1.9,8.6-1.6,18-0.9,26.9c1.2,14,11.5,21.8,22.3,28.5
	c23.9,14.8,49.6,13.4,75.5,6.8c29.3-7.4,55.9-21.3,81.6-36.8C606.2,695.8,609,694,612.5,691.9z"/>
<path id="path3" d="M466.5,580.9c-3-2.3-5.8-4.4-9.7-7.3c10.4-12.1,20-24.3,30.8-35.4c59.4-61.3,111-128.4,153.2-202.6
	c18.2-32,33.9-65.2,40.5-101.8c1.7-9.3,2.5-19,2.2-28.4c-1.2-39.2-27.5-61.4-66.5-56.5c-6.4,0.8-12.8,2.1-19.7,3.2
	c-0.9-3.6-1.8-7.1-2.9-11.4c29-6.1,57-9.5,80.4,13.3c16.4,16,21.5,36.6,20.8,58.7c-0.9,32.7-12,62.8-25.6,92
	c-28,60-65.3,114.2-106.8,165.4c-22.9,28.1-47.9,54.4-71.9,81.7C482.9,561.2,475,570.9,466.5,580.9z"/>
<path id="path4" d="M426.3,743.7c1.6,3.4,3.1,6.7,4.9,10.7c-25.8,10.6-51.6,17.5-79,11.1C303,754,262.6,728,229.3,690.4
	c-15.1-17.2-19.2-38.4-21.5-60c-5.6-52-2.4-103.5,10.8-154.3c7.8-30,21.9-56.7,41.4-80.6c70.2-86.3,151.9-159.4,247.3-217
	c11.9-7.2,24.5-13.2,37.4-20.1c2,3.9,3.6,7.1,5.5,10.9c-5.2,2.6-9.9,4.9-14.5,7.4c-46.3,24-88.3,54.2-128.3,87.4
	c-47.7,39.6-91.6,83-131.6,130.4c-31.1,36.8-47.9,79.1-54.1,126.2c-5.3,39.8-6.3,79.7-0.3,119.6c2.9,19,9.6,35.7,23.3,49.5
	c30.6,30.8,65.9,53.5,108.5,63.7c20.9,5,41.1,1.4,60.9-5.3C418,746.9,421.9,745.3,426.3,743.7z"/>
<path id="path5" d="M472,727.7c-3-2.7-5.6-5.2-8.5-7.8c3.7-4.3,7-7.9,10-11.7c21.6-27.4,20.2-58.3-4.5-82.8
	c-13.2-13.1-27.7-24.8-41.4-37.4c-17.4-16-31.6-34.3-36.5-58c-6.6-31.7,3.6-58.5,26.4-80.2c15.7-15,34.8-14.3,54.1-6.5
	c18.4,7.5,31.2,21.4,42.3,36.7c-1.1,2.9-2.1,5.5-3.1,8.1c-0.2-0.6-0.7-1.7-0.7-1.7c-7.2,2.6-9-3.8-12.1-7.5
	c-8.9-10.7-18.9-19.7-32.1-24.9c-20.7-8.2-38-3-50.2,15.7c-21.8,33.4-19.1,67.1,9,98c9.8,10.8,21.4,20,32.1,29.9
	c8,7.4,16.6,14.3,23.8,22.5c27.3,31.1,26.8,67.8-0.7,99.5C477.4,722.3,474.7,724.9,472,727.7z"/>
<path id="path6" d="M531,527.8c3.2-1.8,6.1-3.5,9.7-5.6c1.2,1.8,2.4,3.3,3.3,5.1c8.8,16.1,18.3,31.9,26.1,48.4
	c19.9,41.9,49.8,76.1,82.5,108c10.3,10,21.7,19,32.8,28.1c39.8,32.9,119.3,19.6,140.1-45.2c6-18.7,9.5-38,6-57.7
	c-2.8-15.8-11.9-28.6-21.6-40.8c-6.5-8.2-13.6-15.8-21.1-24.4c2.6-2.4,5.3-4.8,8.5-7.8c18.9,19.6,38.9,39.1,44.7,66.2
	c7.6,35.5,0.4,69.7-21.6,99.1c-21.2,28.4-51.2,39.4-85.9,39.5c-24,0.1-44.5-8.9-62.4-24c-44.7-37.5-84.3-79.3-110.7-132.1
	C551.9,565.7,541.4,547.2,531,527.8z"/>
<path id="path7" d="M746.8,490c-3.2,4-5.5,6.9-7.5,9.4c-36.2-26.2-72.1-52.2-108.2-78.4c1.9-2.8,3.9-5.8,6.8-9.9
	C674.3,437.5,710.3,463.5,746.8,490z"/>
<path id="path8" d="M579.6,387.2c-12.2-8.1-23.9-15.6-35.4-23.5c-6.3-4.3-7.3-11.2-4.7-17.5c5.5-13.5,10.8-27.3,18.6-39.5
	c15.8-24.6,33.3-48.1,50-72.1c0.5-0.8,1-1.6,1.6-2.5c3.6,2.6,6.5,4.8,9.7,7.1c-10.5,14.5-21.1,28.3-30.7,42.7
	c-10.9,16.4-21,33.4-31.3,50.2c-1.8,2.9-3,6.3-4.2,9.5c-3.9,10.3-3.5,11.3,5.7,17.4c8.9,5.9,17.8,11.8,27.3,18.1
	C583.9,380.5,582,383.5,579.6,387.2z"/>
<path id="path9" d="M596.3,185.9c9-7.2,18.3-11.4,29.1-11.4c11,0,17.8,6.8,16.6,17.6c-0.8,7.4-3.5,14.6-5.6,22.8
	c-4.7-2.3-7.9-3.8-11.3-5.5c1.7-5.4,3.7-10.3,4.8-15.4c1.3-5.9-1.4-8.9-7.1-7.5c-6.6,1.7-12.9,4.7-20,7.3
	C601.2,191.9,599,189.3,596.3,185.9z"/>
<path id="path10" d="M423.4,265.8c8.3,6.1,16.5,11.8,24.3,18.1c5.1,4.1,10.2,4.7,15.4,1.6c14.3-8.5,29.2-16.4,42.5-26.3
	c20.9-15.5,40.7-32.5,60.9-48.8c2.7-2.2,5.3-4.3,8.5-6.9c2.6,3.1,4.7,5.7,6.8,8.2c-0.1,0.8-0.1,1.4-0.3,1.6
	c-31.3,26.6-62.3,53.8-97.6,75.2c-6.9,4.2-14.5,7.2-22.1,10c-6.4,2.3-12.7,1.3-18.4-3.1c-8.8-6.8-17.8-13.3-27.2-20.2
	C418.7,271.8,420.9,268.9,423.4,265.8z"/>
<path id="path11" d="M388.3,236.6c-3,2.6-5.7,4.9-8.6,7.3c-30.4-25.2-39.7-54.3-26.2-97.7c11.6-37.5,37.3-64.9,68.8-87
	c22.3-15.7,46.5-28.5,74.1-29.6c19.5-0.8,39.5,1.6,58.8,4.8c41.9,7.1,82.1,19.9,119.8,39.9c24.7,13.1,47,29.1,63.2,52.5
	c22.4,32.3,17,73.4,0.1,97.1c-6.2,8.7-14.3,15-25.1,18.6c-1.5-3.7-2.9-7-4.2-10.4c34.4-14.1,40.9-68.4,19.3-98.6
	c-15-21-35-35.9-57.4-47.7c-47.9-25.2-99.2-39.2-152.9-44.6c-21.9-2.2-42.5,2.5-62.1,12.1c-37.6,18.5-67.7,44.9-86.1,83.2
	c-8.4,17.5-11.9,36-9.2,55.6c1.7,12.1,7,22,14.9,30.8C379.6,227.4,383.8,231.7,388.3,236.6z"/>
<path id="path12" d="M579.3,68.4c5.4,2.3,8.6,3.7,11.7,5c-3.9,12.2-8.3,23.9-11.3,35.9c-6.5,25.9-7.1,51.7,7,75.6
	c14.2,24,36.9,36.6,62.7,44.4c4.2,1.3,8.5,2.3,13.4,3.6c-0.7,3.6-1.3,7.1-2,11.4c-17.5-3.1-33.5-8.9-48.2-17.8
	c-39-23.4-55.8-61.2-47-107.9C568.7,101.9,574.5,85.7,579.3,68.4z"/>
</svg>
