<?xml version="1.0" encoding="utf-8"?>
<!-- Generator: Adobe Illustrator 23.0.3, SVG Export Plug-In . SVG Version: 6.00 Build 0)  -->
<svg version="1.1" id="Layer_1" xmlns="http://www.w3.org/2000/svg" xmlns:xlink="http://www.w3.org/1999/xlink" x="0px" y="0px"
	 viewBox="0 0 1024 768" style="enable-background:new 0 0 1024 768;" xml:space="preserve">
<path id="path1" d="M553,669.7c-2.5-3.2-4.7-6.1-7.2-9.3c6.9-5.6,13.3-11.4,20.3-16.4c24-17,40.3-40.3,53.8-65.8
	c48.8-92.5,83.6-189.9,102.7-292.8c7.5-40.6,11.2-81.6,6.3-122.9c-5-42.2-20.4-78-59.7-99.8c-14-7.8-27.3-16.8-41.4-24.5
	c-22.4-12.1-45.7-22.1-71.2-25.4c-18-2.3-35.5-1-49.4,12.9c-3.7,3.7-6.6,8.3-10.1,12.8c-3.1-1.6-6.3-3.3-9.9-5.1
	c10-19.8,25.6-30.2,46.7-32.7c22.8-2.7,44.3,3.1,65.3,11.2c34.5,13.3,65.9,32.4,95.6,54.2c20.5,15.1,31.9,36.6,39,60.5
	c9.7,32.6,10.9,66.1,8.1,99.6c-9.4,113.7-45.8,219.7-93.5,322.2c-9.1,19.6-20.3,38.1-30.7,57.1C602.6,633,577.2,650.3,553,669.7z"/>
<path id="path2" d="M500.9,691.9c2.1,3.3,4,6.2,5.8,9.2c-0.4,0.7-0.5,1.5-1,1.8c-32.8,20.7-66.7,38.9-105.3,45.8
	c-32.3,5.8-62,1-86.8-22.5c-11.3-10.6-14.3-24.1-14.1-38.7c0.4-23.4,8.1-45,18.1-66.4c3.7,1.7,7,3.2,9.5,4.3
	c-4.7,15.6-9.6,30.6-13.7,45.7c-1.5,5.3-1.9,11-1.9,16.6c-0.2,21.4,10,35.3,32.4,44.7c21.6,9,43.6,7.6,65.7,2.1
	c29.4-7.3,55.9-21.1,81.7-36.6C494.2,696.2,497.1,694.3,500.9,691.9z"/>
<path id="path3" d="M476.8,155.5c-1.3-3.5-2.5-6.7-4-10.6c20.1-7.6,40.2-9.8,61.1-5.9c17.6,3.3,30.6,12.8,39.5,28.2
	c8,13.7,10.8,28.6,10.5,44.2c-0.6,33.3-11.8,63.8-25.6,93.4c-27.5,59-64,112.3-104.7,162.7c-21.8,26.9-45.5,52.2-68.4,78.3
	c-10.1,11.5-20.2,23.1-30.6,35c-2.7-2.1-5.6-4.3-9.7-7.3c11.6-13.1,22.4-26.1,34.1-38.4c62.8-66.1,117.9-137.8,160.4-218.8
	c14-26.6,25.9-54.2,30.4-84.2c1.8-12,2.3-24.7,0.8-36.7c-3.5-28.3-21.4-44.3-49.9-46.1c-7.4-0.5-14.9,0.1-22.2,1.2
	C491.5,151.5,484.6,153.7,476.8,155.5z"/>
<path id="path4" d="M314.8,743.8c1.6,3.7,3,7.1,4.6,10.8c-28.7,12.1-57.7,18.8-87.8,8c-46.8-16.8-83.5-46.7-108.6-89.5
	c-14-23.8-20-51-23.8-78.3c-7.7-54.6,0.9-107,22.2-157.5c9-21.2,22.4-39.7,37.2-57.1c73.6-86.3,158.2-159.2,258.4-213.4
	c5.3-2.9,10.8-5.3,16.5-8.2c1.8,3.7,3.4,7,5.2,10.6c-5.6,2.8-10.8,5.3-15.9,8c-70.6,37.1-132.7,85.9-189.7,141.2
	c-24.5,23.8-47,49.6-69.7,75.2c-27.9,31.5-42.3,69.7-50.1,110.4c-9.8,51.7-5.2,102.3,14.4,151.3c11.4,28.5,32.4,49.1,56,67.3
	c10.6,8.2,22.4,15,34.2,21.4c27,14.5,55.1,15.1,83.6,4.6C305.6,747.1,309.8,745.6,314.8,743.8z"/>
<path id="path5" d="M360.6,727.7c-1.3-0.9-1.8-1.2-2.4-1.6c-2.2-1.7-4.4-3.4-7-5.4c4.1-4.7,7.4-8.2,10.3-12
	c22-27.8,20.8-58.4-4.3-83.5c-13.1-13.1-27.7-24.8-41.4-37.4c-18.3-16.9-33.1-36.2-37.1-61.5c-5-31.2,5.6-57.6,28.9-78.1
	c15.6-13.8,34.1-12.4,52.5-4.8c18.2,7.5,30.8,21.3,42.7,37.4c-1.9,1.7-3.7,3.4-5.7,5c-3.8,3-5.5-0.1-7.5-2.6
	c-10.1-13.1-21.5-24.4-37.6-30c-20.1-7-36-1.8-47.9,15.9c-22.3,33.2-19.7,68.2,8.8,98.6c12.8,13.7,27.6,25.6,41.6,38.2
	c11.6,10.5,22.7,21.6,28.7,36.4c11.7,28.5,4.3,53.7-14.6,76.4C366.5,721.8,363.6,724.5,360.6,727.7z"/>
<path id="path6" d="M419.5,528c3.2-1.9,6.1-3.7,9.7-5.8c1.3,2,2.6,3.8,3.6,5.7c9.2,16.9,19.1,33.5,27.4,50.9
	c15.7,32.8,37.9,60.8,62.8,86.6c15,15.5,31.4,29.7,47.5,44.1c42.3,37.9,130,22.6,146.6-53.3c4.9-22.4,8.8-45.3-4.3-66.4
	c-7.1-11.4-15.6-21.9-23.8-32.6c-3.4-4.4-7.5-8.2-11.9-13c2.8-2.6,5.5-5.1,8.8-8.1c19.7,21.2,41.5,41.5,45.7,71.1
	c7.5,53.4-15,117.5-83,131.6c-33.1,6.8-62.8-0.1-88.6-22c-44.9-38-84.7-80.2-111.1-133.7C439.8,564.5,429.5,546.6,419.5,528z"/>
<path id="path7" d="M634.4,490.8c-2.4,3.1-4.7,5.9-7.1,9.1c-9-6.8-17.6-13.5-26.4-20c-12.9-9.6-25.7-19.2-38.8-28.4
	c-8.2-5.7-11.6-13.6-8.5-22.3c5.6-15.7,11.8-31.2,19.5-45.9c10.1-19.1,21.1-37.8,33.1-55.7c13-19.5,16.1-40.6,14.2-63.2
	c-0.7-7.9-1.4-15.7-2.1-24.2c3.4-0.6,6.8-1.3,11.3-2.1c0.8,6.8,2.2,13.3,2.4,19.9c0.4,12.1,0.4,24.2,0,36.2
	c-0.5,13.7-7.4,25.2-14,36.7c-14.3,24.8-28.9,49.3-42.8,74.2c-4.1,7.4-6.7,15.8-9.4,23.9c-1.9,5.7-0.3,10.2,5.3,14.2
	c19.5,13.9,38.5,28.4,57.7,42.7C630.5,487.4,632.2,488.9,634.4,490.8z"/>
<path id="path8" d="M620.8,207.1c-3.2,0.6-6.6,1.2-9.9,1.8c-4.8-9.2-1.9-24.5-19.7-22.3c-1.1-3.4-2.3-6.9-3.4-10.2
	C605.4,168.8,622.3,184.6,620.8,207.1z"/>
<path id="path9" d="M499.5,154.9c3.1-0.6,5.6-1.1,8.1-1.5c0.9-0.1,1.8,0,3.6,0c0.3,4.9,0.8,9.7,1,14.5c0.2,4.4,0,8.8,0.3,13.2
	c0.9,11.2,7.4,15.8,18.1,12.3c5.3-1.7,10.2-4.5,15.3-6.7c3.8-1.6,7.6-3,12.2-4.7c0.7,4.5,1.3,8,1.9,11.7
	c-8.7,3.8-16.8,7.9-25.2,10.9c-18.3,6.5-32.7-3.2-34.1-22.5C500.1,173.2,499.9,164.4,499.5,154.9z"/>
<path id="path10" d="M504.4,129.6c-3.8,0.8-7.2,1.5-11.3,2.4c-1.4-10.1-6-17.8-17.5-19.7c1.3-4,2.4-7.4,3.5-10.7
	C496.3,104,502.7,115.2,504.4,129.6z"/>
<path id="path11" d="M601.7,242.8c-1.6-3.9-2.8-7.1-4.3-10.9c21.7-9,28.9-27.6,31.7-48.8c2.8-21.8-4.3-40.8-18.1-57.5
	c-17.5-21-40.2-35-64.5-46.6c-42.6-20.2-87.6-31.8-134.3-37.6c-31.9-3.9-60.2,5.3-86.4,22.5c-32.5,21.4-58.1,48.7-71.1,86
	c-3.7,10.6-5,21.9-7.3,33c0.7,0.6,1.4,1.2,2.1,1.8c5.4-1.6,11.2-2.5,16-5c30.1-16.1,60.6-31.5,89.8-49.1c25.4-15.3,52-26.7,81-32.6
	c1.4-0.3,2.7-0.6,4.1-0.8c1.4-0.2,2.7-0.2,4.5-0.3c0.5,1.9,1.1,3.6,1.4,5.4c0.3,1.8,0.3,3.6,0.4,4.8c-15.8,4.7-31.5,8.4-46.3,14.1
	c-12.5,4.8-24.1,11.9-35.9,18.4c-31,16.9-61.8,34.1-93,50.7c-5.6,3-12.2,4.6-18.5,5.8c-11.3,2.1-16.7-2.8-16.3-14.4
	c0.8-26.4,9.8-50.1,24.7-71.5c25-36,57.8-62,99.6-76.3c20-6.8,40.3-6.1,60.7-3.4c41.9,5.5,82.5,16.3,121.2,33.5
	c29.3,13,56.6,29.1,77.8,54.1c29.7,35.1,24.8,79.4,6.6,105.6C620.8,232.5,612.4,238.5,601.7,242.8z"/>
<path id="path12" d="M468.3,68.5c4.8,2.1,8,3.4,11.1,4.8c-3.9,12.2-8.3,23.9-11.4,35.9c-6.1,23.9-7.1,47.9,4.4,70.7
	c13.2,26.3,36.3,40.2,63.3,48.7c4.9,1.5,9.8,2.8,14.7,4.2c0.2,0.1,0.3,0.3,0.9,1c-0.6,2.9-1.3,6.2-2.3,11c-8.9-2.7-17.7-4.7-26-7.9
	c-31.4-11.9-55.8-31.4-66.6-64.5c-6.9-21.2-5.9-42.7-0.6-64C459.2,95.3,463.9,82.4,468.3,68.5z"/>
</svg>
