<?xml version="1.0" encoding="utf-8"?>
<!-- Generator: Adobe Illustrator 23.0.3, SVG Export Plug-In . SVG Version: 6.00 Build 0)  -->
<svg version="1.1" id="Layer_1" xmlns="http://www.w3.org/2000/svg" xmlns:xlink="http://www.w3.org/1999/xlink" x="0px" y="0px"
	 viewBox="0 0 1024 768" style="enable-background:new 0 0 1024 768;" xml:space="preserve">
<path id="path1" d="M596.6,309.6c-1.7-4-2.8-6.8-3.5-8.3c6.6-6.5,14.4-11.5,18.3-18.6c12.2-22.2,13.1-45-1.3-66.9
	c-12-18.3-29.7-30.1-48.5-40.3c-29.9-16.3-61.8-27.6-94.6-36.1c-33.9-8.9-49.5-49.4-39.3-77.8c4.1-11.4,12-19.1,23.1-24
	c34.6-15.3,70.6-25.3,107.8-31.7c30.8-5.3,61.7-7.6,92.8-4.2C698,6.7,739.2,23,769.3,61c19.5,24.6,29.6,53.2,35.3,83.6
	c11.6,61.4,14.7,123.4,10.9,185.6c-4.9,80.5-19.1,159.3-45.8,235.6c-16.5,47.1-36.7,92.4-68.2,131.8c-17.4,21.8-38.6,37.7-66.4,43.7
	c-26.1,5.7-50.2,1.9-71.3-15.2c-39.7-32.2-74.5-68.6-98.3-114.5c-9.2-17.8-18.8-35.3-28.6-53.7c2.8-1.6,5.5-3.2,9-5.2
	c9.8,18.3,19.6,36,28.9,53.9c23.1,44.6,57,80,95.7,111.2c25.8,20.8,54.1,18.8,82.5,6.3c25.6-11.2,41.6-32.7,56.2-55.1
	c31.3-48,50.7-101.1,65.8-156c23.3-84.8,33.6-171.2,30.8-259.1c-1.4-45.1-5.2-90.1-18.1-133.6c-18.1-61-60-95.5-122.1-106.1
	C611.2,5,558.1,13.7,505.9,28.8c-15.6,4.5-30.8,10.8-46.1,16.2c-24.7,8.7-26.9,28.5-23.4,46.1c3.9,19.2,14.6,32.5,34.5,38.2
	c37.7,10.9,74.9,23.3,108.5,44.3c18.6,11.7,35.1,25.6,44.9,45.9c12.1,25,7,60.5-11.6,78.4C608.2,302.4,602.4,305.5,596.6,309.6z"/>
<path id="path2" d="M421.8,516.1c-4.3,8.4-6.3,8.6-11.9,1.6c-8.2-10.4-17.4-19.4-30.1-24.4c-18.1-7.2-32.9-2.8-43.8,13.5
	c-19.4,29-17,59.5,8,86.2c11.5,12.2,24.7,22.8,37.1,34.1c12.4,11.3,23.3,23.6,27.4,40.5c5.5,22.6-5.1,51.5-24.1,64.7
	c-2-2.2-4-4.4-6.3-6.9c2.8-3.3,5.8-6.5,8.5-10c18.6-24,17.5-50.4-3.9-72c-11.3-11.4-24-21.5-35.8-32.4c-16.7-15.3-30.1-32.8-33.4-56
	c-3.7-26,5.4-48,24.1-65.6c13.8-13,30.4-12.3,47.2-5.5C400.8,490.5,411.9,502.6,421.8,516.1z"/>
<path id="path3" d="M448.9,234.7c1.9,4,3.1,6.7,4.3,9.3c-14.5,8.2-28.8,15.5-42.4,24.1c-77.4,49.2-143.7,110.7-200.6,182.5
	c-22.5,28.4-34,60.9-37.6,96.4c-3.7,36.7-2.1,73.2,6.5,109.2c4.1,17.1,13.3,31.2,24.7,44.1c19.2,21.8,41.2,39.9,68.3,51.1
	c20.6,8.6,41,6.5,61.5-0.5c3.7-1.3,7.4-2.7,11.6-4.2c1.3,3.1,2.5,5.8,4.1,9.3c-22.7,9.2-45.4,16.2-69.4,8.6
	c-46.3-14.6-80.8-44.8-103.5-86.8c-8.1-15.1-10.8-33.7-13.2-51.1c-4.6-32.7-4-65.6,1.5-98.4c5.4-31.8,18-60.2,38-85.3
	c59.8-75.3,129.5-139.5,211.8-189.7C425.4,246.8,436.9,241.2,448.9,234.7z"/>
<path id="path4" d="M380.5,604.5c-2.8-2.1-5.2-3.9-8.6-6.5c8.7-10.2,16.6-20.5,25.7-29.8c51.8-53.4,97-111.8,133.9-176.4
	c16.5-28.8,31-58.7,36.6-91.8c1.7-10,2.1-20.5,1-30.6c-3.2-29.6-24.9-46.4-54.6-43c-6.5,0.7-12.9,1.8-20,2.9
	c-0.8-3.2-1.5-6.2-2.3-9.5c14.3-4,28.2-5.5,42.2-3c26.2,4.8,44.3,27.1,46,55.3c1.7,27.6-6,53.1-16.5,78
	c-22.8,54-55,102.4-91.5,147.8c-25.3,31.5-52.9,61-79.4,91.5C388.8,594.1,384.9,599.1,380.5,604.5z"/>
<path id="path5" d="M513.6,710.3c-29.7,18.3-59.1,34.4-92.8,40.7c-22.5,4.2-44.1,2.5-64.2-9.8c-17.2-10.6-26-25.3-24.7-46
	c1.2-19.7,7.4-37.8,15.9-55.8c3.3,1.6,6.2,2.9,7.6,3.6c-4.3,16.1-9.4,31.1-12.1,46.6c-4.3,25,4.8,36.7,27.7,47
	c22.4,10.1,45.8,7.1,67.6-1.3c21.4-8.3,41.7-19.6,62.4-29.7c2.3-1.1,4.4-2.6,7-4.1C509.9,704.5,511.6,707.2,513.6,710.3z"/>
<path id="path6" d="M505.1,130.3c-3.3-1.7-6-3.1-9.1-4.7c9-17.9,23.4-27.1,42.7-28.7c24.1-2,46.6,4.5,67.4,15.4
	c24.1,12.6,47.9,26.3,70.4,41.6c23.1,15.7,33,40.5,38.4,67c7.7,37.6,5.5,75.4-0.6,112.9c-15.5,95.2-47.5,184.9-91.5,270.5
	c-16.4,31.8-39.2,57.2-70.1,77.5c-0.4-0.7-1.2-2.1-2.1-3.5c-0.9-1.3-1.9-2.6-3.3-4.4c5.9-4.8,11.3-9.9,17.4-14.1
	c21.3-14.9,35.6-35.5,47.4-58c42.6-80.8,73-166,89.6-255.8c6.9-37,10.5-74.5,4.8-112.2c-4.3-28.6-12.8-55.7-38.1-72.9
	c-20.6-14-42.1-27-64.4-37.9c-15-7.4-31.9-11.9-48.5-15C534.7,104,516.4,109.5,505.1,130.3z"/>
<path id="path7" d="M550.1,310.2c-22.4-4.9-42.2-12.8-58.3-27.9c-27.6-25.7-31.1-57.6-22.9-92.2c2.7-11.2,6.9-22.1,10.6-33.8
	c3.9,1.7,6.7,2.9,9.7,4.2c-3.3,10.1-6.9,19.9-9.6,29.9c-5.7,21.7-6.8,43.4,3.9,64.1c12.3,23.7,33.6,35.4,58,42.7
	c3.1,0.9,6.3,1.7,9.4,2.6c0.2,0.1,0.4,0.2,1.2,0.7C551.5,303.5,550.9,306.6,550.1,310.2z"/>
</svg>
