<?xml version="1.0" encoding="utf-8"?>
<!-- Generator: Adobe Illustrator 23.0.3, SVG Export Plug-In . SVG Version: 6.00 Build 0)  -->
<svg version="1.1" id="Layer_1" xmlns="http://www.w3.org/2000/svg" xmlns:xlink="http://www.w3.org/1999/xlink" x="0px" y="0px"
	 viewBox="0 0 1024 768" style="enable-background:new 0 0 1024 768;" xml:space="preserve">
<path id="path1" d="M434.3,622.9c3.8,1.8,6.9,3.2,9.4,4.4c-4.6,15.2-9.4,29.9-13.4,44.7c-1.6,6-1.8,12.5-2,18.8
	c-0.6,23.9,17.2,37.9,40.7,44.9c26.5,8,52.6,2.6,77.2-7.7c20.6-8.6,41.1-18.1,59.9-30c27.3-17.4,53.6-36.5,79.1-56.5
	c26.9-21.1,43.3-50.8,58.6-80.6c32-62.3,52.3-128.6,66.8-196.9c13.1-61.6,21.2-123.8,17.1-186.8c-1.6-24-5.7-48.2-11.6-71.5
	c-11.6-46.1-46.1-70.9-87.9-86.8c-29.7-11.3-59.2-9.6-86.6,7.5c-20.2,12.6-36.7,28.4-45.3,51.9c-7.8,21.4-16.1,42.3-15.9,65.5
	c0.2,17.5,4.9,33.8,11.2,49.8c3.3,8.3,4,16.6,0.6,24.6c-7.4,17.7-14.3,35.8-23.6,52.5c-35.1,63-74.9,122.8-121.6,178
	c-5.9,7-13,13.1-19.4,19.8c-25.9,27.6-29,62.1-5.4,91.6c13.5,16.9,30.9,30.7,46.5,46c6.8,6.6,13.8,13.1,19.8,20.4
	c27.1,32.9,18.4,74.9-12.9,101.7c-2.1-2.5-4.3-5-7.2-8.3c1.7-1.8,3.5-3.9,5.4-5.9c26-28.7,25.5-61.4-2.1-88.4
	c-12.4-12.2-25.9-23.2-38.8-34.9c-16.1-14.6-29.2-31.4-35.2-52.5c-8.6-29.9-0.1-55.7,21.1-77.6c62.2-64.6,109.3-139.6,151.2-218.2
	c3.1-5.8,5.5-12,7.9-18.1c4.2-10.5,5.4-20.5,0.6-31.9c-15.4-36.8-11.3-73.2,3-109.8c9.4-24.2,22.9-44.2,43.7-59.4
	c29-21.3,61-28.5,95.7-18.6c38.3,10.9,71.1,30.8,92.7,65.4c13.1,20.9,18.7,44.6,22.2,68.7c9.4,63.1,4.2,125.7-6.2,188.1
	c-12.8,77-33.6,151.6-66.8,222.4c-8.5,18.1-18.4,35.6-28.8,52.7c-13.8,22.7-30.8,42.6-52.6,58.3c-36.1,26.1-71.3,53.5-112.3,71.8
	c-25,11.2-50.6,19.8-78.4,19.3c-19.4-0.3-37.1-6.1-52.9-17.9c-14.8-11-21.6-25.3-21.3-43.5C416.7,666.2,424.4,644.8,434.3,622.9z"/>
<path id="path2" d="M471.3,583.5c-3.1-2.3-5.8-4.3-9.8-7.3c10.2-11.8,19.6-23.8,30.1-34.6c58.2-60.1,109-125.9,150.5-198.6
	c18.3-32.1,34.4-65.3,40.9-102.2c1.8-10,2.8-20.5,2-30.6c-3-38.6-28.5-58.5-66.9-53c-5.7,0.8-11.4,1.8-17.8,2.9c-1-3.6-1.9-7-2.9-11
	c19.4-4.7,38-6.9,56.7-0.9c23.9,7.7,40.8,31.8,42.7,59.2c2.2,31.7-6.6,61-18.8,89.6C650.7,361,611.8,418,568.2,471.8
	c-26.5,32.7-55.5,63.5-83.3,95.1C480.4,572.1,476.2,577.5,471.3,583.5z"/>
<path id="path3" d="M548.6,166.6c1.8,3.7,3.2,6.7,5,10.4c-5.3,2.7-10.1,5.2-14.9,7.6c-57.5,29.6-109.3,67.6-158.7,109
	c-38.3,32-73.9,66.7-107.7,103.5c-33.7,36.7-50.8,79.4-53.3,128.5c-2.1,41.3,0.7,82.1,10.4,122.4c4.6,19.5,14.3,35.4,28.8,48.9
	c29,27,61.7,47.4,100.7,56.7c20.3,4.9,39.7,1.6,59-4.8c4.2-1.4,8.4-3,13.5-4.8c1.5,3.4,3,6.5,4.7,10.4
	c-26.3,11.3-52.7,17.4-80.5,10.5c-47-11.6-85.8-36.8-117.9-72.7c-14.7-16.5-19.6-37-23.4-57.8c-8.5-45.6-10.7-91.5-3.8-137.6
	c5.4-36.8,19.9-69.1,44.3-97c79.5-91,170.8-167.3,277.1-225.1C537.3,172,542.8,169.5,548.6,166.6z"/>
</svg>
