<?xml version="1.0" encoding="utf-8"?>
<!-- Generator: Adobe Illustrator 23.0.3, SVG Export Plug-In . SVG Version: 6.00 Build 0)  -->
<svg version="1.1" id="Layer_1" xmlns="http://www.w3.org/2000/svg" xmlns:xlink="http://www.w3.org/1999/xlink" x="0px" y="0px"
	 viewBox="0 0 1024 768" style="enable-background:new 0 0 1024 768;" xml:space="preserve">
<path d="M530,730.3c3.5,2,7,3.9,11.1,6.2c-6.2,12.1-16.6,17.3-28.1,20.5c-23.9,6.4-47.9,4-71.9,0.1c-58.8-9.5-108.6-36.8-153.2-75.5
	c-25.8-22.4-40.4-50.2-46.5-83.6c-10.4-56.6-13.9-113.2-5.2-170.4c6.5-42.4,23-79.9,51.1-112.3c95.4-109.8,205.2-201.9,333.8-270.7
	c27.2-14.6,54.8-29.4,86-34.7c17.9-3.1,35.6-2.9,53.1,2.4C791.8,22,812.8,50.2,815,85c2.5,38.4-8.5,73.9-23.4,108.4
	C760,266.5,716,332.1,666.1,393.7c-32.1,39.7-67.9,76.5-101,115.5c-38.8,45.6-59.1,99.1-64.9,158.4c-1.3,13.5,3.7,23.2,15,31.1
	c24.2,17,51,20.1,79.1,15.8c46.9-7.2,88.1-28.6,126.7-54.8c26.2-17.8,51.4-37.1,76.4-56.5c48.8-37.8,40.9-101-14.6-128.1
	c-39.9-19.5-72.1-6.2-101.2,20.4C636.3,537,605.3,588.1,585,646c-6.8,19.4-16.5,37.8-25.3,57.6c-5-2.5-8.8-4.4-13-6.6
	c1.5-3.2,2.7-5.7,3.8-8.2c8.3-19.6,16.9-39.1,24.9-58.8c24.8-60.7,58-115.5,110.8-156.3c51.4-39.7,104.5-21.8,138.4,16.5
	c29.4,33.2,25.7,86.1-9.3,116.1c-48.2,41.3-99,79.2-158.1,104.4c-28.5,12.2-58,20.7-89.3,19.6c-23.1-0.8-44-7.9-63-21.6
	c-14.7-10.6-20-24.3-19.1-41.4c1.6-30.8,10.6-59.7,21.5-88.2c14.9-39.1,38.8-71.8,67.7-101.8c76.5-79.2,142.5-166.3,192.3-264.9
	c18-35.7,32.7-72.8,33.8-113.6c0.3-9.9-1-20.2-3.6-29.7c-7.6-27.8-29.3-44.3-59.4-46.6c-23.8-1.8-45.8,4.6-67.4,14
	c-95.2,41.4-177.5,102.3-255.3,169.8c-40.1,34.8-77.6,72.3-112.7,112.3c-31.5,36-49.7,77.2-54.6,124.5c-5.9,56.3-2.3,112,10.5,167.3
	c6.9,29.9,25.7,50.3,48,68.8c49,40.7,104.9,64.6,169,67.5c8.4,0.4,17.3,0.6,25.3-1.5c10.2-2.7,19.8-7.8,29.7-11.9
	C530.5,732.3,530.3,731.3,530,730.3z"/>
</svg>
