<?xml version="1.0" encoding="utf-8"?>
<!-- Generator: Adobe Illustrator 23.0.3, SVG Export Plug-In . SVG Version: 6.00 Build 0)  -->
<svg version="1.1" id="Layer_1" xmlns="http://www.w3.org/2000/svg" xmlns:xlink="http://www.w3.org/1999/xlink" x="0px" y="0px"
	 viewBox="0 0 1024 768" style="enable-background:new 0 0 1024 768;" xml:space="preserve">
<path id="path1" d="M562.5,38.7c-3.6-1.9-6.8-3.6-10.4-5.5c10-19.9,26-30.6,47.6-32.7c29.4-2.9,56.6,5.9,81.9,19
	c25.8,13.3,50.7,28.6,75.1,44.4c22.5,14.7,34.4,37.5,41.9,62.7c9.5,32.2,10.8,65.2,8.2,98.3c-9.2,114.7-46,221.5-94.3,324.9
	c-9,19.2-20,37.5-30.3,56.1c-15,27.2-40.3,44.1-64.2,63.6c-2.5-3.1-4.7-5.9-7.3-9.3c6.9-5.6,13.1-11.4,20-16.3
	c24.5-17.3,40.9-41.2,54.6-67.2c45.2-85.5,77.7-175.6,97.9-270.1c8.8-41.3,14.1-83,12-125.3c-1.3-26.8-5.8-52.8-18.5-76.8
	c-6.9-13.1-16.4-24-28.7-32.4c-30.9-21.3-62.7-41.1-98.6-52.8c-10.3-3.3-21-5.8-31.7-7C594.3,9.8,574.5,16,562.5,38.7z"/>
<path id="path2" d="M565.7,691.8c2.1,3.3,4.1,6.4,6.8,10.6c-15.1,8.4-29.6,17-44.6,24.5c-28.2,14-57.4,24.5-89.5,23.8
	c-22.7-0.6-42.4-8.4-59.1-23.7c-9.4-8.6-13.9-19.5-14.6-31.9c-1.6-26.2,6.9-50,17.8-74.1c3.6,1.7,6.9,3.2,10.2,4.7
	c-4,11.4-8.5,22.3-11.5,33.5c-2.5,9.1-3.9,18.5-4.6,27.9c-1.5,18.1,7.3,30.7,22.3,40c21.7,13.4,45.1,13.9,69,8.9
	c32.4-6.7,61.2-21.9,89.2-38.7C559.8,695.6,562.5,693.8,565.7,691.8z"/>
<path id="path3" d="M419.6,580.7c-2.8-2.1-5.5-4.1-9.6-7.1c10.8-12.4,20.6-24.8,31.6-36.2c58.9-61.1,110.3-127.8,152.2-201.6
	c18.2-32,33.8-65.3,40.7-101.9c3.1-16.8,4-33.5-1.8-50c-7.6-21.8-23.1-34.2-46.2-34.3c-14.8-0.1-29.6,2.5-45.6,4.1
	c-0.5-1.4-1.8-4.8-3.3-8.7c19.5-7.3,38.8-9.7,58.9-6.5c32,5.2,48,31.1,51.4,58.4c3.5,28.2-3.7,54.7-13.4,80.6
	c-16.8,45.2-41.5,86.1-68.5,125.7c-34.9,51.1-73.5,99.3-116.8,143.6C439,557.3,429.8,569,419.6,580.7z"/>
<path id="path4" d="M379.5,743.6c0.9,2,1.6,3.2,2.1,4.5c0.8,1.9,1.6,3.8,2.6,6.3c-25.5,10.9-51.6,17.5-79,11.1
	c-49.3-11.5-89.9-37.7-123.1-75.7c-14.3-16.4-18.3-36.6-20.1-57.2c-4.8-53,0.2-105.2,14.1-156.6c10.1-37.3,30.6-68.6,55-97.6
	c59.4-70.7,126.7-132.8,203.9-183.8c20-13.2,41.3-24.4,62.8-37c2.3,4.9,3.9,8.2,4.9,10.2c-26.3,16.2-53,30.8-77.6,48.2
	c-78.1,54.9-147,119.6-204.6,196c-20.4,27-31.5,57.8-38.4,90.4c-8.8,41.7-10.9,83.7-8.5,126.2c1.8,32.5,16.1,57,40.8,76.9
	c21.6,17.4,44.8,31.8,70.6,42c30,11.8,59.6,10.5,89.1-1.6C375.7,745.1,377.3,744.4,379.5,743.6z"/>
<path id="path5" d="M425.9,728.9c-3.8-4-6.2-6.5-9-9.4c2.7-3,5.4-5.8,7.9-8.7c23.9-27.9,23-60.4-3.2-86.2
	c-12.7-12.5-26.5-23.8-39.6-35.8c-17.9-16.3-32.6-34.9-37.6-59.3c-6.5-31.8,3.9-58.7,26.9-80.3c15.7-14.8,34.7-13.8,53.9-6
	c18.4,7.5,30.9,21.4,41.9,36.3c-1.2,3.4-2.2,6.3-3.3,9.3c-0.3-0.9-0.7-2-1.2-3.4c-1.4,0.6-2.8,1.3-4.4,2c-2.6-3.2-5.2-6.4-7.9-9.7
	c-8.5-10.4-18.3-18.8-30.9-23.9c-20.4-8.3-37.8-3.3-50.2,15c-22.2,32.7-19.7,67.8,8.3,98.1c12.7,13.7,27.5,25.3,41.2,38.1
	c6.7,6.3,13.5,12.7,19.2,20c18.9,24.3,21.3,50.6,6.6,77.7C439.7,711.8,432.6,719.6,425.9,728.9z"/>
<path id="path6" d="M484.4,527.7c3.2-1.9,6.1-3.6,9.6-5.6c1.3,1.9,2.5,3.5,3.5,5.2c9.3,17.1,19.2,33.8,27.6,51.3
	c19.8,41.2,49.7,74.5,81.8,106c9.9,9.7,21,18.1,31.6,27c39.6,33.3,122,20.3,141-47.8c4.1-14.5,5.6-30,6.5-45.1
	c0.9-15.7-6.9-29.1-15.9-41.3c-8.5-11.5-18-22.3-27.4-33.9c2.1-2.1,4.7-4.7,7.2-7.1c37.7,26.1,55.1,73.1,44.7,118.9
	c-7.5,33-23.9,59.9-55.5,74.4c-36.5,16.7-73.1,17.6-106.3-7.7c-46.8-35.7-86.3-78.1-114.3-130.5c-10.4-19.6-21.1-39.1-31.6-58.6
	C486,531.3,485.3,529.6,484.4,527.7z"/>
<path id="path7" d="M682.8,240c4-0.6,7.4-1.1,12.8-1.9c0.6,16.5,1.4,32.5,1.7,48.5c0.3,16.3-6.5,30.4-14.5,44.2
	c-15.8,27.2-31.2,54.6-46.7,81.9c-0.3,0.6-0.6,1.3-0.8,1.9c-8.8,20.5-8.4,21.8,9.5,34.9c16,11.8,31.9,23.8,47.8,35.7
	c2.2,1.6,4.2,3.5,6.6,5.5c-2.5,3.2-4.7,6-7.1,9.1c-9.7-7.3-18.8-14.3-28-21.2c-12.4-9.2-24.8-18.6-37.5-27.4
	c-7.6-5.4-10-12.4-8.5-21.1c2.8-16.7,10.9-31.4,19.1-45.8c10.5-18.5,20.7-37.2,32.7-54.8c15-21.9,17.4-45.7,14.9-70.9
	C684.2,252.6,683.5,246.7,682.8,240z"/>
<path id="path8" d="M685.7,201.2c-4.1,0.5-7.3,0.9-10.8,1.3c-0.5-1.1-1.2-2-1.3-3.1c-6.2-35.3-28.4-57.7-59.1-73.1
	c-22-11-45.4-16.9-70.3-19.2c0-3.7,0-7.4,0-13.2c15.1,3.2,29.6,5.4,43.7,9.3c29.2,8.2,55.5,21.8,75.4,45.6
	C675.8,163.8,683.3,180.9,685.7,201.2z"/>
<path id="path9" d="M667.1,243.9c-2-5-3.3-8.2-4.8-11.9c10.3-5,18.8-11.8,24-22.1c15.1-29.9,9.2-64-15.6-90.1
	c-17.7-18.6-39.3-31.5-62.3-42.1C567.9,59,525.4,48.1,481.4,41.9c-34.3-4.8-64.5,4.3-92.5,23.2c-31.6,21.3-56.6,48.3-69.3,85
	c-3.6,10.5-5,21.8-7.8,34.9c6-1.4,9.9-1.7,13.2-3.2c17.9-8.5,36-16.7,53.4-26.2c19.7-10.8,38.5-22.9,57.9-34.2
	c22.6-13.2,47.5-20,73.6-25c0.7,4,1.3,7.6,1.8,11.1c-12.1,3.3-24.2,5.7-35.5,9.9c-13.3,5-26.5,10.8-39,17.6
	c-31.3,17-62,34.9-93.3,51.9c-7.8,4.2-16.7,6.9-25.4,9c-11.9,2.9-17.6-2.3-17.1-14.5c1.1-32.1,14.2-59.6,34-83.9
	c23.5-28.9,52.6-50.3,88.1-62.8c23.1-8.2,46.5-6.6,69.9-3c47.1,7.2,92.5,20.3,134.8,42.7c27.7,14.7,52.8,32.6,68.3,61.1
	c16.4,30.1,11.7,73.1-10.8,95C680.6,235.3,674,238.9,667.1,243.9z"/>
<path id="path10" d="M533.2,68.4c5,2.2,8.1,3.6,11,4.9c-3.9,12-8.1,23.4-11.2,35.2c-5.3,20.2-6.9,40.7-0.1,60.9
	c9.7,29.1,31.6,45.8,59.1,56.3c7.7,2.9,15.8,5,24.1,7.6c-0.7,3.5-1.4,6.8-2.3,11.6c-8.9-2.7-17.6-4.8-25.9-7.9
	c-31.5-12-55.9-31.4-66.7-64.7c-6.9-21.3-5.8-42.9-0.4-64.3C524.2,94.8,528.9,82,533.2,68.4z"/>
</svg>
