<?xml version="1.0" encoding="utf-8"?>
<!-- Generator: Adobe Illustrator 23.0.3, SVG Export Plug-In . SVG Version: 6.00 Build 0)  -->
<svg version="1.1" id="Layer_1" xmlns="http://www.w3.org/2000/svg" xmlns:xlink="http://www.w3.org/1999/xlink" x="0px" y="0px"
	 viewBox="0 0 1024 768" style="enable-background:new 0 0 1024 768;" xml:space="preserve">
<path id="path1" d="M663.1,63.8c-17.9-7.8-36.6-11.4-56-8.2c-14.3,2.3-24.4,10.8-31.4,24c-3.4-1.7-6.4-3.2-9.9-4.9
	c7.5-15.3,18.8-24.9,34.7-29.2c19.5-5.2,38.6-1.9,57.3,4c39.2,12.5,73.9,33.3,106.4,58c18.2,13.8,28,33.7,34.3,55.3
	c9.7,33.2,10.2,67.2,7.1,101.3C797.4,353.5,771,438,736,520.1c-13.1,30.6-29.1,60-44.2,89.7c-14.3,28.3-39.4,46.1-63.9,65.4
	c-2.3-3-4.5-5.7-6.8-8.7c6.6-5.4,12.7-11,19.4-15.8c22.8-16.1,38-38.3,50.7-62.4c45.6-86.4,78.1-177.6,96.2-273.6
	c7.6-40.5,11.6-81.3,5.8-122.5c-3.5-24.3-10-47.6-26.7-66.4c-5.7-6.5-12.7-12-19.8-17c-24-16.9-49.1-31.8-76.4-42.8
	c-2.4-1-5-1.5-7.5-2.3L663.1,63.8z"/>
<path id="path2" d="M405.7,629.3c3.5,1.6,6.6,3,9,4.1c-4.4,14.1-8.6,27.8-12.8,41.5c-0.3,1-0.5,2.1-0.7,3.2
	c-7.6,36.6,12.8,54.6,46.8,61c28.2,5.3,54.5-3.7,79.7-15.3c17.4-8,34-17.6,51.6-26.7c1.4,2.3,3.3,5.2,5.8,9.2
	c-14.2,7.8-27.8,16-41.9,23c-26,12.9-52.9,22.7-82.5,22.6c-21.1-0.1-39.7-6.8-55.9-20.5c-12.3-10.4-16.5-23.9-16.2-39.1
	C389,670.1,396.1,649.5,405.7,629.3z"/>
<path id="path3" d="M563.9,185.4c-0.6-2.3-1.3-5.5-2.1-8.6c43.1-14,81.9-0.5,92.6,42.7c6.1,24.6,1.2,48.6-6.2,72.1
	c-12.1,38.2-31.2,72.9-52.5,106.5c-36.9,58-79,112-127.2,161.2c-4.9,5-9.4,10.3-13.9,15.6c-4.5,5.3-8.8,10.8-13.6,16.7
	c-2.8-2.1-5.5-4.1-9.4-7c10.1-11.6,19.4-23.4,29.8-34.1c55.5-57.4,103.8-120.3,143.4-189.7c18.1-31.7,33.7-64.7,39.5-101.2
	c2.9-18.2,2.7-36.1-6.9-52.8c-8.2-14.3-20.7-22.6-37.1-23.2C588.5,183.2,576.5,184.7,563.9,185.4z"/>
<path id="path4" d="M403,745.2c1.5,3.5,2.8,6.5,4.3,10c-12.8,6.1-25.9,9.7-39.5,11.7c-29.5,4.5-56.1-5.1-81.6-18.2
	c-24.7-12.6-46.6-29-65.6-49.4c-14.5-15.6-20.6-34.2-22.4-54.6c-5.7-61.3-1-121.6,17.8-180.6c9-28.3,26-51.8,45.4-73.6
	c68.3-76.7,146.3-141.2,237.2-189.6c5.2-2.8,10.5-5.2,16.3-8.1c1.6,3.3,3.1,6.4,4.9,10c-5.1,2.6-10,5-14.8,7.5
	c-50.6,25.9-96.5,58.8-140,95.2c-36.3,30.3-70,63.2-101,99c-27.1,31.3-42,67.5-49,107.6c-6.9,39.3-8.9,78.8-7.2,118.7
	c1.4,32.8,13.7,58.7,39.6,78.9c25.7,20.1,52.9,36.8,85.1,44.5c20.1,4.8,39.4,1.8,58.6-4.7C394.9,748.3,398.5,746.8,403,745.2z"/>
<path id="path5" d="M446,730.9c-2.4-2.7-3.9-4.3-5.3-5.9c-0.7-0.8-1.4-1.6-2.4-2.9c2.4-2.6,4.8-5.1,7-7.7
	c22.7-26.1,22.1-57-2.4-81.4c-12.4-12.3-26-23.3-38.9-35.1c-17-15.7-30.8-33.7-34.7-57.1c-5-30,5.1-55.2,27.6-75
	c10.8-9.6,24.4-11.2,38.3-7.8c21.6,5.3,36.9,19.2,49.2,36.7c1.2,1.8-0.6,5.7-1.1,9.2c-0.6-0.7-1-1.5-1.2-1.5
	c-6.5,1.8-8.4-3.6-11.4-7.2c-8.3-10.1-17.7-18.6-30.1-23.5c-19.7-7.9-36-3-47.7,14.8c-20.7,31.6-18.1,64,8.7,92.6
	c11.9,12.7,25.7,23.6,38.5,35.5c5.9,5.5,11.8,11.1,16.9,17.3c20.6,25.5,21.8,54.5,3.3,81.6C456.2,719.3,451.2,724.6,446,730.9z"/>
<path id="path6" d="M501.7,541.3c3.3-1.9,6.1-3.5,9.5-5.5c5.3,9.6,10.6,18.8,15.7,28.1c4.5,8.2,9.1,16.4,13.1,24.9
	c18.4,39,46.7,70.4,77,100.2c9.5,9.3,20.1,17.5,30.3,26c38,31.5,113.3,18.2,132.5-42.8c5.6-17.8,8.9-36.1,5.5-54.8
	c-2.7-14.6-11.1-26.4-20.1-37.7c-6.2-7.8-13-15.2-19.9-23.2c2.7-2.4,5.2-4.7,8-7.3c16.6,17.3,32.7,34.8,41,57.8
	c7.1,19.6,3.6,39.3-0.9,58.7c-14.2,62-71.9,86.3-123.5,73.5c-13.9-3.4-25.6-11.3-36.3-20.4C591.4,683,554,643.1,529.2,592.6
	C520.8,575.5,511.2,558.8,501.7,541.3z"/>
<path id="path7" d="M662.9,63.6c8.7,9.2,17.1,18.6,26,27.6c14,14.2,27.2,28.9,36.7,46.7c31.9,59.6,20.7,137-34.5,178.6
	c-33.4,25.1-47.9,60-59,97.6c-2.1,7.1-2.9,14.5-4.5,21.8c-2.4,10.7,1.1,19.7,8.7,26.7c7,6.4,14.7,12.3,22.9,17.3
	c12.3,7.5,25.2,14,37.8,21c2.6,1.5,4.9,3.4,7.8,5.4c-2.4,3.2-4.5,5.9-6.4,8.3c-18.3-10.3-36.2-20.2-53.9-30.5
	c-4.1-2.4-7.8-5.6-11.4-8.7c-14.3-12.3-19.9-27.2-16-46.2c6-29.6,16.6-57.3,30.9-83.7c8.6-16,22.7-26.5,36.3-37.3
	c54.1-42.9,62.2-121.4,24.2-176.4c-11.2-16.2-26.1-29.8-39.5-44.5c-4.7-5.2-9.6-10.1-14.9-15.7c3.3-2.8,6.2-5.3,9.1-7.8
	C663.1,63.8,662.9,63.6,662.9,63.6z"/>
<path id="path8" d="M482.2,61.6c-2.6-0.7-5.7-1.6-10.4-2.9c2.8-4.6,4.6-9,7.5-12.5c18.6-21.8,42.7-34.9,70-42.4
	C567-1,584.7-2,602,5.2c12.5,5.2,21.9,14,29,26.2c-3.2,1.9-6.1,3.7-8.9,5.5c-0.8-0.7-1.4-1-1.7-1.5C607.9,16,589.5,9.4,567.8,12
	c-29.1,3.4-54.1,16.2-75.2,36.4C488.7,52.1,485.9,56.9,482.2,61.6z"/>
<path id="path9" d="M466.6,87.1c4.1,0.9,7.2,1.5,9.3,1.9c0,23,0.5,45.2-0.1,67.4c-0.5,18.1-10.2,31.8-24.4,42.1
	c-19.5,14.2-41.7,20.4-65.5,21.7c-38.2,2.1-53.2-37.2-41.9-62.5c10.1-22.8,26.3-40.6,46.4-54.9c26-18.6,54.1-32.1,86.9-32.5
	c23.7-0.3,46.9,4.1,69.9,9.6c40.6,9.8,79.5,23.6,114.2,47.4c19.4,13.3,35.7,29.4,44.9,51.7c11,26.8,4.9,63.3-14.4,81.9
	c-4.8,4.6-10.8,7.8-17.1,12.3c-1.9-4.4-3.2-7.4-4.8-11.2c15.9-6.5,23.9-18.9,28-34.8c8.1-31.9-3.7-56.9-26.9-77.8
	c-22.2-20.1-48.7-32.9-76.5-43.3c-34.7-13-70.5-21.4-107.5-24.4c-24.7-2-47,5.5-68.3,16.8c-26.4,14-48.3,32.8-62.4,59.8
	c-5.5,10.6-6,21.3-1.4,32.2c5.1,12.1,14.6,18.7,27.6,18.5c23.2-0.4,44.9-6.3,63.7-20.6c12.8-9.7,19-22.6,18.6-39.1
	c-0.4-18.3,0.4-36.7,0.8-55C465.5,92.1,466.1,90.1,466.6,87.1z"/>
<path id="path10" d="M547.2,107.4c5.2,2.2,8.1,3.4,11.3,4.8c-3.4,10.4-7.2,20.4-10,30.6c-5.4,19.6-7.4,39.6-1,59.4
	c9.2,28.7,30.8,44.6,57.7,54.6c6.7,2.5,13.7,4.2,21.3,6.4c-0.7,3.3-1.5,6.6-2.4,10.5c-22.7-4.7-43.3-12.8-60.6-27.9
	c-27.5-24-35.5-54.8-29.3-89.5C537.1,140.1,542.6,124.4,547.2,107.4z"/>
</svg>
