<?xml version="1.0" encoding="utf-8"?>
<!-- Generator: Adobe Illustrator 23.0.3, SVG Export Plug-In . SVG Version: 6.00 Build 0)  -->
<svg version="1.1" id="Layer_1" xmlns="http://www.w3.org/2000/svg" xmlns:xlink="http://www.w3.org/1999/xlink" x="0px" y="0px"
	 viewBox="0 0 1024 768" style="enable-background:new 0 0 1024 768;" xml:space="preserve">
<path id="path1" d="M640.2,666.2c-2.5-3.2-4.5-5.9-6.9-9c6.6-5.4,12.6-11,19.3-15.6c23.9-16.8,40.1-39.8,53.5-65.1
	c48.4-91.8,82.9-188.5,101.5-290.6c7-38.4,10.4-77.1,6-116.1c-3.2-28.3-9.7-56-30.2-77.1C772.9,81.8,760,73.4,747.5,65
	c-25.4-16.9-51.8-32-81.5-40.1c-21.4-5.8-42.5-6.7-62,6.6c-3.9,2.7-7.5,6-11.6,9.3c-2.1-2.7-4.3-5.5-7-8.9
	c9.5-10.5,22.4-18.1,37.8-21.1c22.7-4.5,44.1,0.8,65,9c33.6,13.3,64.1,32.4,92.8,54c19.4,14.6,30.1,35.3,36.8,58.1
	c10.5,35.5,10.9,71.8,7.4,108.2c-8.8,91.4-35.7,178.1-71.3,262.2c-13.3,31.5-29.7,61.7-45,92.3C693.7,625.4,667.3,645.7,640.2,666.2
	z"/>
<path id="path2" d="M408.8,618.4c3.9,1.9,7.1,3.4,9.1,4.4c-4.8,16.4-10,32-13.6,47.9c-1.8,7.8-1.7,16.5-0.5,24.5
	c2.5,17.6,16.2,25.8,30.5,32.5c20,9.3,40.9,8,61.8,3.2c30.5-7,57.8-21.3,84.3-37.3c2.7-1.6,5.4-3.3,8.7-5.3c2.2,3.4,4.1,6.4,6.4,10
	c-40.3,24.3-80.5,47.3-129.1,47.8c-21.8,0.3-41.3-6.7-58.1-20.9c-9.3-7.9-15.2-17.6-16.7-29.7C388.5,668,397.7,643.3,408.8,618.4z"
	/>
<path id="path3" d="M435.6,571.5c13.6-15,25.9-29.1,38.7-42.7c59.9-64.1,112.8-133.3,153.4-211.4c14.3-27.4,26.5-55.9,29.9-87
	c1.4-12.5,1.2-25.9-1.9-38c-7.1-28.5-29.7-41.9-60.8-38.3c-6.8,0.8-13.5,2.1-21,3.3c-0.8-3.4-1.6-6.8-2.4-10.2
	c49.7-15.9,93.8,3.2,98.9,58.8c2.3,25.4-4.3,49.5-13,73c-17.3,46.9-43.1,89.2-71.3,130.1c-34.6,50.2-73.1,97.2-115.7,140.8
	c-8.8,9-16.4,19-25,29.1C442.7,576.9,439.8,574.6,435.6,571.5z"/>
<path id="path4" d="M522.9,164.1c1.7,3.6,3.1,6.5,5.1,10.5c-0.6,0.3-1.5,0.6-2.3,1c-50,24.2-94,57.2-136,93.2
	c-52.2,44.8-99.6,94.2-143.3,147.4c-40,48.8-52.8,105-49.8,165.9c1.1,21.1,5.1,42.1,8.7,63c3.1,18.5,13.4,33.3,26.8,46
	c29,27.5,61.9,48.2,101.3,57.6c20.6,4.9,40.4,1.6,60-4.9c3.9-1.3,7.7-2.8,12.4-4.6c1.5,3.2,3,6.3,5.2,10.9c-9.7,3.1-18.8,6.4-28.1,9
	c-24,6.8-47.6,4.2-70.7-4.1c-35.2-12.7-65.6-32.8-92.1-59.2c-18.5-18.4-26.2-41.3-30.3-66.1c-8.4-50.5-7.8-100.6,7.4-150
	c7.4-24,20.3-45,35.6-64.5c65.5-83.6,141.3-156.4,229.1-216.4c17.5-12,36.6-21.5,55-32.1C518.4,165.8,520.4,165.1,522.9,164.1z"/>
<path id="path5" d="M491.9,479.6c-1.1,3.3-2,6.2-3.1,9.2c-0.4-1.1-0.8-2.4-1.2-3.7c-1.4,0.7-2.8,1.4-4.3,2.2
	c-3-3.6-5.9-7.2-8.8-10.7c-8.1-9.9-17.8-17.6-29.8-22.5c-20.3-8.2-37.4-3-49.4,15.4c-21.8,33.3-18.9,66.9,9.4,96.9
	c12.1,12.8,26.2,23.5,38.8,35.8c9.4,9.3,19.1,18.7,26,29.8c16.2,25.7,11.4,57.7-10.7,82.9c-2.5,2.9-5.3,5.6-8.1,8.6
	c-2.7-2.9-5.2-5.5-7.9-8.4c3-3.4,6.1-6.7,8.9-10.2c22-27.7,20.7-57.6-4.3-82.6c-12.9-12.9-27.3-24.4-40.7-36.8
	C389.4,569.5,375.2,551,371,527c-5.6-31.5,5-57.8,28.4-78.7c12.4-11.1,27.7-12,43.4-7.4C464.5,447.3,479.6,462,491.9,479.6z"/>
<path id="path6" d="M509,527c2.2-1.4,4.1-2.6,6-3.7c1.2-0.7,2.4-1.2,4.2-2c8.6,15.9,17.7,31.3,25.4,47.3
	c26.3,54.6,66.4,97.3,111.7,136.4c44.5,38.3,130.9,21.6,146.5-55.4c6.6-32.8,1.1-61.1-21.7-85.8c-5.1-5.5-10.1-11.3-15.1-16.9
	c-1.1-1.2-2.1-2.4-3.3-3.8c2.6-2.8,5.1-5.3,8.1-8.5c20.3,22.1,43.2,42.9,45.8,73.7c8,94.6-60,141.3-132,124.8
	c-14.8-3.4-27-12.2-38.6-21.6c-32.8-26.5-60.6-57.6-85.6-91.4c-3.4-4.6-6.4-9.5-9.1-14.5C537.2,579.6,523.3,553.7,509,527z"/>
<path id="path7" d="M721.1,489.6c-3.2,4-5.4,6.8-7.3,9.3c-35.8-25.9-71-51.4-106.5-77.1c2.1-2.9,4.1-5.9,6.8-9.7
	C650,438.1,685.4,463.7,721.1,489.6z"/>
<path id="path8" d="M408.9,288.5c3.2-4.2,5.3-7.1,7.1-9.4c49.1,33.5,97.7,66.7,146.8,100.3c-2,3-4,5.9-6.6,9.8
	C507,355.5,458.1,322.1,408.9,288.5z"/>
<path id="path9" d="M687.9,245.7c-1.2-3-2.5-6.1-3.9-9.8c24-10.5,30.4-31.4,31.5-54.4c1.3-26-11.8-45.9-30.2-62.7
	c-20.4-18.6-44.5-31.1-69.9-41.3C579,62.7,541.2,53.5,502.2,48.8c-28.4-3.5-54,3.3-78.2,17.2c-31.8,18.3-57.7,42.6-73.6,76.2
	c-9,19.1-13,39.3-7.4,60c2.4,8.9,8.4,17,13.5,24.9c3.1,4.7,7.6,8.5,12.1,13.3c-2.4,2.5-4.8,5.1-7.7,8.2
	c-17.7-15.8-31.1-33.2-32-58.2c-1.1-29.5,8.6-55.3,25.7-78.6c24.2-32.9,55.7-56.3,94.4-70c22.1-7.8,44.6-6.6,67.1-3.3
	c47.1,7,92.4,20,134.7,42.3c24.3,12.8,46.4,28.5,62.1,51.7c19.5,28.7,19.3,69.5-0.5,96.1C705.9,237.4,696.7,243.9,687.9,245.7z"/>
<path id="path10" d="M558.2,75.8c3.5,1.4,6.6,2.7,9.8,4.1c-3.7,11.4-7.8,22.2-10.8,33.4c-6.3,23.9-7.7,47.9,3.6,70.9
	c13.1,26.8,36.6,40.4,63.9,48.9c4.3,1.4,8.8,2.4,14,3.8c-0.7,3.7-1.5,7.3-2.3,11.5c-36.9-8.6-68.2-23.8-86.2-58.7
	c-6.6-12.8-9.1-26.8-9.6-41C540,128.1,547.9,95.5,558.2,75.8z"/>
</svg>
