<?xml version="1.0" encoding="utf-8"?>
<!-- Generator: Adobe Illustrator 23.0.3, SVG Export Plug-In . SVG Version: 6.00 Build 0)  -->
<svg version="1.1" id="Layer_1" xmlns="http://www.w3.org/2000/svg" xmlns:xlink="http://www.w3.org/1999/xlink" x="0px" y="0px"
	 viewBox="0 0 1024 768" style="enable-background:new 0 0 1024 768;" xml:space="preserve">
<path id="path1" d="M699.4,236.1c-0.8,3.2-1.6,6.5-2.3,9.7c-42.5-6.7-87.5-34.5-95.4-84.1c-3.3-20.9-0.7-41.3,5.4-61.4
	c6.8-22.5,15-44.8,30.2-62.8C666,3.4,704.4-5.8,746.4,3.3C805.5,16.1,842,54.9,861,111c12.4,36.5,15.3,74.5,13.6,112.7
	c-5.8,125.4-40.7,243-94.4,355.8c-17.4,36.5-43.4,64.5-75.6,87.7c-33.4,24.1-66.5,48.7-104.7,65.3c-24.1,10.5-48.8,18.5-75.4,18.3
	c-21.7-0.2-41.2-6.8-58-21c-11.3-9.5-17-21.3-17.7-36c-1.2-25.7,7-49,17.8-72.4c3.7,1.7,6.8,3.1,9.5,4.4
	c-4.6,14.6-9.4,28.6-13.3,42.9c-12.6,46.7,20.6,66.9,57.6,69.7c26.4,2,50.9-6.5,74.7-17c40.3-17.7,74.7-44.6,110.3-69.9
	c34.6-24.5,55.9-58.3,73-95.8c39.1-85.9,66.1-175.5,79.1-269c7.1-51.3,9.2-102.9-2.7-154C843,82.7,816.8,43.2,768.2,22.5
	c-39-16.6-77.2-15.1-112,12.3c-12.6,9.9-19.2,24-25.8,37.9c-11.9,25.3-20.3,51.6-17.8,80c3,33.3,21.7,55.9,51.1,69.9
	C674.8,227.9,686.9,231.4,699.4,236.1z"/>
<path id="path2" d="M633.7,154.5c-1-4.1-1.7-7.2-2.4-10.2c51.6-17.1,95.5,4.6,100.1,59.5c2.7,31.9-7.2,61.5-19.6,90.3
	c-26.9,62.5-64.7,118.5-107.2,171.2c-26,32.3-54.5,62.5-81.9,93.7c-6.3,7.2-12.3,14.7-18.9,22.7c-2.9-2.1-5.8-4.2-9.9-7.2
	c10.4-12,20-24.1,30.6-35.1c58.8-61,110.3-127.5,152.2-201.2c18.7-32.9,35.2-66.9,41.1-104.8c1.9-11.9,2.3-24.6,0.5-36.4
	c-5.4-34.1-31-50.7-67.4-45.2C645.4,152.4,640,153.4,633.7,154.5z"/>
<path id="path3" d="M582,161.3c1.7,3.4,3.1,6.4,4.6,9.4c-0.7,0.9-1,1.7-1.7,2c-71.5,34.7-134.1,82.2-193.6,134
	c-33.4,29-64.5,60.2-93.7,93.6c-26.3,30-41.9,64.3-46.3,103.9c-5.4,48.6-2.6,96.6,9,144.2c4.2,17.1,12.2,31.6,24.6,43.9
	c27,26.9,58.4,46.8,94.8,58.5c23.5,7.5,46.6,6.1,69.7-1.8c4.5-1.6,9-3.2,14.4-5.2c1.5,3.3,3,6.6,4.7,10.6
	c-25.6,11.2-51.7,17.5-79.2,11.1c-48.4-11.3-88.3-37.1-121.2-74.1c-12.1-13.6-17.6-30.3-21.2-47.5c-10.5-49.9-13.5-100-5.8-150.7
	c5.5-36.5,20.5-68.3,44.3-96.5c45.9-54.4,98.4-101.6,154.4-145.3c42.2-32.9,86.4-63,134.6-86.6C576.5,163.7,579,162.7,582,161.3z"/>
<path id="path4" d="M508.7,728.3c-2.6-2.9-4.8-5.4-7.6-8.5c2.9-3.4,5.8-6.8,8.6-10.2c22.7-28,21.5-59.2-4.1-84.4
	c-12.9-12.7-27-24.1-40.3-36.3c-18.3-16.9-33.3-36.2-37.3-61.6c-5-31.5,5.9-57.7,29.4-78.4c11.8-10.4,26.5-11.6,41.5-7.7
	c23,5.9,38.8,21.2,52.1,39.9c-1.1,2.6-2.2,5.1-3.2,7.5c-10.9-0.6-13-12.2-20.5-17.1c-9.9-6.5-19.6-13.8-30.5-18.1
	c-15.2-6-28.7-0.7-39.3,11.6c-23.4,27.1-25.5,63.8-3.6,92.6c9.6,12.6,21.7,23.3,33.1,34.4c8.9,8.7,18.9,16.4,27.7,25.3
	c29.7,30.1,30.8,69.7,3,101.8C515,722,512.1,724.7,508.7,728.3z"/>
<path id="path5" d="M575,535c3.4-4.7,5.4-7.4,7.7-10.4c26.7,14.7,49.1,1.4,70.5-12c34.1-21.4,62.3-49.7,87.1-81.3
	c10.9-13.8,14.1-30.8,17.7-47.4c6.8-31.8,11.3-63.9,7.2-96.6c-1.4-11-2.8-22-12.5-30c-2-1.7-0.7-7.5-1-12.5
	c15.6,4.8,21.3,16.2,22.8,28.5c2.4,19.2,4.5,38.8,2.8,57.9c-2.2,25-7.6,49.8-12.5,74.5c-3.6,17.9-13.6,32.6-25.7,46.1
	c-26.6,29.7-54.8,57.3-89.8,77c-15.7,8.8-32.2,15.8-50.8,13.3C591,541.2,583.7,537.7,575,535z"/>
</svg>
