<?xml version="1.0" encoding="utf-8"?>
<!-- Generator: Adobe Illustrator 23.0.3, SVG Export Plug-In . SVG Version: 6.00 Build 0)  -->
<svg version="1.1" id="Layer_1" xmlns="http://www.w3.org/2000/svg" xmlns:xlink="http://www.w3.org/1999/xlink" x="0px" y="0px"
	 viewBox="0 0 395 206" style="enable-background:new 0 0 395 206;" xml:space="preserve">
<path id="blue1" d="M98.4,0.7c0-0.7-0.1-0.7-0.8-0.7c-1.6,1.6-3.9,1.6-4.9,1.6v0.9c0.6,0,2.3,0,3.6-0.7v12.8c0,0.8,0,1.2-2.5,1.2h-1
	v0.9c0.5,0,3.5-0.1,4.5-0.1c0.8,0,3.9,0.1,4.5,0.1v-0.9h-1c-2.5,0-2.5-0.3-2.5-1.2V0.7"/>
<path id="blue2" d="M184.4,12.1h-0.9c-0.1,0.6-0.3,2-0.7,2.3c-0.2,0.2-2.1,0.2-2.5,0.2h-4.6c2.6-2.3,3.5-3,5-4.2
	c1.9-1.5,3.6-3,3.6-5.4c0-3-2.7-4.9-5.9-4.9c-3.1,0-5.2,2.2-5.2,4.5c0,1.3,1.1,1.4,1.3,1.4c0.6,0,1.3-0.4,1.3-1.3
	c0-0.4-0.2-1.3-1.5-1.3c0.8-1.8,2.5-2.3,3.7-2.3c2.5,0,3.8,2,3.8,4c0,2.2-1.6,3.9-2.4,4.8l-6,6c-0.2,0.2-0.2,0.3-0.2,1h10.3
	L184.4,12.1"/>
<path id="blue3" d="M260.3,8.3c2,0,3.4,1.4,3.4,4c0,3.1-1.8,4-3.3,4c-1,0-3.2-0.3-4.3-1.8c1.2-0.1,1.5-0.9,1.5-1.4
	c0-0.8-0.6-1.4-1.4-1.4c-0.7,0-1.4,0.4-1.4,1.5c0,2.4,2.6,3.9,5.6,3.9c3.5,0,5.9-2.3,5.9-4.8c0-2-1.6-3.9-4.4-4.5
	c2.6-1,3.6-2.8,3.6-4.4c0-2-2.3-3.5-5.1-3.5c-2.8,0-4.9,1.4-4.9,3.4c0,0.9,0.6,1.3,1.3,1.3c0.8,0,1.3-0.6,1.3-1.3
	c0-0.7-0.5-1.3-1.3-1.3c0.9-1.1,2.6-1.4,3.5-1.4c1.1,0,2.7,0.6,2.7,2.7c0,1.1-0.4,2.2-1,3c-0.8,1-1.5,1-2.8,1.1
	c-0.6,0.1-0.7,0.1-0.8,0.1c-0.1,0-0.2,0-0.2,0.3c0,0.4,0.2,0.4,0.7,0.4H260.3"/>
<path id="blue4" d="M348.4,12.6v-0.9h-2.8V0.5c0-0.5,0-0.7-0.6-0.7c-0.3,0-0.4,0-0.6,0.4l-8.3,11.5v0.9h7.4v2.1c0,0.9,0,1.2-2,1.2
	h-0.7v0.9c1.3-0.1,2.9-0.1,3.8-0.1c0.9,0,2.5,0.1,3.8,0.1v-0.9h-0.7c-2,0-2-0.3-2-1.2v-2.1H348.4z M343.6,2.5v9.2H337L343.6,2.5z"/>
<path id="red1" d="M9.2,46.9c0-0.7,0-0.7-0.8-0.7c-1.6,1.6-3.9,1.6-4.9,1.6v0.9c0.6,0,2.3,0,3.6-0.7v12.8c0,0.8,0,1.2-2.5,1.2h-1
	v0.9c0.4,0,3.5-0.1,4.5-0.1c0.8,0,3.9,0.1,4.5,0.1V62h-1c-2.5,0-2.5-0.3-2.5-1.2V46.9"/>
<path id="red2" d="M13.5,101.3h-0.9c-0.1,0.6-0.3,2-0.7,2.3c-0.2,0.2-2.1,0.2-2.5,0.2H4.9c2.6-2.3,3.5-3,5-4.2
	c1.9-1.5,3.6-3,3.6-5.4c0-3-2.7-4.9-5.9-4.9c-3.1,0-5.2,2.2-5.2,4.5c0,1.3,1.1,1.4,1.3,1.4c0.6,0,1.3-0.4,1.3-1.3
	c0-0.4-0.2-1.3-1.5-1.3c0.8-1.8,2.5-2.3,3.7-2.3c2.5,0,3.8,2,3.8,4c0,2.2-1.6,3.9-2.4,4.8l-6,6c-0.2,0.2-0.2,0.3-0.2,1h10.3
	L13.5,101.3"/>
<path id="red3" d="M7.7,140.5c2,0,3.4,1.4,3.4,4c0,3.1-1.8,4-3.3,4c-1,0-3.2-0.3-4.3-1.8c1.2-0.1,1.5-0.9,1.5-1.4
	c0-0.8-0.6-1.4-1.4-1.4c-0.7,0-1.4,0.4-1.4,1.5c0,2.4,2.6,3.9,5.6,3.9c3.5,0,5.9-2.3,5.9-4.8c0-2-1.6-3.9-4.4-4.5
	c2.6-1,3.6-2.8,3.6-4.4c0-2-2.3-3.5-5.1-3.5S3,133.6,3,135.6c0,0.9,0.6,1.3,1.3,1.3c0.8,0,1.3-0.6,1.3-1.3c0-0.7-0.5-1.2-1.3-1.3
	c0.9-1.1,2.6-1.4,3.5-1.4c1.1,0,2.7,0.6,2.7,2.7c0,1.1-0.4,2.2-1,3c-0.8,1-1.5,1-2.8,1.1c-0.6,0.1-0.7,0.1-0.8,0.1
	c-0.1,0-0.2,0-0.2,0.3c0,0.4,0.2,0.4,0.7,0.4H7.7"/>
<path id="red4" d="M14.1,187.9V187h-2.8v-11.2c0-0.5,0-0.7-0.6-0.7c-0.3,0-0.4,0-0.7,0.4L1.8,187v0.9h7.4v2.1c0,0.9,0,1.2-2,1.2H6.5
	v0.9c1.3-0.1,2.9-0.1,3.8-0.1c0.9,0,2.5,0.1,3.8,0.1v-0.9h-0.7c-2,0-2-0.3-2-1.2v-2.1H14.1z M9.3,177.8v9.2H2.7L9.3,177.8z"/>
<polygon points="46.6,140.3 46.6,118.9 46.6,118.7 46.6,97.4 46.6,97.2 46.6,35.3 56.1,35.3 56.1,32.8 44.1,32.8 44.1,97.2 
	44.1,97.4 44.1,118.7 44.1,118.9 44.1,140.3 44.1,140.4 44.1,205 56.1,205 56.1,202.5 46.6,202.5 46.6,140.4 "/>
<polygon points="383.4,32.8 383.4,35.3 392.9,35.3 392.9,97.2 392.9,97.4 392.9,118.7 392.9,118.9 392.9,140.3 392.9,140.4 
	392.9,202.5 383.4,202.5 383.4,205 395.3,205 395.3,140.4 395.3,140.3 395.3,118.9 395.3,118.7 395.3,97.4 395.3,97.2 395.3,32.8 
	"/>
<path id="r1c3" d="M256.2,60.1l3.8-3.7c5.6-5,7.8-6.9,7.8-10.5c0-4.1-3.2-7-7.6-7c-4.1,0-6.7,3.3-6.7,6.5c0,2,1.8,2,1.9,2
	c0.6,0,1.9-0.4,1.9-1.9c0-0.9-0.6-1.9-1.9-1.9c-0.3,0-0.4,0-0.5,0c0.8-2.3,2.8-3.7,4.8-3.7c3.3,0,4.8,2.9,4.8,5.9
	c0,2.9-1.8,5.7-3.8,7.9l-6.9,7.7c-0.4,0.4-0.4,0.5-0.4,1.3h13.3l1-6.2h-0.9c-0.2,1.1-0.4,2.7-0.8,3.2c-0.3,0.3-2.6,0.3-3.4,0.3
	H256.2"/>
<path id="r1c1" d="M97.9,54.6c0.6,0,1.3,0,1.3-0.7c0-0.7-0.6-0.7-1.3-0.7H78.5c-0.6,0-1.3,0-1.3,0.7c0,0.7,0.6,0.7,1.3,0.7H97.9
	 M112.7,39.9c0-0.9,0-0.9-0.8-0.9c-2.2,2.3-5.4,2.3-6.5,2.3v1.1c0.7,0,2.8,0,4.7-0.9V60c0,1.3-0.1,1.7-3.3,1.7h-1.1v1.1
	c1.3-0.1,4.4-0.1,5.8-0.1c1.4,0,4.6,0,5.8,0.1v-1.1H116c-3.2,0-3.3-0.4-3.3-1.7V39.9"/>
<path id="r1c2" d="M179.6,54.6c0.6,0,1.3,0,1.3-0.7c0-0.7-0.6-0.7-1.3-0.7h-19.4c-0.6,0-1.3,0-1.3,0.7c0,0.7,0.6,0.7,1.3,0.7H179.6
	 M194.4,39.9c0-0.9,0-0.9-0.8-0.9c-2.2,2.3-5.4,2.3-6.5,2.3v1.1c0.7,0,2.8,0,4.7-0.9V60c0,1.3-0.1,1.7-3.3,1.7h-1.1v1.1
	c1.3-0.1,4.4-0.1,5.8-0.1s4.6,0,5.8,0.1v-1.1h-1.1c-3.2,0-3.3-0.4-3.3-1.7V39.9"/>
<path id="r1c4" d="M349.8,51.4c0-2.9-0.2-5.7-1.4-8.4c-1.7-3.4-4.6-4-6.1-4c-2.2,0-4.8,0.9-6.2,4.3c-1.2,2.5-1.3,5.3-1.3,8.2
	c0,2.7,0.1,5.9,1.6,8.7c1.5,2.9,4.2,3.6,5.9,3.6c1.9,0,4.7-0.8,6.2-4.2C349.7,57,349.8,54.2,349.8,51.4z M342.3,62.9
	c-1.4,0-3.5-0.9-4.2-4.3c-0.4-2.2-0.4-5.5-0.4-7.6c0-2.3,0-4.7,0.3-6.6c0.7-4.3,3.4-4.6,4.3-4.6c1.2,0,3.6,0.6,4.2,4.2
	c0.4,2,0.4,4.7,0.4,7c0,2.7,0,5.1-0.4,7.4C345.9,61.8,343.9,62.9,342.3,62.9"/>
<path id="r2c2" d="M174.5,103.1l3.8-3.7c5.6-5,7.8-6.9,7.8-10.5c0-4.1-3.2-7-7.6-7c-4.1,0-6.7,3.3-6.7,6.5c0,2,1.8,2,1.9,2
	c0.6,0,1.9-0.4,1.9-1.9c0-0.9-0.6-1.9-1.9-1.9c-0.3,0-0.4,0-0.5,0c0.8-2.3,2.8-3.7,4.8-3.7c3.3,0,4.8,2.9,4.8,5.9
	c0,2.9-1.8,5.7-3.8,7.9l-6.9,7.7c-0.4,0.4-0.4,0.5-0.4,1.3H185l1-6.2h-0.9c-0.2,1.1-0.4,2.7-0.8,3.2c-0.3,0.3-2.6,0.3-3.4,0.3H174.5
	"/>
<path id="r2c1" d="M97.9,97.6c0.6,0,1.3,0,1.3-0.7c0-0.7-0.6-0.7-1.3-0.7H78.5c-0.6,0-1.3,0-1.3,0.7c0,0.7,0.6,0.7,1.3,0.7H97.9
	 M112.7,82.9c0-0.9,0-0.9-0.8-0.9c-2.2,2.3-5.4,2.3-6.5,2.3v1.1c0.7,0,2.8,0,4.7-0.9V103c0,1.3-0.1,1.7-3.3,1.7h-1.1v1.1
	c1.3-0.1,4.4-0.1,5.8-0.1c1.4,0,4.6,0,5.8,0.1v-1.1H116c-3.2,0-3.3-0.4-3.3-1.7V82.9"/>
<path id="r2c4" d="M343,97.6c0.6,0,1.3,0,1.3-0.7c0-0.7-0.6-0.7-1.3-0.7h-19.4c-0.6,0-1.3,0-1.3,0.7c0,0.7,0.6,0.7,1.3,0.7H343
	 M357.8,82.9c0-0.9,0-0.9-0.8-0.9c-2.2,2.3-5.4,2.3-6.5,2.3v1.1c0.7,0,2.8,0,4.7-0.9V103c0,1.3-0.1,1.7-3.3,1.7h-1.1v1.1
	c1.3-0.1,4.4-0.1,5.8-0.1c1.4,0,4.6,0,5.8,0.1v-1.1h-1.2c-3.2,0-3.3-0.4-3.3-1.7V82.9"/>
<path id="r2c3" d="M268.1,94.4c0-2.9-0.2-5.7-1.4-8.4c-1.7-3.4-4.6-4-6.1-4c-2.2,0-4.8,0.9-6.2,4.3c-1.2,2.5-1.3,5.3-1.3,8.2
	c0,2.7,0.1,5.9,1.6,8.7c1.5,2.9,4.2,3.6,5.9,3.6c1.9,0,4.7-0.8,6.2-4.2C268,100,268.1,97.2,268.1,94.4z M260.6,105.9
	c-1.4,0-3.5-0.9-4.2-4.3c-0.4-2.2-0.4-5.5-0.4-7.6c0-2.3,0-4.7,0.3-6.6c0.7-4.3,3.4-4.6,4.3-4.6c1.2,0,3.6,0.6,4.2,4.2
	c0.4,2,0.4,4.7,0.4,7c0,2.7,0,5.1-0.4,7.4C264.2,104.8,262.2,105.9,260.6,105.9"/>
<path id="r3c4" d="M337.9,146.1l3.8-3.7c5.6-5,7.8-6.9,7.8-10.5c0-4.1-3.2-7-7.6-7c-4.1,0-6.7,3.3-6.7,6.5c0,2,1.8,2,1.9,2
	c0.6,0,1.9-0.4,1.9-1.9c0-0.9-0.6-1.9-1.9-1.9c-0.3,0-0.4,0-0.5,0c0.8-2.3,2.8-3.7,4.8-3.7c3.3,0,4.8,2.9,4.8,5.9
	c0,2.9-1.8,5.7-3.8,7.9l-6.9,7.7c-0.4,0.4-0.4,0.5-0.4,1.3h13.3l1-6.2h-0.9c-0.2,1.1-0.4,2.7-0.8,3.2c-0.3,0.3-2.6,0.3-3.4,0.3
	H337.9"/>
<path id="r3c2" d="M179.6,140.6c0.6,0,1.3,0,1.3-0.7c0-0.7-0.6-0.7-1.3-0.7h-19.4c-0.6,0-1.3,0-1.3,0.7c0,0.7,0.6,0.7,1.3,0.7H179.6
	 M194.4,125.9c0-0.9,0-0.9-0.8-0.9c-2.2,2.3-5.4,2.3-6.5,2.3v1.1c0.7,0,2.8,0,4.7-0.9V146c0,1.3-0.1,1.7-3.3,1.7h-1.1v1.1
	c1.3-0.1,4.4-0.1,5.8-0.1s4.6,0,5.8,0.1v-1.1h-1.1c-3.2,0-3.3-0.4-3.3-1.7V125.9"/>
<path id="r3c3" d="M261.3,140.6c0.6,0,1.3,0,1.3-0.7c0-0.7-0.6-0.7-1.3-0.7h-19.4c-0.6,0-1.3,0-1.3,0.7c0,0.7,0.6,0.7,1.3,0.7H261.3
	 M276.1,125.9c0-0.9,0-0.9-0.8-0.9c-2.2,2.3-5.4,2.3-6.5,2.3v1.1c0.7,0,2.8,0,4.7-0.9V146c0,1.3-0.1,1.7-3.3,1.7h-1.1v1.1
	c1.3-0.1,4.4-0.1,5.8-0.1s4.6,0,5.8,0.1v-1.1h-1.1c-3.2,0-3.3-0.4-3.3-1.7V125.9"/>
<path id="r3c1" d="M104.7,137.4c0-2.9-0.2-5.7-1.4-8.4c-1.7-3.4-4.6-4-6.1-4c-2.2,0-4.8,0.9-6.2,4.3c-1.1,2.5-1.3,5.3-1.3,8.2
	c0,2.7,0.1,5.9,1.6,8.7c1.5,2.9,4.2,3.6,5.9,3.6c1.9,0,4.7-0.8,6.2-4.2C104.6,143,104.7,140.2,104.7,137.4z M97.2,148.9
	c-1.4,0-3.5-0.9-4.2-4.3c-0.4-2.2-0.4-5.5-0.4-7.6c0-2.3,0-4.7,0.3-6.6c0.7-4.3,3.4-4.6,4.3-4.6c1.2,0,3.6,0.6,4.2,4.2
	c0.4,2,0.4,4.7,0.4,7c0,2.7,0,5.1-0.4,7.4C100.8,147.8,98.8,148.9,97.2,148.9"/>
<path id="r4c1" d="M92.8,189.2l3.8-3.7c5.6-5,7.8-6.9,7.8-10.5c0-4.1-3.2-7-7.6-7c-4.1,0-6.7,3.3-6.7,6.5c0,2,1.8,2,1.9,2
	c0.6,0,1.9-0.4,1.9-1.9c0-0.9-0.6-1.9-1.9-1.9c-0.3,0-0.4,0-0.5,0c0.8-2.3,2.8-3.7,4.8-3.7c3.3,0,4.8,2.9,4.8,5.9
	c0,2.9-1.8,5.7-3.8,7.9l-6.9,7.7C90,191,90,191.1,90,192h13.3l1-6.2h-0.9c-0.2,1.1-0.4,2.7-0.8,3.2c-0.2,0.3-2.6,0.3-3.4,0.3H92.8"
	/>
<path id="r4c3" d="M261.3,183.7c0.6,0,1.3,0,1.3-0.7s-0.6-0.7-1.3-0.7h-19.4c-0.6,0-1.3,0-1.3,0.7s0.6,0.7,1.3,0.7H261.3 M276.1,169
	c0-0.9,0-0.9-0.8-0.9c-2.2,2.3-5.4,2.3-6.5,2.3v1.1c0.7,0,2.8,0,4.7-0.9v18.6c0,1.3-0.1,1.7-3.3,1.7h-1.1v1.1
	c1.3-0.1,4.4-0.1,5.8-0.1s4.6,0,5.8,0.1v-1.1h-1.1c-3.2,0-3.3-0.4-3.3-1.7V169"/>
<path id="r4c4" d="M343,183.7c0.6,0,1.3,0,1.3-0.7s-0.6-0.7-1.3-0.7h-19.4c-0.6,0-1.3,0-1.3,0.7s0.6,0.7,1.3,0.7H343 M357.8,169
	c0-0.9,0-0.9-0.8-0.9c-2.2,2.3-5.4,2.3-6.5,2.3v1.1c0.7,0,2.8,0,4.7-0.9v18.6c0,1.3-0.1,1.7-3.3,1.7h-1.1v1.1
	c1.3-0.1,4.4-0.1,5.8-0.1c1.4,0,4.6,0,5.8,0.1v-1.1h-1.2c-3.2,0-3.3-0.4-3.3-1.7V169"/>
<path id="r4c2" d="M186.4,180.5c0-2.9-0.2-5.8-1.4-8.4c-1.7-3.4-4.6-4-6.1-4c-2.2,0-4.8,0.9-6.2,4.3c-1.1,2.5-1.3,5.3-1.3,8.2
	c0,2.7,0.1,5.9,1.6,8.7c1.5,2.9,4.2,3.6,5.9,3.6c1.9,0,4.7-0.8,6.2-4.2C186.3,186.1,186.4,183.3,186.4,180.5z M178.9,192
	c-1.4,0-3.5-0.9-4.2-4.3c-0.4-2.2-0.4-5.5-0.4-7.6c0-2.3,0-4.7,0.3-6.6c0.7-4.3,3.4-4.6,4.3-4.6c1.2,0,3.6,0.6,4.2,4.2
	c0.4,2,0.4,4.7,0.4,7c0,2.7,0,5.1-0.4,7.4C182.5,190.9,180.5,192,178.9,192"/>
<rect x="69.5" y="179.3" width="307.1" height="6"/>
<rect x="258.2" y="113.8" transform="matrix(1.204340e-02 -0.9999 0.9999 1.204340e-02 221.3057 457.6337)" width="168.1" height="6"/>
</svg>
