<?xml version="1.0" encoding="utf-8"?>
<!-- Generator: Adobe Illustrator 23.0.3, SVG Export Plug-In . SVG Version: 6.00 Build 0)  -->
<svg version="1.1" id="Layer_1" xmlns="http://www.w3.org/2000/svg" xmlns:xlink="http://www.w3.org/1999/xlink" x="0px" y="0px"
	 viewBox="0 0 442 216" style="enable-background:new 0 0 442 216;" xml:space="preserve">
<path d="M150.6-12.1c0-0.9-0.1-0.9-1-0.9c-2.1,2-5,2.1-6.3,2.1v1.1c0.8,0,2.9,0,4.7-0.9V5.7c0,1.1,0,1.5-3.2,1.5h-1.2v1.2
	c0.6,0,4.5-0.1,5.7-0.1c1,0,5,0.1,5.7,0.1V7.1h-1.2c-3.2,0-3.2-0.4-3.2-1.5V-12.1 M260.7,2.5h-1.1c-0.1,0.7-0.4,2.6-0.8,2.9
	c-0.3,0.2-2.7,0.2-3.2,0.2h-5.9c3.4-3,4.5-3.9,6.4-5.4c2.4-1.9,4.6-3.9,4.6-6.9c0-3.9-3.4-6.3-7.5-6.3c-4,0-6.7,2.8-6.7,5.7
	c0,1.6,1.4,1.8,1.7,1.8c0.8,0,1.7-0.5,1.7-1.7c0-0.6-0.2-1.7-1.9-1.7c1-2.3,3.2-3,4.7-3c3.2,0,4.9,2.5,4.9,5.1c0,2.8-2,5-3,6.2
	L246.8,7c-0.3,0.3-0.3,0.4-0.3,1.2h13.2L260.7,2.5 M357.8-2.4c2.5,0,4.3,1.7,4.3,5.2c0,4-2.3,5.2-4.2,5.2c-1.3,0-4.1-0.3-5.5-2.2
	c1.5-0.1,1.9-1.1,1.9-1.8c0-1-0.8-1.8-1.8-1.8c-0.9,0-1.8,0.5-1.8,1.9c0,3,3.3,5,7.2,5c4.5,0,7.5-3,7.5-6.2c0-2.5-2.1-5-5.6-5.7
	c3.4-1.2,4.6-3.6,4.6-5.6c0-2.5-2.9-4.4-6.5-4.4c-3.6,0-6.3,1.7-6.3,4.3c0,1.1,0.7,1.7,1.7,1.7c1,0,1.6-0.7,1.6-1.6
	c0-0.9-0.6-1.6-1.6-1.7c1.1-1.4,3.3-1.8,4.5-1.8c1.4,0,3.5,0.7,3.5,3.5c0,1.3-0.5,2.8-1.3,3.8c-1.1,1.2-2,1.3-3.6,1.4
	c-0.8,0.1-0.9,0.1-1,0.1c-0.1,0-0.3,0.1-0.3,0.4c0,0.4,0.3,0.4,0.8,0.4H357.8"/>
<path d="M36.6,47c0-0.9-0.1-0.9-1-0.9c-2.1,2-5,2.1-6.3,2.1v1.2c0.8,0,2.9,0,4.6-0.9v16.4c0,1.1,0,1.5-3.2,1.5h-1.2v1.1
	c0.6,0,4.5-0.1,5.7-0.1c1,0,5,0.1,5.7,0.1v-1.1h-1.2c-3.2,0-3.2-0.4-3.2-1.5V47 M42,116.6h-1.1c-0.1,0.7-0.4,2.6-0.8,2.9
	c-0.3,0.2-2.7,0.2-3.2,0.2H31c3.4-3,4.5-3.9,6.4-5.4c2.4-1.9,4.6-3.9,4.6-6.9c0-3.9-3.4-6.3-7.5-6.3c-4,0-6.7,2.8-6.7,5.7
	c0,1.6,1.4,1.8,1.7,1.8c0.8,0,1.7-0.5,1.7-1.7c0-0.6-0.2-1.7-1.9-1.7c1-2.3,3.2-3,4.7-3c3.2,0,4.9,2.5,4.9,5.1c0,2.8-2,5-3,6.2
	l-7.7,7.6c-0.3,0.3-0.3,0.4-0.3,1.2h13.2L42,116.6 M34.6,166.8c2.5,0,4.3,1.7,4.3,5.2c0,4-2.3,5.2-4.2,5.2c-1.3,0-4.1-0.4-5.5-2.2
	c1.5-0.1,1.9-1.1,1.9-1.8c0-1-0.8-1.8-1.8-1.8c-0.9,0-1.8,0.5-1.8,1.9c0,3,3.3,5,7.2,5c4.5,0,7.5-3,7.5-6.2c0-2.5-2.1-5-5.6-5.7
	c3.4-1.2,4.6-3.6,4.6-5.6c0-2.5-2.9-4.4-6.5-4.4c-3.6,0-6.3,1.7-6.3,4.3c0,1.1,0.7,1.7,1.7,1.7c1,0,1.6-0.7,1.6-1.6
	c0-0.9-0.6-1.6-1.6-1.7c1.1-1.4,3.3-1.8,4.5-1.8c1.4,0,3.5,0.7,3.5,3.5c0,1.3-0.5,2.8-1.3,3.8c-1.1,1.2-2,1.3-3.6,1.4
	c-0.8,0.1-0.9,0.1-1,0.1c-0.1,0-0.3,0.1-0.3,0.4c0,0.4,0.3,0.4,0.8,0.4H34.6"/>
<polygon points="84.3,111.4 84.3,32.1 96.4,32.1 96.4,28.9 81.1,28.9 81.1,111.4 81.1,111.6 81.1,194.1 96.4,194.1 96.4,190.9 
	84.3,190.9 84.3,111.6 "/>
<polygon points="410.8,28.9 410.8,32.1 422.9,32.1 422.9,111.4 422.9,111.6 422.9,190.9 410.8,190.9 410.8,194.1 426.1,194.1 
	426.1,111.6 426.1,111.4 426.1,28.9 "/>
<path d="M150.1,56.9c0.8,0,1.6,0,1.6-0.9s-0.8-0.9-1.6-0.9h-24.9c-0.8,0-1.6,0-1.6,0.9s0.8,0.9,1.6,0.9H150.1 M169,38
	c0-1.1,0-1.2-1.1-1.2c-2.8,2.9-6.9,2.9-8.4,2.9v1.4c0.9,0,3.6,0,6-1.2v23.8c0,1.7-0.1,2.2-4.3,2.2h-1.5v1.4c1.6-0.1,5.6-0.1,7.4-0.1
	c1.8,0,5.8,0,7.4,0.1V66h-1.5c-4.1,0-4.3-0.5-4.3-2.2V38"/>
<path d="M254.6,56.9c0.8,0,1.6,0,1.6-0.9s-0.8-0.9-1.6-0.9h-24.9c-0.8,0-1.6,0-1.6,0.9s0.8,0.9,1.6,0.9H254.6 M273.6,38
	c0-1.1,0-1.2-1.1-1.2c-2.8,2.9-6.9,2.9-8.4,2.9v1.4c0.9,0,3.6,0,6-1.2v23.8c0,1.7-0.1,2.2-4.3,2.2h-1.5v1.4c1.6-0.1,5.6-0.1,7.4-0.1
	c1.8,0,5.8,0,7.4,0.1V66h-1.5c-4.1,0-4.3-0.5-4.3-2.2V38"/>
<path d="M352.6,63.9l4.9-4.7c7.2-6.3,9.9-8.8,9.9-13.4c0-5.2-4.1-8.9-9.7-8.9c-5.2,0-8.6,4.2-8.6,8.3c0,2.6,2.3,2.6,2.4,2.6
	c0.8,0,2.4-0.5,2.4-2.4c0-1.2-0.8-2.4-2.4-2.4c-0.4,0-0.5,0-0.6,0c1.1-3,3.5-4.7,6.2-4.7c4.2,0,6.2,3.7,6.2,7.5
	c0,3.7-2.3,7.3-4.8,10.2l-8.8,9.8c-0.5,0.5-0.5,0.6-0.5,1.7h17.1l1.3-8h-1.1c-0.2,1.4-0.6,3.4-1,4.1c-0.3,0.4-3.4,0.4-4.4,0.4H352.6
	"/>
<path d="M150.1,111.9c0.8,0,1.6,0,1.6-0.9s-0.8-0.9-1.6-0.9h-24.9c-0.8,0-1.6,0-1.6,0.9s0.8,0.9,1.6,0.9H150.1 M169,93.1
	c0-1.1,0-1.2-1.1-1.2c-2.8,2.9-6.9,2.9-8.4,2.9v1.4c0.9,0,3.6,0,6-1.2v23.8c0,1.7-0.1,2.2-4.3,2.2h-1.5v1.4c1.6-0.1,5.6-0.1,7.4-0.1
	c1.8,0,5.8,0,7.4,0.1V121h-1.5c-4.1,0-4.3-0.5-4.3-2.2V93.1"/>
<path d="M248,118.9l4.9-4.7c7.2-6.3,9.9-8.8,9.9-13.4c0-5.2-4.1-8.9-9.7-8.9c-5.2,0-8.6,4.2-8.6,8.3c0,2.6,2.3,2.6,2.4,2.6
	c0.8,0,2.4-0.6,2.4-2.4c0-1.2-0.8-2.4-2.4-2.4c-0.4,0-0.5,0-0.6,0c1.1-3,3.5-4.7,6.2-4.7c4.2,0,6.2,3.7,6.2,7.5
	c0,3.7-2.3,7.3-4.8,10.2l-8.8,9.8c-0.5,0.5-0.5,0.6-0.5,1.7h17.1l1.3-8h-1.1c-0.2,1.4-0.6,3.4-1,4.1c-0.3,0.4-3.4,0.4-4.4,0.4H248"
	/>
<path d="M367.9,107.8c0-3.7-0.2-7.4-1.8-10.8c-2.1-4.4-5.9-5.1-7.8-5.1c-2.8,0-6.1,1.2-8,5.5c-1.5,3.2-1.7,6.8-1.7,10.4
	c0,3.4,0.2,7.6,2.1,11.1c2,3.7,5.3,4.6,7.6,4.6c2.5,0,6-1,8-5.3C367.6,115,367.9,111.4,367.9,107.8z M358.2,122.5
	c-1.8,0-4.5-1.1-5.3-5.6c-0.5-2.8-0.5-7-0.5-9.7c0-2.9,0-6,0.4-8.5c0.9-5.5,4.3-5.9,5.5-5.9c1.5,0,4.5,0.8,5.4,5.4
	c0.5,2.6,0.5,6.1,0.5,9c0,3.4,0,6.6-0.5,9.5C362.9,121.1,360.2,122.5,358.2,122.5"/>
<path d="M158.7,162.8c0-3.7-0.2-7.4-1.8-10.8c-2.1-4.4-5.9-5.1-7.8-5.1c-2.8,0-6.1,1.2-8,5.5c-1.5,3.2-1.7,6.8-1.7,10.4
	c0,3.4,0.2,7.6,2.1,11.1c2,3.7,5.3,4.6,7.6,4.6c2.5,0,6-1,8-5.3C158.5,170,158.7,166.4,158.7,162.8z M149,177.5
	c-1.8,0-4.5-1.1-5.3-5.6c-0.5-2.8-0.5-7-0.5-9.7c0-2.9,0-6,0.4-8.5c0.9-5.5,4.3-5.9,5.5-5.9c1.5,0,4.5,0.8,5.4,5.4
	c0.5,2.6,0.5,6.1,0.5,9c0,3.4,0,6.6-0.5,9.5C153.7,176.1,151.1,177.5,149,177.5"/>
<path d="M254.6,166.9c0.8,0,1.6,0,1.6-0.9s-0.8-0.9-1.6-0.9h-24.9c-0.8,0-1.6,0-1.6,0.9s0.8,0.9,1.6,0.9H254.6 M273.6,148.1
	c0-1.1,0-1.2-1.1-1.2c-2.8,2.9-6.9,2.9-8.4,2.9v1.4c0.9,0,3.6,0,6-1.2v23.8c0,1.7-0.1,2.2-4.3,2.2h-1.5v1.4c1.6-0.1,5.6-0.1,7.4-0.1
	c1.8,0,5.8,0,7.4,0.1v-1.4h-1.5c-4.1,0-4.3-0.5-4.3-2.2V148.1"/>
<path d="M359.2,166.9c0.8,0,1.6,0,1.6-0.9s-0.8-0.9-1.6-0.9h-24.9c-0.8,0-1.6,0-1.6,0.9s0.8,0.9,1.6,0.9H359.2 M378.2,148.1
	c0-1.1,0-1.2-1.1-1.2c-2.9,2.9-6.9,2.9-8.4,2.9v1.4c0.9,0,3.6,0,6-1.2v23.8c0,1.7-0.1,2.2-4.3,2.2H369v1.4c1.6-0.1,5.6-0.1,7.4-0.1
	s5.8,0,7.4,0.1v-1.4h-1.5c-4.1,0-4.3-0.5-4.3-2.2V148.1"/>
<path d="M13,113.9v2.4l5.3-0.4v-1.1c-2.5,0-2.8-0.2-2.8-2V91l-5.2,0.4v1.1c2.5,0,2.8,0.3,2.8,2v7.8c-1-1.3-2.6-2.2-4.5-2.2
	c-4.2,0-8,3.5-8,8.2c0,4.6,3.5,8.1,7.6,8.1C10.5,116.3,12.1,115.1,13,113.9z M13,104.3v7.4c0,0.6,0,0.7-0.4,1.3
	c-1.1,1.7-2.7,2.5-4.2,2.5c-1.6,0-2.9-0.9-3.8-2.3c-0.9-1.5-1-3.5-1-5c0-1.3,0.1-3.5,1.1-5.1c0.8-1.1,2.1-2.3,4.1-2.3
	c1.3,0,2.8,0.5,3.9,2.2C13,103.6,13,103.6,13,104.3"/>
<path d="M23.3,106.8c0.2-5.4,3.2-6.2,4.5-6.2c3.7,0,4.1,4.8,4.1,6.2H23.3z M23.3,107.6h10c0.8,0,0.9,0,0.9-0.8c0-3.6-1.9-7-6.4-7
	c-4.2,0-7.5,3.7-7.5,8.2c0,4.8,3.8,8.3,7.9,8.3c4.4,0,6-4,6-4.7c0-0.4-0.3-0.4-0.5-0.4c-0.3,0-0.4,0.2-0.5,0.5
	c-1.3,3.7-4.5,3.7-4.9,3.7c-1.8,0-3.2-1.1-4.1-2.4C23.3,111.3,23.3,108.9,23.3,107.6"/>
<path d="M41.4,101.5h5.1v-1.1h-5.1v-6.6h-0.9c0,2.9-1.1,6.8-4.6,6.9v0.8h3.1v9.9c0,4.4,3.3,4.8,4.6,4.8c2.5,0,3.6-2.6,3.6-4.8v-2
	h-0.9v2c0,2.7-1.1,4-2.4,4c-2.4,0-2.4-3.3-2.4-3.9V101.5"/>
<path d="M69.6,150.1c0-0.1,0-0.1,0-0.2c0-0.1,0-0.3,0-0.6V129c0-0.3,0-0.4,0-0.6c0-0.1,0-0.3,0-0.6v-20.3c0-0.3,0-0.4,0-0.6
	c0-0.1,0-0.3,0-0.6V86c0-0.3,0-0.5,0-0.6c0-0.1,0-0.3,0-0.6V64.4c0-0.2,0-0.4,0-0.5c0,0,0-0.1,0-0.1c0.1-25.2,3-46.1,15.6-63.6
	c0.2-0.3,0.2-0.4,0.2-0.5c0-0.4-0.2-0.4-0.8-0.4c-0.6,0-0.6,0-0.7,0.1c-0.1,0.1-4.7,5.3-8.3,12.6c-4.7,9.5-7.7,20.4-9.1,33.4
	c-0.1,1.1-0.9,8.6-0.9,17.1v1.4c0,0,0,0,0,0.1c0,0.1,0,0.3,0,0.5v20.3c0,0.3,0,0.5,0,0.6c0,0.1,0,0.3,0,0.6v20.3c0,0.3,0,0.4,0,0.6
	c0,0.1,0,0.3,0,0.6v20.3c0,0.3,0,0.4,0,0.6c0,0.1,0,0.3,0,0.6v20.3c0,0.2,0,0.4,0,0.6c0,0,0,0.1,0,0.1v1.4c0,21.9,3.9,34.8,5,38.4
	c2.4,8,6.4,16.4,12.4,23.8c0.5,0.6,0.7,0.8,0.8,0.9c0.1,0,0.1,0.1,0.7,0.1c0.6,0,0.8,0,0.8-0.4c0-0.1,0-0.1-0.2-0.5
	C73.2,197.1,69.7,177.2,69.6,150.1z"/>
<path d="M441.5,62.5c0-21.9-3.9-34.8-5-38.4c-2.4-8-6.4-16.4-12.4-23.8c-0.5-0.6-0.7-0.8-0.8-0.9c-0.1,0-0.1-0.1-0.7-0.1
	c-0.5,0-0.8,0-0.8,0.4c0,0.1,0,0.1,0.5,0.8c12.5,17.5,15.3,39,15.3,63.3c0,0.1,0,0.1,0,0.1c0,0.1,0,0.3,0,0.5v20.3
	c0,0.3,0,0.5,0,0.6c0,0.1,0,0.3,0,0.6v20.3c0,0.3,0,0.4,0,0.6c0,0.1,0,0.3,0,0.6v20.3c0,0.3,0,0.4,0,0.6c0,0.1,0,0.3,0,0.6v20.3
	c0,0.3,0,0.4,0,0.6c0,0.1,0,0.1,0,0.2c0,3.7,0,12.2-1,21.2c-1.9,18.6-6.7,31.4-14.6,42.5c-0.2,0.3-0.2,0.4-0.2,0.5
	c0,0.4,0.3,0.4,0.8,0.4c0.6,0,0.6,0,0.7-0.1c0.1-0.1,4.7-5.4,8.3-12.6c4.7-9.5,7.7-20.4,9.1-33.4c0.1-1.1,0.9-8.6,0.9-17.1V150
	c0,0,0-0.1,0-0.1c0-0.1,0-0.3,0-0.6V129c0-0.3,0-0.4,0-0.6c0-0.1,0-0.3,0-0.6v-20.3c0-0.3,0-0.4,0-0.6c0-0.1,0-0.3,0-0.6V86
	c0-0.3,0-0.5,0-0.6c0-0.1,0-0.3,0-0.6V64.4c0-0.2,0-0.4,0-0.5c0,0,0,0,0-0.1V62.5z"/>
</svg>
