<?xml version="1.0" encoding="utf-8"?>
<!-- Generator: Adobe Illustrator 23.0.3, SVG Export Plug-In . SVG Version: 6.00 Build 0)  -->
<svg version="1.1" id="Layer_1" xmlns="http://www.w3.org/2000/svg" xmlns:xlink="http://www.w3.org/1999/xlink" x="0px" y="0px"
	 viewBox="0 0 1024 768" style="enable-background:new 0 0 1024 768;" xml:space="preserve">
<path d="M743.2,758c-8.4,3.7-15.4,6.7-22.7,10C557.2,518.3,394.1,268.9,230.7,19c4.8-5.9,9.7-11.7,15.5-18.9
	c8.4,8.8,18,16.2,24.3,25.8c99,150.5,197.6,301.2,296.2,451.9c53.6,82,107.2,163.9,160.4,246.2C733.7,734.1,737.6,746,743.2,758z"/>
<path d="M738.8,0c9.8,9.8,8.2,17.8,1,28.3C667.5,134,595.7,240.1,524,346.2c-2.9,4.3-5.7,6.1-10.7,4.9c-3.6-0.9-7.3-1.2-10.8-1.7
	c-2-13.5-0.1-25,8-36.8c67.8-99,135-198.3,202.1-297.8C719.3,4.8,730,4.5,738.8,0z"/>
<path d="M473,421.2c-20.1,29.7-40.1,59-60,88.4C360.9,586.4,308.8,663.2,256.8,740c-10.4,15.4-10.4,15.4-28.5,7.8
	c1.3-11.5,2.3-22.6,9.5-33.2c65.9-96.4,131.1-193.2,197-289.4c5.4-7.9,14.9-13,22.6-19.1c0.7-0.6,3.6,0.4,4.5,1.5
	C465.7,411.9,469.2,416.5,473,421.2z"/>
<path d="M634.7,557.6c6.4-16.2,17.5-27,30.9-36.5c39.3-28,78.3-56.5,117-85.3c8.5-6.3,18-8.2,27.6-10.5c1.2-0.3,2.9,1.3,4.2,2.2
	c0.5,0.3,0.7,1.2,0.9,1.8c7.3,17.5,7.3,17.5-8.5,28.6c-44.5,31.5-89.2,62.8-133.5,94.6c-7.8,5.6-15.5,7.6-24.7,6.3
	C644.2,558.1,639.6,558,634.7,557.6z"/>
<path d="M142.3,431.6c25.9,15,50.3,29,74.7,43.2c28.7,16.6,57,34,86.1,49.8c12.6,6.8,20.2,16.4,25,29.5c-6.5,1.5-13.3,3.6-20.2,4.4
	c-3.3,0.4-7.3-1.1-10.3-2.9c-45.3-26.7-90.6-53.6-135.7-80.7c-3.2-1.9-6.6-5-7.9-8.3C149.7,455.7,146.5,444.3,142.3,431.6z"/>
<path d="M382.4,580.9c7-2.2,14-5.1,21.2-6.4c4.3-0.8,9.3,0.1,13.6,1.4c22.7,6.9,45.6,12.5,69.4,14c21.1,1.3,41.8-0.6,61.8-7.6
	c8.9-3.1,16.9-4.1,25.2,1.2c3.2,2,7.1,2.9,10.4,4.2c-7.8,14.7-20,21.5-35.5,24.1c-16.4,2.8-32.6,7.2-48.9,10.6
	c-3.7,0.8-7.9,0.9-11.6,0c-24.8-5.8-49.5-12.1-74.3-17.8c-9.4-2.2-17.4-5.5-23.2-13.8c-2.3-3.3-6.4-5.3-9.6-7.9
	C381.3,582.4,381.9,581.7,382.4,580.9z"/>
</svg>
