<?xml version="1.0" encoding="utf-8"?>
<!-- Generator: Adobe Illustrator 23.0.3, SVG Export Plug-In . SVG Version: 6.00 Build 0)  -->
<svg version="1.1" id="Layer_1" xmlns="http://www.w3.org/2000/svg" xmlns:xlink="http://www.w3.org/1999/xlink" x="0px" y="0px"
	 viewBox="0 0 1024 768" style="enable-background:new 0 0 1024 768;" xml:space="preserve">
<path d="M754.6,765.5c-2.9,0-5.6-0.5-8-2C633.7,689,516.5,606.2,433.2,485.7c-67.5-97.7-60.9-172,22.9-256.6
	c94.5-95.3,213.5-158.5,317.7-210.3c5.4-2.7,12-1.1,18.3,0.5c2.6,0.6,5,1.3,7.2,1.5l3.9,0.5v12.3l-2.2,1.3
	c-23.7,14.2-47.9,28.5-71.2,42.4c-64.7,38.4-131.6,78.2-196.7,118.2c-17.4,10.7-32.6,25.9-47.4,40.7c-1.7,1.7-3.5,3.5-5.2,5.2
	c-43.2,43-63.8,78.5-66.9,115.1c-3,36.7,11.7,75.1,47.6,124.4c77.2,105.8,182.1,181.8,282.9,250.6l0.7,0.5
	c8.8,6,17.9,12.2,25.4,26.1l3.5,6.5h-7.4c-1.6,0-3.5,0.2-5.4,0.4C758.9,765.2,756.7,765.5,754.6,765.5z"/>
<path d="M521.3,532.7l8.1-15.6c4.3-8.4,8.9-16.8,13.3-25c9.9-18.3,20.2-37.3,28.3-56.7c11.1-26.8,8-57.1-9.2-90.1
	c-10.6-20.3-23.2-40-35.5-59.1c-5.4-8.4-11-17.1-16.3-25.8l-2.3-3.8l3.7-2.3c7.2-4.4,12.8-7.9,20.1-2.8c5.5,3.9,11.6,12.6,24.8,31.5
	c36,51.6,50.7,102.7,42.6,147.7c-6.7,36.8-27.9,67.8-63.1,91.9L521.3,532.7z"/>
<path d="M454.9,193.5l-3.5-0.9c-1.9-0.5-3.9-0.8-6-1.2c-5.1-0.9-10.3-1.8-14.6-4.8c-67.6-47.7-140-99-211.5-151.3
	c-5.3-3.9-6.9-11.2-8.4-18.3c-0.6-2.9-1.2-5.7-2.1-8.1l-2-5.9h13.5l1.1,0.8c15.5,10.6,31.2,21.3,46.5,31.7
	c36.7,24.9,74.6,50.7,111.4,76.9c19.2,13.7,37.7,29.1,55.5,43.9c8,6.7,16.3,13.6,24.5,20.2l2.7,2.2L454.9,193.5z"/>
<path d="M210.8,755.7c-2.6,0-4.1-0.5-5-0.8l-8.9-2.9L488,564.3l-8.2,15.2c-14.9,27.4-81.8,76.6-134.6,110.3
	c-30.8,19.7-61.1,37-85.2,48.8C230.5,753,217.1,755.7,210.8,755.7z"/>
</svg>
