<?xml version="1.0" encoding="utf-8"?>
<!-- Generator: Adobe Illustrator 23.0.3, SVG Export Plug-In . SVG Version: 6.00 Build 0)  -->
<svg version="1.1" id="Layer_1" xmlns="http://www.w3.org/2000/svg" xmlns:xlink="http://www.w3.org/1999/xlink" x="0px" y="0px"
	 viewBox="0 0 1024 768" style="enable-background:new 0 0 1024 768;" xml:space="preserve">
<path d="M293.5,718.2c-1.9,0-3.8-0.2-5.9-0.5l-14-2.5l7.4-12.2c10.1-16.7,20.4-33.4,30.4-49.6c21.8-35.3,44.3-71.8,64.6-108.4
	c53.1-95.9,56.8-194.6,10.8-293.5c-19-40.9-41.8-81-63.8-119.9c-8.9-15.7-18.1-31.9-27-48c-3.5-6.3-7.6-12.3-12-18.6
	c-2-2.9-4.1-6-6.2-9l-4.3-6.4L292,29.6l7.1,6.8c1.8,1.7,3.8,3.4,6,5.2c5.1,4.3,10.4,8.8,14.4,14.8C409.4,191,450.7,290.5,453.6,379
	c2.9,89.1-33.4,167.4-88.8,257.4c-23.6,38.4-35.9,56.6-45.4,67.2C310.4,713.8,302.7,718.2,293.5,718.2z"/>
<path d="M673.7,735l-11.8-16.4c-33.5-46.3-59.1-90.1-78.2-133.8c-22-50.2-35.3-99.2-40.5-150C528.7,293.6,596.9,180.5,662.7,71
	c6.4-10.6,12.9-21.5,19.3-32.2l4.2-7l28.6,10.7l-3.9,9.4c-0.9,2.2-1.8,4.5-2.8,6.9c-2.1,5.4-4.3,11-7.2,16.4
	c-9.5,17.5-19.4,35.1-28.9,52.2c-17.3,30.9-35.1,62.9-51.6,94.8c-29.4,57.1-44.5,115.9-44.6,174.8c-0.2,57.5,13.8,116.7,41.4,176
	c11.5,24.7,24.7,49.3,37.4,73c7,13.1,14.3,26.6,21.2,40.1c5.1,9.9,6.2,19.6,3.4,29.6L673.7,735z"/>
</svg>
