<?xml version="1.0" encoding="utf-8"?>
<!-- Generator: Adobe Illustrator 23.0.3, SVG Export Plug-In . SVG Version: 6.00 Build 0)  -->
<svg version="1.1" id="Layer_1" xmlns="http://www.w3.org/2000/svg" xmlns:xlink="http://www.w3.org/1999/xlink" x="0px" y="0px"
	 viewBox="0 0 1024 768" style="enable-background:new 0 0 1024 768;" xml:space="preserve">
<g>
	<path d="M490.7,736c-2.1-9-6-18-5.9-26.9c0.5-101.2,1.4-202.3,2.5-303.5c1.1-109.2,2.3-218.3,3.8-327.5c0.1-9.8,3.2-19.5,4.9-29.3
		c2.7,0.5,5.3,1,8,1.6c0,227.9,0,455.7,0,683.6C499.6,734.6,495.1,735.3,490.7,736z"/>
	<path d="M484.2,745.6l-1.8-7.7c-0.6-2.6-1.4-5.2-2.2-8.1c-1.9-6.6-4-13.5-3.9-20.8c0.5-101.2,1.4-201.3,2.5-303.5
		c1-103.7,2.2-215.2,3.8-327.5c0.1-7.5,1.7-14.7,3.2-21.7c0.7-3.1,1.3-6,1.8-8.9l1.5-8.5l23.4,4.5v697.9L484.2,745.6z M495.5,435.7
		c-0.9,91.8-1.7,182.2-2.2,273.4c0,3.8,0.9,7.9,2.2,12.2V435.7z"/>
</g>
</svg>
