<?xml version="1.0" encoding="utf-8"?>
<!-- Generator: Adobe Illustrator 23.0.3, SVG Export Plug-In . SVG Version: 6.00 Build 0)  -->
<svg version="1.1" id="Layer_1" xmlns="http://www.w3.org/2000/svg" xmlns:xlink="http://www.w3.org/1999/xlink" x="0px" y="0px"
	 viewBox="0 0 1024 768" style="enable-background:new 0 0 1024 768;" xml:space="preserve">
<path d="M801.2,758.7c-15.8,6.7-15.7,6.7-24.6-6.8c-57.1-87.2-114.3-174.4-171.3-261.7C509,342.8,412.7,195.4,316.7,47.9
	c-5.9-9.1-9.1-19.9-13.4-29.6c2-1.5,2.6-2.1,3.4-2.4c12.3-5.8,12.7-6.1,20.3,5.5c41.7,63.2,83.3,126.4,124.8,189.7
	c64.5,98.6,128.9,197.3,193.3,296c48.5,74.3,97.1,148.5,145.2,223.1C795.6,738.4,797.5,748.8,801.2,758.7z"/>
<path d="M803.2,10.2c-0.4,10.4-1.5,20.1-7.9,29.6c-67.2,98.4-134,197.1-200.6,295.8c-5.1,7.6-11.8,11.4-19.8,13.8
	c-1.7,0.5-5.3-0.8-5.9-2.2c-1.6-3.7-3.5-8.3-2.5-11.7c1.5-4.8,5.5-8.8,8.5-13.2c67.6-99.4,135.1-199,203.2-298.1
	c5-7.2,14.9-11,22.6-16.4C801.5,8.7,802.4,9.5,803.2,10.2z"/>
<path d="M528.2,411.7c1.9,15.5-2.5,26-9.7,36.6C451,547.2,383.8,646.4,317,745.9c-4.8,7.1-9.3,4.8-14.7,3.9c-6.5-1.1-4.4-6.5-3.8-10
	c0.9-5.6,2-11.7,5-16.2c66.8-99.1,133.8-198.1,201.3-296.6C509.5,420.2,519.5,417.2,528.2,411.7z"/>
<path d="M362.5,161.8c-0.5,12.7-7.1,20.8-17,28c-33.9,24.6-67.4,49.7-100.7,75.1c-7.7,5.9-15.7,6.1-23.5,3.3
	c-3.3-1.2-4.7-7.7-7.3-12.3c20-14.6,39.2-28.7,58.4-42.7c20.2-14.7,40.5-29.2,60.7-43.8C346,160.3,346.1,160.3,362.5,161.8z"/>
<path d="M674.8,135.3c-21.6,6.9-39.5-2.8-57.7-9.7c-36.4-13.9-73.7-21.2-112.4-13.6c-15.4,3-30.1,9-45.3,13.4
	c-10.5,3-21,5.7-31.5,8.5c-5.1-16.8-5-17.1,8-23.5c32.7-16.1,66.8-28.7,103.7-24.8c24.6,2.6,48.7,9.8,72.8,15.7
	c12.3,3,24,8.7,36.4,11.3C662.3,115.3,668.4,124.8,674.8,135.3z"/>
<path d="M881.1,239.4c-1.1,4.4-2.3,8.9-3.4,13.3c-11.1,1.8-20.7,0.7-30.4-5.6c-38.8-25.2-78.1-49.6-117.2-74.2
	c-1.6-1-3.1-2.2-4.7-3.5c14.5-7,30.6-6.6,43.4,1.2c36.4,22.1,72.8,44.3,109.2,66.5C879.1,237.6,879.8,238.4,881.1,239.4z"/>
</svg>
