<?xml version="1.0" encoding="utf-8"?>
<!-- Generator: Adobe Illustrator 23.0.3, SVG Export Plug-In . SVG Version: 6.00 Build 0)  -->
<svg version="1.1" id="Layer_1" xmlns="http://www.w3.org/2000/svg" xmlns:xlink="http://www.w3.org/1999/xlink" x="0px" y="0px"
	 viewBox="0 0 1024 768" style="enable-background:new 0 0 1024 768;" xml:space="preserve">
<path d="M512.49,768c-51.81,0-102.08-10.16-149.43-30.2c-45.72-19.35-86.79-47.04-122.06-82.32
	c-35.27-35.27-62.97-76.34-82.32-122.06c-20.04-47.34-30.2-97.62-30.2-149.43c0-51.81,10.16-102.08,30.2-149.43
	c19.35-45.72,47.04-86.79,82.32-122.06c35.27-35.27,76.34-62.97,122.06-82.32C410.41,10.16,460.68,0,512.49,0
	c51.81,0,102.08,10.16,149.43,30.2c45.72,19.35,86.79,47.04,122.06,82.32c35.27,35.27,62.97,76.34,82.32,122.06
	c20.04,47.35,30.2,97.62,30.2,149.43c0,51.81-10.16,102.08-30.2,149.43c-19.35,45.72-47.04,86.79-82.32,122.06
	c-35.27,35.27-76.34,62.97-122.06,82.32C614.58,757.84,564.3,768,512.49,768z M512.49,16.63c-49.57,0-97.66,9.72-142.95,28.88
	c-43.74,18.51-83.03,45.01-116.78,78.76s-60.25,73.04-78.76,116.78c-19.16,45.28-28.88,93.38-28.88,142.95
	c0,49.57,9.72,97.66,28.88,142.95c18.51,43.74,45.01,83.03,78.76,116.78s73.04,60.25,116.78,78.76
	c45.28,19.16,93.38,28.88,142.95,28.88s97.66-9.72,142.95-28.88c43.74-18.51,83.03-45.01,116.78-78.76s60.25-73.04,78.76-116.78
	c19.16-45.28,28.88-93.38,28.88-142.95c0-49.57-9.72-97.66-28.88-142.95c-18.51-43.74-45.01-83.03-78.76-116.78
	s-73.04-60.25-116.78-78.76C610.16,26.35,562.06,16.63,512.49,16.63z"/>
</svg>
